<?xml version="1.0" encoding="utf-8" ?><svg xmlns="http://www.w3.org/2000/svg" xmlns:xlink="http://www.w3.org/1999/xlink" width="1024" height="1024" viewBox="0 0 1024 1024"><path fill="#3C3C3B" transform="scale(2 2)" d="M104.092 125.551C106.852 115.192 121.734 98.7715 132.088 95.5369C135.589 95.7891 142.447 108.375 144.057 111.762C151.773 109.114 159.936 107.734 168.026 106.836C178.664 105.654 174.943 125.244 175.223 132.597C181.353 135.038 188.272 136.617 194.404 139.339C203.681 143.459 190.454 160.082 186.824 166.846C188.538 168.133 189.679 168.991 191.215 170.46C214.214 152.22 237.64 140.682 267.447 138.834C344.986 134.027 400.638 196.659 404.854 271.34C415.829 281.409 411.71 282.406 403.28 291.125C403.901 295.499 404.061 299.735 404.854 304.196C419.659 311.493 444.476 306.711 453.842 292.097C455.921 288.853 458.228 285.205 460.909 282.426C467.913 275.116 479.05 280.979 477.501 290.965C470.375 336.896 433.966 361.712 388.492 357.208L388.499 385.448C388.545 401.27 389.556 412.18 371.872 416.393L349.699 416.408C346.146 416.41 342.192 416.27 338.682 416.384C317.582 417.072 310.426 390.608 329.275 380.619L329.275 357.208L262.748 357.208L262.755 385.617C262.759 390.712 262.758 395.717 262.621 400.818C262.117 419.507 239.216 416.276 227.027 416.403C212.618 415.47 201.498 420.059 194.805 402.788C188.728 408.901 185.908 410.852 176.92 410.721C161.873 410.504 128.437 415.867 131.462 390.878C132.391 383.208 135.431 380.403 141.082 375.857L141.082 324.297C139.931 322.671 138.408 320.858 137.121 319.324C116.244 294.454 111.757 266.2 104.092 236.516C98.3771 232.284 87.7152 226.198 81.4109 223.337C77.6421 223.626 73.9738 225.364 70.3074 226.481C55.4061 231.018 25.956 207.17 36.5058 190.359C45.1649 176.561 54.1193 162.999 62.9621 149.333C72.3169 134.876 88.3225 129.535 104.092 125.551ZM156.519 162.485C145.762 125.735 100.428 124.763 75.0799 145.888C68.9181 151.023 60.0445 166.368 55.2898 173.55L46.2949 187.302C39.4757 197.938 37.7541 200.008 47.9537 209.992C60.9586 225.061 67.4582 219.853 82.6255 215.161C99.2061 210.031 136.277 200.753 142.731 184.466C143.948 181.395 143.371 176.027 145.344 173.777C151.283 170.814 151.43 177.419 150.587 181.382C147.3 196.834 137.042 202.802 123.591 208.406C132.575 217.365 147.919 227.626 158.171 236.516C157.456 229.601 155.902 223.61 156.267 216.321C157.185 197.978 161.985 181.963 156.519 162.485ZM469.133 285.902C466.186 284.448 463.878 289.166 462.423 291.183C457.718 297.701 453.332 301.576 448.88 307.248C449.889 308.42 450.428 308.999 451.211 310.366C454.013 315.879 454.961 317.779 456.714 323.693C461.139 318.66 474.983 291.915 469.133 285.902ZM444.823 313.833C444.064 312.686 443.293 311.472 442.483 310.366C435.688 312.799 431.882 313.864 424.519 313.833L426.4 321.258C427.933 331.046 427.445 336.795 426.4 346.482C434.528 344.08 446.092 337.144 451.211 330.493C450.249 325.92 447.826 317.264 444.823 313.833ZM404.854 312.429L404.854 319.928C403.232 331.438 400.624 340.993 392.812 350.232C401.146 351.195 411.25 349.359 419.397 349.278C419.381 338.982 421.663 332.694 419.397 321.258C418.74 319.318 417.937 315.831 417.596 313.833C413.294 313.656 408.975 312.44 404.854 312.429ZM255.83 346.482C252.808 318.013 214.45 315.839 211.159 347.46C211.015 348.424 211.118 353.797 211.121 355.029L211.182 374.183C211.192 377.2 211.287 380.217 211.151 383.232C211.177 387.149 201.002 389.44 200.899 397.406C200.673 414.761 230.003 409.043 242.441 409.319C259.27 409.692 255.836 396.227 255.834 384.58L255.83 346.482ZM381.553 349.278C380.444 318.05 337.76 314.778 336.269 348.229C336.266 360.206 336.501 372.953 336.269 384.85C334.284 386.488 331.928 387.191 329.871 388.771C321.839 394.733 325.859 408.946 335.902 409.164C342.63 409.31 349.913 409.476 356.598 409.277C377.406 408.659 381.612 411.279 381.576 388.034L381.571 356.484C381.572 354.727 381.69 350.844 381.553 349.278ZM131.056 104.013C123.651 108.155 114.002 117.387 111.278 125.551C114.86 125.191 119.944 125.147 123.591 125.551C128.478 126.693 131.474 127.604 136.196 129.646C137.595 125.393 138.18 121.185 139.42 117.266C138.426 115.562 132.166 104.72 131.056 104.013ZM167.236 113.609C162.378 114.056 149.936 116.511 145.612 118.5C144.694 123.275 143.765 127.895 142.508 132.597C145.108 134.495 147.587 136.586 150.076 138.63L155.764 144.386C170.378 136.42 169.262 129.338 168.023 113.999L167.748 113.589L167.236 113.609ZM172.103 138.63C168.141 143.736 164.638 147.484 158.785 150.257C161.666 156.098 162.597 158.807 164.233 165.075C168.103 164.775 172.896 164.287 176.671 164.428C177.78 164.158 179.083 163.884 180.142 163.5C183.025 160.268 188.847 149.683 190.51 145.503C187.587 143.922 175.75 139.25 172.103 138.63ZM269.953 145.503C262.661 146.117 252.679 147.292 245.7 149.486C246.513 151.76 247.147 153.42 248.157 155.607C259.654 152.242 270.353 152.489 282.163 152.528C289.269 153.172 296.111 153.579 302.99 155.607C304.314 153.509 305.295 151.807 306.227 149.486C294.718 146.432 281.85 145.117 269.953 145.503ZM238.141 151.302C236.205 151.947 234.743 152.379 232.947 153.335C237.006 162.674 243.482 177.038 246.493 186.537C240.743 191.361 227.626 200.179 220.48 204.103C213.816 198.405 206.971 194.025 200.161 188.815L196.28 192.704C201.506 198.865 213.739 206.74 220.48 212.055C223.72 209.71 249.915 191.224 252.08 191.127C267.63 190.426 283.283 191.195 298.851 190.704C301.812 190.61 328.734 208.656 331.792 211.282C334.196 209.053 335.365 208.259 338.085 206.475C347.292 200.389 356.754 193.869 365.756 187.498C364.359 185.884 363.233 184.586 361.704 183.11L341.632 196.358C338.877 198.176 334.504 201.343 331.792 202.894C322.515 196.982 312.452 190.395 302.99 184.875C308.97 175.605 313.251 163.401 319.202 153.335C316.912 152.717 314.626 152.147 312.408 151.302C307.366 162.436 301.592 173.136 296.404 184.185L266.443 184.195C262.857 184.199 255.575 184.444 252.232 184.185C251.092 180.79 239.698 151.857 238.756 151.27L238.141 151.302ZM226.772 156.298C219.387 159.089 201.314 170.065 196.28 175.472C197.629 177.206 198.668 178.524 200.161 180.121L200.567 180.387C210.025 173.897 218.16 166.373 229.773 162.485C229.217 161.113 227.771 156.919 226.772 156.298ZM324.634 156.298C323.807 158.165 323.007 159.846 322.097 161.673C331.222 166.192 339.561 170.382 347.267 177.197C349.426 179.107 350.983 181.642 353.813 180.121L356.684 178.384C351.283 171.708 333.537 159.899 324.634 156.298ZM269.953 158.972C262.737 159.726 257.897 160.377 250.69 161.673C252.473 166.754 255.183 172.412 257.261 177.508L280.688 177.508C284.378 177.551 288.325 177.663 291.987 177.508C294.254 173.198 298.368 166.106 299.434 161.673C291.026 159.144 278.695 158.792 269.953 158.972ZM319.202 167.603C316.887 171.55 313.755 177.974 312.408 182.301C317.704 186.749 325.905 190.525 331.792 194.513C333.211 193.757 334.824 192.849 336.269 192.192C339.704 189.303 343.722 187.267 346.443 184.875C338.464 179.109 328.246 171.624 319.202 167.603ZM231.722 168.761C223.272 172.372 213.167 178.647 206.427 184.875L216.406 192.192C217.986 193.325 219.691 194.606 221.349 195.586C227.024 191.884 232.546 188.003 238.141 184.185C237.399 181.9 232.927 170.259 231.722 168.761ZM178.402 170.46C174.151 170.967 169.362 171.449 165.199 172.228C165.426 179.322 165.731 185.578 165.742 192.704C167.596 193.064 180.255 195.869 181.089 195.586C185.169 193.187 191.981 187.822 194.805 184.185C190.039 179.25 186.109 175.139 181.089 170.46L178.402 170.46ZM370.347 192.704C367.816 194.277 365.201 195.978 362.563 197.344C371.217 211.605 378.036 218.959 383.329 236.53C387.603 250.713 384.348 245.98 393.698 257.841C394.93 259.437 395.998 260.899 397.149 262.554C393.687 231.952 386.003 217.335 370.347 192.704ZM286.98 197.344C289.515 201.74 290.946 205.991 289.559 211.118C284.537 229.683 251.851 222.817 263.269 197.344C252.138 198.577 254.901 196.557 245.036 203.374L230.174 213.516C227.754 215.186 222.804 218.846 220.48 219.907C216.429 218.117 194.894 201.445 190.51 197.344L186.824 200.389C197.033 222.575 199.929 223.884 174.753 228.844C174.31 235.835 175.289 244.681 174.753 251.182C184.358 260.377 195.109 261.687 182.395 275.228C190.567 283.018 207.915 298.023 217.523 304.196L232.09 293.37C235.451 290.87 240.657 286.576 244.338 285.075C250.909 288.749 260.645 296.775 266.875 301.435C268.916 303.021 269.799 303.754 271.538 305.666C277.348 300.654 292.512 288.068 299.434 285.075C303.467 286.589 324.053 302.269 328.155 305.666C333.479 301.532 349.85 288.472 355.605 285.902C360.689 288.19 376.992 300.333 381.553 304.196C387.897 296.058 397.06 288.03 404.249 280.473C396.714 271.75 387.333 261.883 380.667 252.376C378.831 249.758 378.213 242.278 376.933 239.071C373.387 226.419 365.801 211.247 356.684 201.818C351.304 206.066 337.837 215.628 331.792 218.742C320.445 212.507 309.489 203.914 297.918 197.344C294.208 197.433 290.682 197.367 286.98 197.344ZM274.073 199.026C269.666 199.697 266.649 203.83 267.354 208.232C268.06 212.634 272.217 215.618 276.614 214.878C280.961 214.145 283.904 210.044 283.206 205.692C282.508 201.339 278.431 198.364 274.073 199.026ZM165.199 199.437C163.718 206.94 162.7 214.879 163.232 222.519C170.223 222.573 175.627 221.989 182.395 219.907C183.907 219.479 185.295 219.104 186.824 218.742C184.925 213.962 182.449 207.266 180.142 202.894C177.148 201.783 168.632 200.077 165.199 199.437ZM115.761 211.282C107.43 214.123 98.6016 217.318 90.231 219.907C95.7536 223.573 104.766 228.104 109.531 232.069C109.936 232.36 110.894 233.085 111.278 233.302C118.312 231.739 127.602 229.834 133.248 225.113C128.194 220.857 121.322 214.796 115.761 211.282ZM164.233 229.861C163.921 235.118 166.374 234.942 163.232 240.943C164.609 242.337 165.761 243.399 167.236 244.694L167.842 245.216L168.161 244.997C168.212 241.118 167.474 234.021 167.236 229.861C166.308 229.848 165.142 229.797 164.233 229.861ZM139.42 229.861C129.888 236.523 122.682 238.358 111.278 239.994C113.948 246.978 115.241 255.9 117.919 263.417C121.442 262.621 125.026 261.844 128.519 260.947C138.247 257.805 151.252 253.22 158.171 245.478C156.507 244.055 139.952 230.059 139.42 229.861ZM163.232 251.182C145.55 262.581 142.277 264.866 119.881 270.199C122.468 278.025 125.709 285.474 128.519 293.196C131.856 292 133.69 291.684 137.195 291.125C149.293 287.303 174.39 277.473 181.089 265.566C178.945 263.956 164.363 251.625 163.232 251.182ZM176.671 280.473C157.694 292.554 151.438 293.08 132.088 299.214C133.62 302.895 141.914 316.083 144.982 317.716L145.612 317.68C162.852 314.074 180.357 306.228 190.51 291.125C186.106 288.148 180.722 282.86 176.671 280.473ZM299.434 293.196C290.137 300.052 280.714 306.838 271.538 313.833C262.945 306.871 252.33 300.346 244.338 293.196C236.648 298.45 225.438 308.619 217.523 312.429C211.849 309.801 201.053 300.545 196.28 296.279C181.222 310.602 172.55 319.455 150.076 323.693C162.967 336.749 185.469 351.74 204.406 350.232C204.931 315.878 242.229 306.545 258.521 331.606C262.518 338.6 262.576 342.369 262.748 350.232L329.275 350.232C329.343 310.741 377.345 308.46 386.859 338.659C387.452 340.542 387.969 342.457 388.492 344.367C398.054 331.23 399.976 312.866 397.149 297.098C392.061 301.74 387.258 308.58 382.076 312.429C374.243 308.32 363.451 299.306 355.605 294.104C349.288 298.871 335.102 310.086 328.155 313.293C323.299 311.038 300.39 293.349 299.434 293.196ZM147.751 331.606L147.751 379.823C145.941 381.668 143.441 382.864 141.524 384.675C134.655 391.166 139.288 403.062 148.506 403.734C152.17 404.002 156.111 403.809 159.806 403.793L180.142 403.774C192.241 401.858 189.74 390.852 189.737 381.695L189.717 355.392C177.664 352.639 166.82 346.92 157.137 339.249C154.957 337.522 149.89 332.57 147.751 331.606ZM196.28 357.208L196.294 377.878C196.302 381.424 196.473 385.285 196.28 388.777C197.607 387.477 198.759 385.941 200.161 384.85C201.76 383.341 202.368 382.688 204.406 381.754L204.406 357.208C201.495 357.357 199.18 357.297 196.28 357.208Z"/><path fill="#74D3D8" transform="scale(2 2)" d="M111.278 125.551C114.002 117.387 123.651 108.155 131.056 104.013C132.166 104.72 138.426 115.562 139.42 117.266C138.18 121.185 137.595 125.393 136.196 129.646C131.474 127.604 128.478 126.693 123.591 125.551C119.944 125.147 114.86 125.191 111.278 125.551Z"/><path fill="#74D3D8" transform="scale(2 2)" d="M145.612 118.5C149.936 116.511 162.378 114.056 167.236 113.609L167.748 113.589L168.023 113.999C169.262 129.338 170.378 136.42 155.764 144.386L150.076 138.63C147.587 136.586 145.108 134.495 142.508 132.597C143.765 127.895 144.694 123.275 145.612 118.5Z"/><path fill="#FECB5B" transform="scale(2 2)" d="M47.9537 209.992C48.0231 208.767 46.6843 206.185 46.3207 204.854C44.8697 199.539 51.2951 191.872 54.1674 187.613L62.3218 175.413C73.829 158.414 77.7778 146.985 99.5978 140.612C118.597 135.063 137.051 138.314 150.38 153.988C151.876 155.748 155.034 161.873 156.519 162.485C161.985 181.963 157.185 197.978 156.267 216.321C155.902 223.61 157.456 229.601 158.171 236.516C147.919 227.626 132.575 217.365 123.591 208.406C137.042 202.802 147.3 196.834 150.587 181.382C151.43 177.419 151.283 170.814 145.344 173.777C143.371 176.027 143.948 181.395 142.731 184.466C136.277 200.753 99.2061 210.031 82.6255 215.161C67.4582 219.853 60.9586 225.061 47.9537 209.992ZM91.81 163.5C87.5191 165.993 87.2393 180.457 93.9735 180.121C97.5567 178.04 99.5147 163.276 91.81 163.5ZM109.531 163.5C108.712 163.931 106.856 164.886 106.765 165.995C106.312 171.498 104.112 180.335 111.278 180.121C114.91 177.757 115.945 163.299 109.531 163.5Z"/><path fill="#74D3D8" transform="scale(2 2)" d="M158.785 150.257C164.638 147.484 168.141 143.736 172.103 138.63C175.75 139.25 187.587 143.922 190.51 145.503C188.847 149.683 183.025 160.268 180.142 163.5C179.083 163.884 177.78 164.158 176.671 164.428C172.896 164.287 168.103 164.775 164.233 165.075C162.597 158.807 161.666 156.098 158.785 150.257Z"/><path fill="white" transform="scale(2 2)" d="M245.7 149.486C252.679 147.292 262.661 146.117 269.953 145.503C281.85 145.117 294.718 146.432 306.227 149.486C305.295 151.807 304.314 153.509 302.99 155.607C296.111 153.579 289.269 153.172 282.163 152.528C270.353 152.489 259.654 152.242 248.157 155.607C247.147 153.42 246.513 151.76 245.7 149.486Z"/><path fill="white" transform="scale(2 2)" d="M232.947 153.335C234.743 152.379 236.205 151.947 238.141 151.302L238.756 151.27C239.698 151.857 251.092 180.79 252.232 184.185C255.575 184.444 262.857 184.199 266.443 184.195L296.404 184.185C301.592 173.136 307.366 162.436 312.408 151.302C314.626 152.147 316.912 152.717 319.202 153.335C313.251 163.401 308.97 175.605 302.99 184.875C312.452 190.395 322.515 196.982 331.792 202.894C334.504 201.343 338.877 198.176 341.632 196.358L361.704 183.11C363.233 184.586 364.359 185.884 365.756 187.498C356.754 193.869 347.292 200.389 338.085 206.475C335.365 208.259 334.196 209.053 331.792 211.282C328.734 208.656 301.812 190.61 298.851 190.704C283.283 191.195 267.63 190.426 252.08 191.127C249.915 191.224 223.72 209.71 220.48 212.055C213.739 206.74 201.506 198.865 196.28 192.704L200.161 188.815C206.971 194.025 213.816 198.405 220.48 204.103C227.626 200.179 240.743 191.361 246.493 186.537C243.482 177.038 237.006 162.674 232.947 153.335Z"/><path fill="#FECB5B" transform="scale(2 2)" d="M250.69 161.673C257.897 160.377 262.737 159.726 269.953 158.972C278.695 158.792 291.026 159.144 299.434 161.673C298.368 166.106 294.254 173.198 291.987 177.508C288.325 177.663 284.378 177.551 280.688 177.508L257.261 177.508C255.183 172.412 252.473 166.754 250.69 161.673Z"/><path fill="#3C3C3B" transform="scale(2 2)" d="M93.9735 180.121C87.2393 180.457 87.5191 165.993 91.81 163.5C99.5147 163.276 97.5567 178.04 93.9735 180.121Z"/><path fill="#3C3C3B" transform="scale(2 2)" d="M111.278 180.121C104.112 180.335 106.312 171.498 106.765 165.995C106.856 164.886 108.712 163.931 109.531 163.5C115.945 163.299 114.91 177.757 111.278 180.121Z"/><path fill="#FECB5B" transform="scale(2 2)" d="M312.408 182.301C313.755 177.974 316.887 171.55 319.202 167.603C328.246 171.624 338.464 179.109 346.443 184.875C343.722 187.267 339.704 189.303 336.269 192.192C334.824 192.849 333.211 193.757 331.792 194.513C325.905 190.525 317.704 186.749 312.408 182.301Z"/><path fill="#FECB5B" transform="scale(2 2)" d="M206.427 184.875C213.167 178.647 223.272 172.372 231.722 168.761C232.927 170.259 237.399 181.9 238.141 184.185C232.546 188.003 227.024 191.884 221.349 195.586C219.691 194.606 217.986 193.325 216.406 192.192L206.427 184.875Z"/><path fill="#74D3D8" transform="scale(2 2)" d="M165.199 172.228C169.362 171.449 174.151 170.967 178.402 170.46L181.089 170.46C186.109 175.139 190.039 179.25 194.805 184.185C191.981 187.822 185.169 193.187 181.089 195.586C180.255 195.869 167.596 193.064 165.742 192.704C165.731 185.578 165.426 179.322 165.199 172.228Z"/><path fill="#0D9BA6" transform="scale(2 2)" d="M362.563 197.344C365.201 195.978 367.816 194.277 370.347 192.704C386.003 217.335 393.687 231.952 397.149 262.554C395.998 260.899 394.93 259.437 393.698 257.841C384.348 245.98 387.603 250.713 383.329 236.53C378.036 218.959 371.217 211.605 362.563 197.344Z"/><path fill="#F3987D" transform="scale(2 2)" d="M263.269 197.344C251.851 222.817 284.537 229.683 289.559 211.118C290.946 205.991 289.515 201.74 286.98 197.344C290.682 197.367 294.208 197.433 297.918 197.344C309.489 203.914 320.445 212.507 331.792 218.742C337.837 215.628 351.304 206.066 356.684 201.818C365.801 211.247 373.387 226.419 376.933 239.071C378.213 242.278 378.831 249.758 380.667 252.376C387.333 261.883 396.714 271.75 404.249 280.473C397.06 288.03 387.897 296.058 381.553 304.196C376.992 300.333 360.689 288.19 355.605 285.902C349.85 288.472 333.479 301.532 328.155 305.666C324.053 302.269 303.467 286.589 299.434 285.075C292.512 288.068 277.348 300.654 271.538 305.666C269.799 303.754 268.916 303.021 266.875 301.435C260.645 296.775 250.909 288.749 244.338 285.075C240.657 286.576 235.451 290.87 232.09 293.37L217.523 304.196C207.915 298.023 190.567 283.018 182.395 275.228C195.109 261.687 184.358 260.377 174.753 251.182C175.289 244.681 174.31 235.835 174.753 228.844C199.929 223.884 197.033 222.575 186.824 200.389L190.51 197.344C194.894 201.445 216.429 218.117 220.48 219.907C222.804 218.846 227.754 215.186 230.174 213.516L245.036 203.374C254.901 196.557 252.138 198.577 263.269 197.344ZM300.223 218.301C292.036 219.071 286.018 226.322 286.768 234.51C287.519 242.698 294.755 248.734 302.945 248.003C311.162 247.27 317.223 240.004 316.47 231.788C315.717 223.572 308.437 217.529 300.223 218.301ZM246.163 218.998C238.166 219.552 232.149 226.51 232.753 234.504C233.358 242.497 240.354 248.471 248.343 247.816C256.262 247.167 262.172 240.247 261.572 232.324C260.973 224.401 254.09 218.448 246.163 218.998ZM353.63 219.569C345.525 220.034 339.338 226.991 339.823 235.094C340.307 243.198 347.279 249.368 355.381 248.864C363.456 248.362 369.601 241.419 369.118 233.343C368.635 225.267 361.707 219.106 353.63 219.569ZM198.145 223.228C190.157 224.076 184.361 231.227 185.186 239.218C186.011 247.208 193.145 253.025 201.138 252.223C209.164 251.418 215.009 244.248 214.181 236.225C213.353 228.202 206.166 222.377 198.145 223.228ZM218.36 256.06C210.358 256.669 204.372 263.66 205.002 271.661C205.632 279.661 212.639 285.628 220.638 284.977C228.606 284.328 234.547 277.353 233.919 269.383C233.291 261.412 226.332 255.453 218.36 256.06ZM270.695 256.112C262.69 257.513 257.319 265.115 258.673 273.128C260.027 281.141 267.598 286.556 275.618 285.248C283.705 283.93 289.175 276.283 287.81 268.204C286.445 260.125 278.766 254.7 270.695 256.112ZM325.358 256.002C320.017 256.4 315.302 259.637 313.011 264.477C310.72 269.318 311.206 275.016 314.284 279.399C317.362 283.782 322.557 286.173 327.888 285.66C336.008 284.88 341.987 277.708 341.294 269.579C340.601 261.451 333.493 255.396 325.358 256.002ZM371.322 256.988C363.328 257.16 357.002 263.806 357.225 271.799C357.448 279.792 364.134 286.075 372.125 285.802C380.045 285.531 386.261 278.917 386.04 270.996C385.819 263.074 379.245 256.817 371.322 256.988Z"/><path fill="#FECB5B" transform="scale(2 2)" d="M276.614 214.878C272.217 215.618 268.06 212.634 267.354 208.232C266.649 203.83 269.666 199.697 274.073 199.026C278.431 198.364 282.508 201.339 283.206 205.692C283.904 210.044 280.961 214.145 276.614 214.878Z"/><path fill="#74D3D8" transform="scale(2 2)" d="M163.232 222.519C162.7 214.879 163.718 206.94 165.199 199.437C168.632 200.077 177.148 201.783 180.142 202.894C182.449 207.266 184.925 213.962 186.824 218.742C185.295 219.104 183.907 219.479 182.395 219.907C175.627 221.989 170.223 222.573 163.232 222.519Z"/><path fill="#CDD07D" transform="scale(2 2)" d="M90.231 219.907C98.6016 217.318 107.43 214.123 115.761 211.282C121.322 214.796 128.194 220.857 133.248 225.113C127.602 229.834 118.312 231.739 111.278 233.302C110.894 233.085 109.936 232.36 109.531 232.069C104.766 228.104 95.7536 223.573 90.231 219.907Z"/><path fill="#3C3C3B" transform="scale(2 2)" d="M302.945 248.003C294.755 248.734 287.519 242.698 286.768 234.51C286.018 226.322 292.036 219.071 300.223 218.301C308.437 217.529 315.717 223.572 316.47 231.788C317.223 240.004 311.162 247.27 302.945 248.003ZM301.241 224.821C296.673 225.054 293.164 228.952 293.409 233.518C293.655 238.085 297.563 241.584 302.129 241.325C306.677 241.067 310.158 237.178 309.913 232.63C309.669 228.082 305.79 224.589 301.241 224.821Z"/><path fill="#3C3C3B" transform="scale(2 2)" d="M248.343 247.816C240.354 248.471 233.358 242.497 232.753 234.504C232.149 226.51 238.166 219.552 246.163 218.998C254.09 218.448 260.973 224.401 261.572 232.324C262.172 240.247 256.262 247.167 248.343 247.816ZM245.445 226.058C241.387 227.106 238.933 231.231 239.95 235.298C240.966 239.364 245.072 241.849 249.146 240.864C253.265 239.868 255.784 235.707 254.756 231.596C253.729 227.485 249.548 224.999 245.445 226.058Z"/><path fill="#3C3C3B" transform="scale(2 2)" d="M355.381 248.864C347.279 249.368 340.307 243.198 339.823 235.094C339.338 226.991 345.525 220.034 353.63 219.569C361.707 219.106 368.635 225.267 369.118 233.343C369.601 241.419 363.456 248.362 355.381 248.864ZM352.252 226.38C347.998 227.605 345.536 232.041 346.748 236.299C347.959 240.557 352.387 243.033 356.649 241.835C360.931 240.631 363.42 236.179 362.203 231.902C360.986 227.624 356.525 225.149 352.252 226.38Z"/><path fill="#3C3C3B" transform="scale(2 2)" d="M201.138 252.223C193.145 253.025 186.011 247.208 185.186 239.218C184.361 231.227 190.157 224.076 198.145 223.228C206.166 222.377 213.353 228.202 214.181 236.225C215.009 244.248 209.164 251.418 201.138 252.223ZM198.633 229.894C194.375 230.423 191.36 234.313 191.911 238.568C192.462 242.823 196.368 245.817 200.62 245.244C204.84 244.676 207.808 240.804 207.262 236.581C206.715 232.357 202.859 229.369 198.633 229.894Z"/><path fill="#FECB5B" transform="scale(2 2)" d="M302.129 241.325C297.563 241.584 293.655 238.085 293.409 233.518C293.164 228.952 296.673 225.054 301.241 224.821C305.79 224.589 309.669 228.082 309.913 232.63C310.158 237.178 306.677 241.067 302.129 241.325Z"/><path fill="#FECB5B" transform="scale(2 2)" d="M249.146 240.864C245.072 241.849 240.966 239.364 239.95 235.298C238.933 231.231 241.387 227.106 245.445 226.058C249.548 224.999 253.729 227.485 254.756 231.596C255.784 235.707 253.265 239.868 249.146 240.864Z"/><path fill="#FECB5B" transform="scale(2 2)" d="M356.649 241.835C352.387 243.033 347.959 240.557 346.748 236.299C345.536 232.041 347.998 227.605 352.252 226.38C356.525 225.149 360.986 227.624 362.203 231.902C363.42 236.179 360.931 240.631 356.649 241.835Z"/><path fill="#F3987D" transform="scale(2 2)" d="M163.232 240.943C166.374 234.942 163.921 235.118 164.233 229.861C165.142 229.797 166.308 229.848 167.236 229.861C167.474 234.021 168.212 241.118 168.161 244.997L167.842 245.216L167.236 244.694C165.761 243.399 164.609 242.337 163.232 240.943Z"/><path fill="#FECB5B" transform="scale(2 2)" d="M200.62 245.244C196.368 245.817 192.462 242.823 191.911 238.568C191.36 234.313 194.375 230.423 198.633 229.894C202.859 229.369 206.715 232.357 207.262 236.581C207.808 240.804 204.84 244.676 200.62 245.244Z"/><path fill="#CDD07D" transform="scale(2 2)" d="M111.278 239.994C122.682 238.358 129.888 236.523 139.42 229.861C139.952 230.059 156.507 244.055 158.171 245.478C151.252 253.22 138.247 257.805 128.519 260.947C125.026 261.844 121.442 262.621 117.919 263.417C115.241 255.9 113.948 246.978 111.278 239.994Z"/><path fill="#CDD07D" transform="scale(2 2)" d="M119.881 270.199C142.277 264.866 145.55 262.581 163.232 251.182C164.363 251.625 178.945 263.956 181.089 265.566C174.39 277.473 149.293 287.303 137.195 291.125C133.69 291.684 131.856 292 128.519 293.196C125.709 285.474 122.468 278.025 119.881 270.199Z"/><path fill="#3C3C3B" transform="scale(2 2)" d="M220.638 284.977C212.639 285.628 205.632 279.661 205.002 271.661C204.372 263.66 210.358 256.669 218.36 256.06C226.332 255.453 233.291 261.412 233.919 269.383C234.547 277.353 228.606 284.328 220.638 284.977ZM217.703 263.285C213.666 264.233 211.163 268.274 212.113 272.31C213.063 276.346 217.106 278.848 221.141 277.896C225.175 276.945 227.674 272.905 226.725 268.872C225.775 264.838 221.737 262.337 217.703 263.285Z"/><path fill="#3C3C3B" transform="scale(2 2)" d="M275.618 285.248C267.598 286.556 260.027 281.141 258.673 273.128C257.319 265.115 262.69 257.513 270.695 256.112C278.766 254.7 286.445 260.125 287.81 268.204C289.175 276.283 283.705 283.93 275.618 285.248ZM272.088 262.671C267.666 263.347 264.636 267.491 265.335 271.91C266.033 276.329 270.192 279.338 274.608 278.617C278.992 277.901 281.973 273.778 281.28 269.391C280.587 265.003 276.479 262 272.088 262.671Z"/><path fill="#3C3C3B" transform="scale(2 2)" d="M327.888 285.66C322.557 286.173 317.362 283.782 314.284 279.399C311.206 275.016 310.72 269.318 313.011 264.477C315.302 259.637 320.017 256.4 325.358 256.002C333.493 255.396 340.601 261.451 341.294 269.579C341.987 277.708 336.008 284.88 327.888 285.66ZM326.103 262.604C321.557 262.858 318.087 266.764 318.37 271.308C318.653 275.852 322.581 279.297 327.123 278.985C331.624 278.675 335.031 274.791 334.751 270.288C334.471 265.785 330.608 262.353 326.103 262.604Z"/><path fill="#3C3C3B" transform="scale(2 2)" d="M372.125 285.802C364.134 286.075 357.448 279.792 357.225 271.799C357.002 263.806 363.328 257.16 371.322 256.988C379.245 256.817 385.819 263.074 386.04 270.996C386.261 278.917 380.045 285.531 372.125 285.802ZM370.197 263.637C366.001 264.514 363.281 268.591 364.082 272.802C364.883 277.013 368.91 279.806 373.135 279.082C375.936 278.601 378.261 276.645 379.213 273.967C380.166 271.289 379.598 268.305 377.729 266.163C375.859 264.021 372.979 263.055 370.197 263.637Z"/><path fill="#FECB5B" transform="scale(2 2)" d="M274.608 278.617C270.192 279.338 266.033 276.329 265.335 271.91C264.636 267.491 267.666 263.347 272.088 262.671C276.479 262 280.587 265.003 281.28 269.391C281.973 273.778 278.992 277.901 274.608 278.617Z"/><path fill="#FECB5B" transform="scale(2 2)" d="M327.123 278.985C322.581 279.297 318.653 275.852 318.37 271.308C318.087 266.764 321.557 262.858 326.103 262.604C330.608 262.353 334.471 265.785 334.751 270.288C335.031 274.791 331.624 278.675 327.123 278.985Z"/><path fill="#FECB5B" transform="scale(2 2)" d="M221.141 277.896C217.106 278.848 213.063 276.346 212.113 272.31C211.163 268.274 213.666 264.233 217.703 263.285C221.737 262.337 225.775 264.838 226.725 268.872C227.674 272.905 225.175 276.945 221.141 277.896Z"/><path fill="#FECB5B" transform="scale(2 2)" d="M373.135 279.082C368.91 279.806 364.883 277.013 364.082 272.802C363.281 268.591 366.001 264.514 370.197 263.637C372.979 263.055 375.859 264.021 377.729 266.163C379.598 268.305 380.166 271.289 379.213 273.967C378.261 276.645 375.936 278.601 373.135 279.082Z"/><path fill="white" transform="scale(2 2)" d="M132.088 299.214C151.438 293.08 157.694 292.554 176.671 280.473C180.722 282.86 186.106 288.148 190.51 291.125C180.357 306.228 162.852 314.074 145.612 317.68L144.982 317.716C141.914 316.083 133.62 302.895 132.088 299.214Z"/><path fill="#0D9BA6" transform="scale(2 2)" d="M469.133 285.902C474.983 291.915 461.139 318.66 456.714 323.693C454.961 317.779 454.013 315.879 451.211 310.366C456.282 304.896 466.173 292.573 469.133 285.902Z"/><path fill="#0D9BA6" transform="scale(2 2)" d="M271.538 313.833C280.714 306.838 290.137 300.052 299.434 293.196C300.39 293.349 323.299 311.038 328.155 313.293C335.102 310.086 349.288 298.871 355.605 294.104C363.451 299.306 374.243 308.32 382.076 312.429C387.258 308.58 392.061 301.74 397.149 297.098C399.976 312.866 398.054 331.23 388.492 344.367C387.969 342.457 387.452 340.542 386.859 338.659C377.345 308.46 329.343 310.741 329.275 350.232L262.748 350.232C262.576 342.369 262.518 338.6 258.521 331.606C242.229 306.545 204.931 315.878 204.406 350.232C185.469 351.74 162.967 336.749 150.076 323.693C172.55 319.455 181.222 310.602 196.28 296.279C201.053 300.545 211.849 309.801 217.523 312.429C225.438 308.619 236.648 298.45 244.338 293.196C252.33 300.346 262.945 306.871 271.538 313.833Z"/><path fill="#0D9BA6" transform="scale(2 2)" d="M426.4 321.258C431.769 319.217 440.043 318.071 444.823 313.833C447.826 317.264 450.249 325.92 451.211 330.493C446.092 337.144 434.528 344.08 426.4 346.482C427.445 336.795 427.933 331.046 426.4 321.258Z"/><path fill="#0D9BA6" transform="scale(2 2)" d="M404.854 319.928C410.326 320.804 413.783 321.605 419.397 321.258C421.663 332.694 419.381 338.982 419.397 349.278C411.25 349.359 401.146 351.195 392.812 350.232C400.624 340.993 403.232 331.438 404.854 319.928Z"/><path fill="#FECB5B" transform="scale(2 2)" d="M147.751 379.823L147.751 331.606C149.89 332.57 154.957 337.522 157.137 339.249C166.82 346.92 177.664 352.639 189.717 355.392L189.737 381.695C189.74 390.852 192.241 401.858 180.142 403.774L159.806 403.793C156.111 403.809 152.17 404.002 148.506 403.734C139.288 403.062 134.655 391.166 141.524 384.675C143.441 382.864 145.941 381.668 147.751 379.823Z"/><path fill="#FECB5B" transform="scale(2 2)" d="M255.83 346.482L255.834 384.58C255.836 396.227 259.27 409.692 242.441 409.319C230.003 409.043 200.673 414.761 200.899 397.406C201.002 389.44 211.177 387.149 211.151 383.232C211.287 380.217 211.192 377.2 211.182 374.183L211.121 355.029C211.118 353.797 211.015 348.424 211.159 347.46C211.88 346.684 213.235 344.827 213.811 343.936C223.556 328.867 242.333 328.668 253.183 342.354C254.202 343.639 254.524 345.058 255.407 346.399L255.83 346.482Z"/><path fill="#FECB5B" transform="scale(2 2)" d="M336.269 348.229L336.506 347.868C340.755 341.289 341.621 338.377 349.668 334.268C360.005 328.989 374.513 334.571 379.142 345.026C379.777 346.461 380.518 348.077 381.553 349.278C381.69 350.844 381.572 354.727 381.571 356.484L381.576 388.034C381.612 411.279 377.406 408.659 356.598 409.277C349.913 409.476 342.63 409.31 335.902 409.164C325.859 408.946 321.839 394.733 329.871 388.771C331.928 387.191 334.284 386.488 336.269 384.85C336.501 372.953 336.266 360.206 336.269 348.229Z"/></svg>