<?xml version="1.0" encoding="utf-8" ?><svg xmlns="http://www.w3.org/2000/svg" xmlns:xlink="http://www.w3.org/1999/xlink" width="1024" height="1024" viewBox="0 0 1024 1024"><path fill="#3C3C3B" transform="scale(2 2)" d="M349.183 156.353C387.23 137.439 417.16 113.657 421.143 67.1356C422.093 56.0369 425.822 48.0168 438.186 46.6026C448.781 45.8745 457.681 53.8891 457.797 64.5529C458.29 109.891 442.68 155.946 411.026 188.904C407.113 192.978 402.687 196.682 398.797 200.85C421.409 235.933 430.713 275.309 419.933 316.623C418.185 323.325 416.339 329.444 413.24 335.668C433.789 354.506 447.654 372.611 456.711 399.304C459.154 406.504 468.392 433.434 454.255 433.921C440.273 434.402 404.314 409.933 391.18 398.732C385.491 393.881 380.838 388.255 375.461 383.123C366.294 389.873 360.549 393.642 350.131 398.221C343.574 423.605 331.176 447.707 309.962 464.018C289.541 479.72 291.805 414.81 294.441 404.962C276.453 398.774 266.051 395.946 249.5 384.613C244.4 381.121 237.927 378.993 239.346 371.462C240.635 364.62 247.993 363.664 253.553 361.402C273.989 353.086 298.374 349.422 320.15 353.799C322.445 344.182 330.016 327.197 325.309 317.762C320.916 308.956 292.222 304.901 280.562 301.315C255.224 330.547 229.011 339.943 194.015 351.216C175.7 357.115 160.653 338.429 170.034 321.538C174.136 314.846 187.475 309.848 194.097 303.714C211.86 287.262 219.075 269.444 220.66 245.526C214.524 238.675 204.919 231.441 195.633 230.006C192.588 231.079 188.994 233.837 186.039 235.405C157.468 250.566 124.915 258.542 92.9833 262.564C88.6562 262.895 84.2846 264.181 79.945 263.371C69.328 261.39 64.5183 250.078 69.5559 240.769C72.0682 236.126 75.7502 231.642 78.2794 227.2C83.2165 218.53 90.1682 224.288 98.14 225.941C99.4769 222.059 103.521 214.899 107.404 213.274C112.476 212.23 118.291 215.541 122.962 217.4C129.506 199.365 132.561 203.76 145.528 206.823L146.006 206.933C147.229 206.169 148.09 205.392 149.184 204.468C147.414 201.486 144.437 197.314 142.47 194.321C135.209 195.716 130.253 202.413 124.812 194.038C123.087 191.383 119.903 187.357 117.795 185.033C101.014 193.261 101.78 189.412 91.906 175.442C73.3116 183.172 76.6075 180.476 65.6159 161.901C52.318 157.861 44.7012 144.335 55.3164 133.688C64.7332 123.98 99.7962 132.914 113.233 134.477C137.196 137.264 136.955 139.096 157.956 129.386C178.571 119.854 202.505 121.925 222.156 132.796C240.141 141.724 245.295 143.158 266.885 143.239C268.361 139.287 271.347 135.501 273.683 132.02C289.552 108.37 312.968 89.2191 340.213 80.3841C347.188 77.9795 355.297 75.7815 360.39 83.0061C366.765 92.05 351.957 130.571 348.654 140.756C347.45 144.471 345.173 149.375 344.505 153.077L344.444 153.424C345.872 154.392 347.688 155.438 349.183 156.353ZM449.094 85.1825C450.175 80.1589 450.113 68.6292 450.205 63.1992C450.389 52.2994 429.743 50.618 429.185 63.4416C427.538 101.293 405.31 133.861 372.761 152.449C368.056 155.142 361.24 158.351 357.296 161.901C366.434 164.445 385.883 183.735 391.831 191.655C392.647 192.768 393.422 193.397 394.435 194.321C418.271 172.041 437.047 146.198 444.141 113.573C446.43 105.359 448.417 93.6722 449.094 85.1825ZM354.82 91.0065C355.009 82.7684 346.849 86.3912 342.031 87.8694C315.868 95.8969 294.477 114.9 279.341 137.257C278.618 138.325 275.871 142.032 275.652 142.999L275.913 143.239C299.578 144.777 312.033 142.417 337.249 150.568C342.176 130.584 351.029 112.463 354.82 91.0065ZM59.5299 140.76C56.1586 146.363 59.991 152.657 66.2113 153.854C95.6187 159.515 123.896 169.957 151.805 180.596C158.458 183.131 165.797 186.285 172.775 187.721C181.084 189.307 196.907 173.61 222.189 186.349C232.222 191.007 236.262 197.966 245.185 202.613C255.272 186.603 252.22 173.287 247.957 156.898C250.807 157.214 254.113 157.154 256.582 157.476C263.155 175.155 260.601 189.73 252.518 205.787C262.338 208.326 269.89 211.431 280.562 213.274C281.525 209.191 283.87 204.76 285.019 200.422C289.28 184.335 287.605 172.923 283.099 157.476C286.297 157.255 287.828 157.141 290.948 157.476C297.258 172.362 296.577 192.11 290.949 207.276C290.041 209.724 288.649 212.408 287.974 214.907C295.84 215.931 308.305 217.455 315.289 220.499C331.012 198.719 329.537 186.979 327.285 162.862C330.245 163.749 333.368 164.694 336.162 166.004C339.476 187.419 335.251 204.984 322.994 222.871C331.284 227.176 337.275 230.967 344.444 236.943C356.568 226.949 365.151 221.203 371.595 205.363C373.296 201.184 373.985 196.528 375.461 192.797C377.08 195.328 380.78 199.351 381.63 200.85C374.07 223.124 367.257 228.88 350.131 242.349C357.288 251.392 361.468 256.879 366.357 267.663C382.912 263.991 393.989 260.535 405.797 247.44C406.741 250.871 407.513 253.647 408.199 257.118C396.264 267.456 384.834 272.387 369.479 275.184C371.566 285.895 372.699 290.135 373.514 301.315C383.387 302.666 390.75 303.521 400.809 301.291C403.434 300.71 407.926 298.818 409.926 298.503C409.449 301.347 408.984 304.497 408.199 307.249C395.148 311.335 386.628 310.873 373.514 309.159C373.822 318.272 371.456 327.995 369.479 336.865C374.076 338.267 378.349 339.832 383.069 340.874C386.075 341.538 391.965 341.51 394.435 342.864C393.054 344.651 391.225 347.382 389.898 348.979C380.604 348.84 375.612 347.007 367.136 343.957C362.375 355.931 352.918 371.16 352.503 383.123C352.264 385.276 352.043 387.205 351.668 389.349C436.176 347.584 436.488 227.536 362.176 173.304C336.284 154.409 305.251 149.101 273.914 150.559C251.316 151.61 234.71 149.65 214.986 137.569C203.217 130.361 180.507 128.888 167.477 133.835C140.114 144.221 143.239 145.761 114.752 142.247L73.1406 136.679C67.4335 135.864 63.1542 135.305 59.5299 140.76ZM408.199 346.674C406.366 348.567 404.57 351.846 403.068 354.074C396.102 364.41 388.148 369.892 381.63 378.362C392.313 394.678 431.08 418.68 449.094 425.14C450.95 425.979 452.019 426.316 453.987 426.904C454.968 397.254 432.474 362.037 409.926 342.864C409.186 343.939 408.688 345.433 408.199 346.674ZM336.162 369.55C325.798 377.798 308.2 388.958 303.426 401.439C298.204 415.091 299.525 439.799 303.237 453.628C303.874 455.235 304.419 456.52 305.162 458.08C326.186 441.472 345.148 407.231 344.444 379.555C344.891 373.159 349.758 363.86 352.734 357.892C376.403 310.423 369.18 246.47 313.119 227.489C289.314 219.429 255.898 222.684 234.985 205.11C221.537 193.81 211.843 186.246 192.401 190.125C191.668 193.082 190.344 196.28 188.369 198.6C161.907 229.676 112.498 242.117 74.5017 247.44C75.7355 253.995 77.877 256.586 84.7661 255.983C122.015 252.725 175.394 239.238 202.936 213.58C207.216 209.592 217.779 212.312 202.687 223.788C242.939 239.954 240.649 286.983 301.3 299.301C312.504 301.576 326.065 302.48 331.9 314.006C338.051 326.156 331.222 343.645 327.285 355.676C336.604 358.295 343.854 359.948 336.162 369.55ZM251.155 370.963C249.744 371.59 248.305 372.178 246.99 372.982C259.708 383.572 280.323 394.164 296.622 397.258C297.188 396.003 297.836 394.457 298.446 393.252C309.017 378.705 316.855 374.365 330.339 363.893C307.876 356.183 272.328 359.714 251.155 370.963ZM76.0104 164.283C76.6273 165.805 79.5366 170.121 80.5576 171.697C82.2873 170.987 85.2275 169.641 87.0668 169.823C88.4048 168.991 89.747 167.814 90.8324 167.179C86.8146 166.529 79.3421 164.488 76.0104 164.283ZM98.14 169.823C98.435 171.083 104.97 180.862 106.024 182.024C108.692 180.743 111.497 179.346 114.186 178.139L117.795 176.572C115.267 175.232 101.185 170.441 98.14 169.823ZM122.962 178.139C124.855 181.425 129.097 186.766 131.487 190.125C133.744 189.245 135.941 188.161 138.131 187.122L141.658 185.033C138.833 183.843 125.17 178.352 122.962 178.139ZM147.338 187.122C149.665 191.274 152.347 195.402 154.76 199.652L159.504 195.674C160.626 194.731 161.797 193.711 162.932 192.797C159.644 191.408 150.709 188.009 147.338 187.122ZM183.63 192.797C179.539 194.079 176.92 194.797 172.645 194.797C167.741 198.794 151.652 212.717 147.338 214.907C142.595 214.305 139.196 212.58 134.801 211.545C122.784 230.368 129.011 226.232 109.365 220.499L109.168 220.767C99.7342 233.858 103.687 236.011 85.1489 230.006L83.7429 232.432C82.4254 234.519 80.7582 236.998 79.7118 239.188C111.829 234.448 147.005 224.204 172.7 203.461C174.936 201.656 182.456 195.105 183.63 192.797ZM227.523 254.47C224.518 281.206 210.444 303.665 187.507 317.838C184.461 319.72 180.006 321.407 177.646 323.913C171.178 330.782 176.143 343.513 185.504 344.441C191.123 344.998 196.38 342.368 201.541 340.62L212.934 336.865C240.622 326.661 252.741 318.363 272.897 298.503C259.043 289.974 250.201 283.3 239.679 270.049C236.291 265.781 231.373 257.979 227.523 254.47Z"/><path fill="#FECB5B" transform="scale(2 2)" d="M449.094 85.1825L448.573 85.0892C446.975 87.3128 443.547 108.133 442.43 113.573C437.193 135.933 421.374 160.533 406.203 177.647C402.077 182.302 395.49 187.188 391.831 191.655C385.883 183.735 366.434 164.445 357.296 161.901C361.24 158.351 368.056 155.142 372.761 152.449C405.31 133.861 427.538 101.293 429.185 63.4416C429.743 50.618 450.389 52.2994 450.205 63.1992C450.113 68.6292 450.175 80.1589 449.094 85.1825ZM434.251 89.7679C429.399 92.0092 425.932 103.456 434.251 102.38C437.799 100.342 441.822 90.0911 434.251 89.7679ZM425.457 110.279C421.138 113.424 416.181 123.812 425.457 122.385C427.969 120.729 430.039 116.421 430.92 113.573C429.457 110.899 428.531 109.908 425.457 110.279ZM413.24 129.712C408.046 133.094 402.753 142.509 411.842 141.619C416.61 139.153 421.427 129.404 413.24 129.712ZM398.797 145.745C393.863 149.158 388.394 157.295 397.533 156.353C402.553 153.617 407.691 145.265 398.797 145.745ZM382.776 158.077C373.544 162.266 375.176 169.232 380.326 168.142C387.261 165.211 391.388 158.251 382.776 158.077Z"/><defs><linearGradient id="gradient_0" gradientUnits="userSpaceOnUse" x1="443.93411" y1="99.067696" x2="447.98938" y2="100.40704"><stop offset="0" stop-color="#FFF0D2"/><stop offset="1" stop-color="white"/></linearGradient></defs><path fill="url(#gradient_0)" transform="scale(2 2)" d="M442.43 113.573C443.547 108.133 446.975 87.3128 448.573 85.0892L449.094 85.1825C448.417 93.6722 446.43 105.359 444.141 113.573L443.447 113.974C443.195 113.871 442.671 113.64 442.43 113.573Z"/><path fill="#3C3C3B" transform="scale(2 2)" d="M434.251 102.38C425.932 103.456 429.399 92.0092 434.251 89.7679C441.822 90.0911 437.799 100.342 434.251 102.38Z"/><path fill="#F5AE50" transform="scale(2 2)" d="M275.913 143.239C277.346 141.949 279.184 138.882 280.574 137.226C295.941 118.907 329.56 92.192 354.82 91.0065C351.029 112.463 342.176 130.584 337.249 150.568C312.033 142.417 299.578 144.777 275.913 143.239ZM320.15 107.228C316.074 109.075 284.862 130.972 301.233 132.257C303.344 131.296 314.43 120.406 317.832 117.805C320.304 115.915 326.302 113.792 324.413 109.833C323.683 108.327 321.812 107.252 320.15 107.228Z"/><path fill="#3C3C3B" transform="scale(2 2)" d="M301.233 132.257C284.862 130.972 316.074 109.075 320.15 107.228C321.812 107.252 323.683 108.327 324.413 109.833C326.302 113.792 320.304 115.915 317.832 117.805C314.43 120.406 303.344 131.296 301.233 132.257Z"/><path fill="#3C3C3B" transform="scale(2 2)" d="M425.457 122.385C416.181 123.812 421.138 113.424 425.457 110.279C428.531 109.908 429.457 110.899 430.92 113.573C430.039 116.421 427.969 120.729 425.457 122.385Z"/><path fill="#3C3C3B" transform="scale(2 2)" d="M411.842 141.619C402.753 142.509 408.046 133.094 413.24 129.712C421.427 129.404 416.61 139.153 411.842 141.619Z"/><path fill="white" transform="scale(2 2)" d="M59.5299 140.76C63.1542 135.305 67.4335 135.864 73.1406 136.679L114.752 142.247C143.239 145.761 140.114 144.221 167.477 133.835C180.507 128.888 203.217 130.361 214.986 137.569C234.71 149.65 251.316 151.61 273.914 150.559C305.251 149.101 336.284 154.409 362.176 173.304C436.488 227.536 436.176 347.584 351.668 389.349C352.043 387.205 352.264 385.276 352.503 383.123C363.582 379.815 383.756 358.014 389.898 348.979C391.225 347.382 393.054 344.651 394.435 342.864C400.208 329.636 405.141 322.835 408.199 307.249C408.984 304.497 409.449 301.347 409.926 298.503C411.945 287.464 410.678 268.061 408.199 257.118C407.513 253.647 406.741 250.871 405.797 247.44C399.43 230.202 393.608 215.588 381.63 200.85C380.78 199.351 377.08 195.328 375.461 192.797C374.058 191.835 372.79 190.757 371.564 189.58C361.001 179.439 349.755 171.699 336.162 166.004C333.368 164.694 330.245 163.749 327.285 162.862C316.502 159.179 302.333 157.527 290.948 157.476C287.828 157.141 286.297 157.255 283.099 157.476C274.739 157.48 264.802 157.758 256.582 157.476C254.113 157.154 250.807 157.214 247.957 156.898C246.423 156.534 244.065 156.192 242.453 155.962C223.803 153.297 210.745 138.454 191.573 137.451C180.202 136.414 169.123 139.147 158.954 144.4C142.553 152.873 129.385 150.655 111.953 148.388L83.3929 144.519C77.8966 143.748 64.518 142.403 59.5299 140.76Z"/><path fill="#0D9BA6" transform="scale(2 2)" d="M245.185 202.613C236.262 197.966 232.222 191.007 222.189 186.349C196.907 173.61 181.084 189.307 172.775 187.721C165.797 186.285 158.458 183.131 151.805 180.596C123.896 169.957 95.6187 159.515 66.2113 153.854C59.991 152.657 56.1586 146.363 59.5299 140.76C64.518 142.403 77.8966 143.748 83.3929 144.519L111.953 148.388C129.385 150.655 142.553 152.873 158.954 144.4C169.123 139.147 180.202 136.414 191.573 137.451C210.745 138.454 223.803 153.297 242.453 155.962C244.065 156.192 246.423 156.534 247.957 156.898C252.22 173.287 255.272 186.603 245.185 202.613ZM183.235 142.358C175.27 143.163 169.466 150.271 170.268 158.237C171.07 166.202 178.176 172.009 186.141 171.21C194.112 170.411 199.923 163.3 199.121 155.33C198.318 147.36 191.205 141.551 183.235 142.358Z"/><path fill="#3C3C3B" transform="scale(2 2)" d="M186.141 171.21C178.176 172.009 171.07 166.202 170.268 158.237C169.466 150.271 175.27 143.163 183.235 142.358C191.205 141.551 198.318 147.36 199.121 155.33C199.923 163.3 194.112 170.411 186.141 171.21ZM182.361 150.347C178.969 151.552 177.151 155.236 178.258 158.661C179.365 162.086 182.996 164.01 186.451 163.001C188.776 162.323 190.549 160.434 191.079 158.07C191.609 155.707 190.812 153.242 188.999 151.636C187.186 150.03 184.643 149.536 182.361 150.347Z"/><path fill="#3C3C3B" transform="scale(2 2)" d="M397.533 156.353C388.394 157.295 393.863 149.158 398.797 145.745C407.691 145.265 402.553 153.617 397.533 156.353Z"/><path fill="#0D9BA6" transform="scale(2 2)" d="M256.582 157.476C264.802 157.758 274.739 157.48 283.099 157.476C287.605 172.923 289.28 184.335 285.019 200.422C283.87 204.76 281.525 209.191 280.562 213.274C269.89 211.431 262.338 208.326 252.518 205.787C260.601 189.73 263.155 175.155 256.582 157.476Z"/><path fill="#0D9BA6" transform="scale(2 2)" d="M290.948 157.476C302.333 157.527 316.502 159.179 327.285 162.862C329.537 186.979 331.012 198.719 315.289 220.499C308.305 217.455 295.84 215.931 287.974 214.907C288.649 212.408 290.041 209.724 290.949 207.276C296.577 192.11 297.258 172.362 290.948 157.476Z"/><path fill="#3C3C3B" transform="scale(2 2)" d="M380.326 168.142C375.176 169.232 373.544 162.266 382.776 158.077C391.388 158.251 387.261 165.211 380.326 168.142Z"/><path fill="#FD7069" transform="scale(2 2)" d="M80.5576 171.697C79.5366 170.121 76.6273 165.805 76.0104 164.283C79.3421 164.488 86.8146 166.529 90.8324 167.179C89.747 167.814 88.4048 168.991 87.0668 169.823C85.2275 169.641 82.2873 170.987 80.5576 171.697Z"/><path fill="#0D9BA6" transform="scale(2 2)" d="M336.162 166.004C349.755 171.699 361.001 179.439 371.564 189.58C372.79 190.757 374.058 191.835 375.461 192.797C373.985 196.528 373.296 201.184 371.595 205.363C365.151 221.203 356.568 226.949 344.444 236.943C337.275 230.967 331.284 227.176 322.994 222.871C335.251 204.984 339.476 187.419 336.162 166.004Z"/><path fill="#FD7069" transform="scale(2 2)" d="M106.024 182.024C104.97 180.862 98.435 171.083 98.14 169.823C101.185 170.441 115.267 175.232 117.795 176.572L114.186 178.139C111.497 179.346 108.692 180.743 106.024 182.024Z"/><path fill="#FD7069" transform="scale(2 2)" d="M131.487 190.125C129.097 186.766 124.855 181.425 122.962 178.139C125.17 178.352 138.833 183.843 141.658 185.033L138.131 187.122C135.941 188.161 133.744 189.245 131.487 190.125Z"/><path fill="#FD7069" transform="scale(2 2)" d="M154.76 199.652C152.347 195.402 149.665 191.274 147.338 187.122C150.709 188.009 159.644 191.408 162.932 192.797C161.797 193.711 160.626 194.731 159.504 195.674L154.76 199.652Z"/><path fill="#FECB5B" transform="scale(2 2)" d="M336.162 369.55C343.854 359.948 336.604 358.295 327.285 355.676C331.222 343.645 338.051 326.156 331.9 314.006C326.065 302.48 312.504 301.576 301.3 299.301C240.649 286.983 242.939 239.954 202.687 223.788C217.779 212.312 207.216 209.592 202.936 213.58C175.394 239.238 122.015 252.725 84.7661 255.983C77.877 256.586 75.7355 253.995 74.5017 247.44C112.498 242.117 161.907 229.676 188.369 198.6C190.344 196.28 191.668 193.082 192.401 190.125C211.843 186.246 221.537 193.81 234.985 205.11C255.898 222.684 289.314 219.429 313.119 227.489C369.18 246.47 376.403 310.423 352.734 357.892C349.758 363.86 344.891 373.159 344.444 379.555C343.511 379.553 340.441 378.631 339.094 378.362C338.295 375.394 337.132 372.495 336.162 369.55Z"/><path fill="#FD7069" transform="scale(2 2)" d="M172.645 194.797C176.92 194.797 179.539 194.079 183.63 192.797C182.456 195.105 174.936 201.656 172.7 203.461C147.005 224.204 111.829 234.448 79.7118 239.188C80.7582 236.998 82.4254 234.519 83.7429 232.432L85.1489 230.006C103.687 236.011 99.7342 233.858 109.168 220.767L109.365 220.499C129.011 226.232 122.784 230.368 134.801 211.545C139.196 212.58 142.595 214.305 147.338 214.907C151.652 212.717 167.741 198.794 172.645 194.797Z"/><path fill="#0D9BA6" transform="scale(2 2)" d="M381.63 200.85C393.608 215.588 399.43 230.202 405.797 247.44C393.989 260.535 382.912 263.991 366.357 267.663C361.468 256.879 357.288 251.392 350.131 242.349C367.257 228.88 374.07 223.124 381.63 200.85Z"/><path fill="#FECB5B" transform="scale(2 2)" d="M212.934 336.865L201.541 340.62C196.38 342.368 191.123 344.998 185.504 344.441C176.143 343.513 171.178 330.782 177.646 323.913C180.006 321.407 184.461 319.72 187.507 317.838C210.444 303.665 224.518 281.206 227.523 254.47C231.373 257.979 236.291 265.781 239.679 270.049C250.201 283.3 259.043 289.974 272.897 298.503C252.741 318.363 240.622 326.661 212.934 336.865ZM228.972 279.71C225.699 282.247 218.2 295.832 228.972 294.924C231.537 293.093 238.465 279.057 228.972 279.71ZM216.97 300.269C212.121 302.75 205.366 312.765 214.955 312.467C220.105 309.913 226.323 300.189 216.97 300.269ZM202.687 314.708C195.054 317.845 189.711 325.425 198.691 325.858C204.172 323.642 211.607 316.733 202.687 314.708Z"/><path fill="#0D9BA6" transform="scale(2 2)" d="M369.479 275.184C384.834 272.387 396.264 267.456 408.199 257.118C410.678 268.061 411.945 287.464 409.926 298.503C407.926 298.818 403.434 300.71 400.809 301.291C390.75 303.521 383.387 302.666 373.514 301.315C372.699 290.135 371.566 285.895 369.479 275.184Z"/><path fill="#3C3C3B" transform="scale(2 2)" d="M228.972 294.924C218.2 295.832 225.699 282.247 228.972 279.71C238.465 279.057 231.537 293.093 228.972 294.924Z"/><path fill="#3C3C3B" transform="scale(2 2)" d="M214.955 312.467C205.366 312.765 212.121 302.75 216.97 300.269C226.323 300.189 220.105 309.913 214.955 312.467Z"/><path fill="#0D9BA6" transform="scale(2 2)" d="M373.514 309.159C386.628 310.873 395.148 311.335 408.199 307.249C405.141 322.835 400.208 329.636 394.435 342.864C391.965 341.51 386.075 341.538 383.069 340.874C378.349 339.832 374.076 338.267 369.479 336.865C371.456 327.995 373.822 318.272 373.514 309.159Z"/><path fill="#3C3C3B" transform="scale(2 2)" d="M198.691 325.858C189.711 325.425 195.054 317.845 202.687 314.708C211.607 316.733 204.172 323.642 198.691 325.858Z"/><path fill="#0D9BA6" transform="scale(2 2)" d="M367.136 343.957C375.612 347.007 380.604 348.84 389.898 348.979C383.756 358.014 363.582 379.815 352.503 383.123C352.918 371.16 362.375 355.931 367.136 343.957Z"/><path fill="#FECB5B" transform="scale(2 2)" d="M381.63 378.362C388.148 369.892 396.102 364.41 403.068 354.074C404.57 351.846 406.366 348.567 408.199 346.674C413.556 352.667 419.425 357.613 424.843 364.427C435.794 378.201 450.256 407.377 449.094 425.14C431.08 418.68 392.313 394.678 381.63 378.362Z"/><path fill="#FD7069" transform="scale(2 2)" d="M251.155 370.963C272.328 359.714 307.876 356.183 330.339 363.893C316.855 374.365 309.017 378.705 298.446 393.252C287.495 390.969 258.929 378.776 251.155 370.963Z"/><path fill="#FD7069" transform="scale(2 2)" d="M303.237 453.628C299.525 439.799 298.204 415.091 303.426 401.439C308.2 388.958 325.798 377.798 336.162 369.55C337.132 372.495 338.295 375.394 339.094 378.362C341.241 405.553 322.378 435.672 303.237 453.628Z"/></svg>