<?xml version="1.0" encoding="utf-8" ?><svg xmlns="http://www.w3.org/2000/svg" xmlns:xlink="http://www.w3.org/1999/xlink" width="1024" height="1024" viewBox="0 0 1024 1024"><path fill="#333332" transform="scale(2 2)" d="M229.307 192.362C229.486 187.965 229.099 183.714 228.795 179.331L227.19 158.457C226.631 150.684 226.313 132.08 239.758 139.313C245.306 144.379 246.205 177.107 247.841 186.009C247.983 187.431 247.872 189.716 247.841 191.217C260.637 191.165 269.773 191.858 282.276 194.953C286.102 187.194 290.252 169.716 293.281 160.414C295.355 154.28 296.028 143.507 305.429 146.052C308.393 146.855 310.031 148.979 311.378 151.52C310.853 164.679 304.189 181.665 301.532 194.953L300.064 199.25C311.585 205.772 321.502 209.298 333.641 217.061C338.439 210.747 354.154 184.44 360.177 182.74C363.136 181.905 365.971 183.653 368.452 185.047C370.019 190.253 370.686 191.75 367.766 196.875C362.649 205.857 355.856 215.053 350.652 223.836C349.68 225.298 348.968 226.421 348.118 227.953C359.276 237.986 365.181 247.45 374.526 256.808C376.171 252.98 379.526 249.64 381.641 245.626C383.962 241.417 385.837 236.773 388.106 232.563C401.638 207.448 440.028 187.743 459.181 218.246C464.758 218.225 471.032 217.734 476.251 220.029C504.598 232.492 496.43 272.056 466.396 274.698C463.113 274.987 459.504 274.794 456.187 274.792L439.307 274.765C423.089 274.673 423.966 281.871 415.498 294.203C402.402 313.275 392.424 322.057 376.961 338.088C376.514 338.551 373.897 347.699 373.483 348.986L366.881 369.461C366.096 371.964 364.697 375.91 364.187 378.338C382.002 395.678 372.222 421.329 347.779 420.767C334.722 420.653 307.597 422.329 295.991 420.084C283.652 417.696 275.852 405.241 275.774 393.257L275.805 361.896C260.43 361.725 246.68 362.264 231.23 360.189C229.434 365.812 224.86 373.332 222.514 379.838C238.293 389.793 232.741 416.615 213.552 420.186C209.144 421.006 181.431 422.133 177.683 418.689C170.116 421.714 147.193 421.946 139.533 418.911C131.639 415.784 124.346 406.542 124.098 397.931C123.525 378.047 124.694 357.775 126.965 337.998C95.7536 348.605 68.0151 357.053 35.4392 340.985C30.7142 338.654 22.3131 333.938 19.5092 329.421C15.8382 323.508 32.1519 324.641 34.0163 324.408C44.9345 323.368 54.3084 321.14 64.3696 316.809C55.439 305.536 30.2822 286.202 48.582 271.48C54.2494 266.921 65.6016 262.643 72.36 260.006C75.7486 258.683 71.5633 251.881 70.5993 249.831L63.8094 235.15C59.2808 225.332 51.5324 209.539 62.6504 201.491C71.7116 194.931 95.7012 192.997 106.845 192.362C105.664 176.946 98.5836 139.569 120.112 138.567C135.573 137.848 147.27 144.072 160.969 148.235C161.163 137.705 168.913 106.819 176.536 99.5795C190.093 86.7047 223.331 116.552 232.863 125.213C238.598 115.835 258.116 91.1396 269.697 88.7263C289.618 84.5752 300.146 119.944 308.721 134.083C318.493 127.886 344.901 109.846 356.352 112.627C373.767 116.855 373.047 156.679 372.993 170.327C383.996 168.613 412.745 164.878 421.677 171.304C430.694 177.791 426.866 189.287 427.744 198.584C424.622 199.034 423.274 199.088 420.234 199.25C421.065 194.128 422.406 183.066 419.53 178.607C415.074 171.699 385.181 175.48 378.108 176.438C361.78 178.651 366.7 180.972 366.216 162.392C366.024 154.976 364.248 124.395 357.187 120.205C346.833 114.061 320.336 135.837 309.677 141.98C306.849 143.61 305.695 142.965 304.11 140.248C297.69 129.246 293.698 118.491 286.327 107.108C283.042 102.036 278.598 93.7367 271.266 95.5541C262.69 97.6801 247.486 116.235 242.195 123.5C239.905 126.643 236.214 135.849 232.344 133.502C221.833 127.126 195.763 100.39 184.324 102.878C172.07 105.544 169.505 143.037 166.523 154.823C165.129 160.332 156.909 154.044 154.115 152.951C146.894 150.125 120.28 140.041 114.405 148.545C109.648 155.43 111.963 181.705 113.717 190.126C116.302 202.533 116.608 198.682 102.312 199.451C93.5995 199.919 74.7443 201.736 67.6259 206.066C56.7495 212.683 73.3321 239.004 76.9879 247.37C83.4579 262.175 82.045 263.033 68.8234 268.609C61.4685 271.711 45.8363 276.724 49.2906 286.89C51.3324 292.899 67.0043 309.067 72.0461 313.945C85.146 307.311 100.843 295.953 109.686 283.792C108.16 283.08 106.632 282.384 105.14 281.601C100.774 279.711 83.7842 273.951 81.7347 270.256C78.5914 256.148 86.8961 254.712 98.6898 260.297C105.963 263.742 113.224 267.061 120.612 270.256C124.943 262.175 135.325 249.233 141.679 242.047C140.3 240.733 139.551 240.38 137.872 239.481C136.701 237.255 133.885 235.025 131.963 233.335L120.3 223.168C114.413 218.042 107.042 213.213 113.29 204.772C119.156 201.86 120.984 202.141 126.214 205.927C131.06 211.444 143.314 220.252 149.416 225.822C150.952 227.125 152.245 228.084 153.884 229.267C160.986 222.608 173.264 212.588 182.272 208.906C181.555 206.892 180.973 205.99 179.871 204.134C179.12 202.2 178.661 201.06 177.683 199.25C175.213 193.87 170.899 185.842 168.111 180.455C165.767 174.51 158.72 165.623 166.128 160.445C168.486 158.797 169.909 158.85 172.578 159.316C172.911 159.328 173.724 159.389 173.999 159.316C179.751 162.126 190.638 186.62 194.16 193.212C194.46 193.878 195.41 196.106 195.744 196.595C196.752 198.193 197.172 199.557 197.766 201.333C204.972 196.721 220.647 193.431 229.307 192.362ZM469.291 225.004C466.06 224.766 462.405 224.781 459.181 225.004C459.037 227.43 459.297 230.461 455.918 230.387C453.15 230.32 453.88 225.851 453.34 223.9C448.174 205.243 427.503 207.912 414.001 215.432C398.904 223.841 395.472 233.789 388.335 247.98C370.107 284.221 321.383 283.84 292.188 261.908C285.82 257.133 279.589 251.654 273.197 246.957C237.676 221.065 203.105 216.943 172.064 252.368C170.373 254.297 167.087 252.236 166.513 249.498C170.053 243.196 179.319 235.447 185.257 231.223C216.314 209.128 253.188 221.921 280.665 243.753C295.346 255.418 306.588 266.122 326.368 269.247C342.153 271.741 355.067 270.13 368.452 260.786C319.805 189.633 215.664 173.968 153.884 239.481C142.015 251.038 134.836 262.227 125.455 275.234C102.505 307.053 79.4292 323.57 41.5652 330.611C38.6246 331.033 35.9834 331.285 33.0292 331.547C63.1252 348.687 98.5257 343.503 128.387 329.011C128.614 326.694 128.9 324.805 129.287 322.504C129.755 320.357 131.256 311.837 136.333 318.024C136.864 321.322 134.923 330.979 134.559 333.708C132.647 348.068 125.456 397.759 136.443 408.702C142.534 414.756 163.755 415.785 171.864 413.138C185.405 408.717 187.087 389.447 173.999 383.398C174.613 380.695 175.463 378.088 176.39 375.463C181.48 361.057 185.615 346.303 190.773 331.947C197.59 326.619 196.571 336.207 195.744 340.056C195.057 342.001 194.47 343.644 194.16 345.697C231.09 354.733 260.362 357.331 298.989 353.202C302.934 352.78 306.627 352.109 310.601 352.074C310.826 350.235 311.033 348.14 311.378 346.345C312.165 342.798 313.607 330.735 319.745 337.308C320.619 338.243 318.125 347.356 317.81 349.363C315.399 364.688 313.524 381.095 314.718 396.575C314.908 399.042 319.671 405.989 321.301 407.777C324.194 410.568 329.741 413.86 333.862 413.817C345.666 413.695 365.659 416.978 367.01 399.097C367.708 389.858 362.388 386.055 357.057 379.838C358.102 373.741 361.514 365.297 363.397 359.153L367.87 344.426C370.34 336.077 369.45 335.29 376.237 329.363C390.399 316.916 402.902 301.253 413.145 285.464C422.149 271.586 422.476 268.043 439.776 268.028L455.655 268.051C459.831 268.053 464.705 268.23 468.762 267.454C491.499 263.173 494.343 231.023 469.291 225.004ZM218.399 358.16C208.914 356.504 200.767 354.124 191.685 352.074C189.166 358.961 183.389 373.993 182.272 380.697C191.167 388.544 191.284 398.398 187.494 408.702C185.915 410.715 185.303 411.808 184.019 414.076C195.83 412.014 214.782 419.051 222.899 405.118C228.373 395.722 221.568 386.153 213.456 381.517C215.873 375.039 221.386 365.198 224.793 359.154C222.573 358.866 220.601 358.561 218.399 358.16ZM312.753 407.777C311.583 405.8 308.685 401.096 308.362 399.056C306.879 389.674 307.823 368.285 309.539 359.154C302.262 359.308 289.47 360.673 282.276 361.896L282.256 383C282.253 393.169 281.125 400.145 287.782 408.702C294.645 414.151 298.938 414.162 307.1 414.108L318.296 414.076C316.35 412.224 314.561 409.85 312.753 407.777ZM233.801 145.151C233.251 147.063 234.146 155.836 234.321 158.405L235.557 179.111C235.784 183.06 236.256 187.3 236.104 191.217L241.14 191.217C239.859 176.436 237.871 160.995 235.913 146.221C235.776 145.185 234.607 145.183 233.801 145.151ZM303.026 152.303C297.902 165.575 292.898 182.561 289.235 196.595L291.573 197.109L293.725 197.978C294.927 193.256 305.237 155.809 304.616 153.561C303.967 152.766 303.952 152.809 303.026 152.303ZM170.834 165.068C168.215 167.475 173.142 174.427 174.735 177.862C176.3 181.239 186.716 206.152 189.368 204.772C190.209 204.308 190.58 204.289 191.018 203.585C189.869 199.379 172.964 165.975 170.834 165.068ZM361.708 189.51C357.386 193.687 342.929 214.417 339.399 221.109C340.222 221.745 341.088 222.442 341.923 223.049L342.499 223.391C344.399 222.3 360.652 195.189 362.891 191.305C363.308 190.582 362.36 189.85 361.708 189.51ZM119.643 209.695C118.502 210.268 118.076 210.47 117.08 211.251C125.802 219.325 137.033 229.911 146.516 237.047C147.477 236.232 148.556 235.372 149.416 234.467C142.727 229.292 125.582 212.904 119.643 209.695ZM88.2636 263.934C87.0203 265.918 87.666 266.494 89.7443 267.476C92.095 268.586 112.759 278.553 114.124 277.013L115.63 275.576C111.183 273.724 91.1943 264.112 88.2636 263.934Z"/><path fill="#E55A5A" transform="scale(2 2)" d="M273.081 100.539C274.978 101.344 275.629 101.668 276.903 103.273C269.014 109.625 251.096 128.22 250.033 137.892C249.2 145.477 255.396 171.707 257.884 179.709C261.728 179.671 280.088 181.705 282.276 184.218C281.717 185.931 281.138 187.834 280.526 189.51C267.599 186.852 260.38 186.704 247.841 186.009C246.205 177.107 245.306 144.379 239.758 139.313C241.968 129.479 263.689 104.446 273.081 100.539Z"/><path fill="#FD7069" transform="scale(2 2)" d="M276.903 103.273C282.389 111.037 299.567 140.522 298.816 145.383C298.654 146.426 292.485 154.037 291.319 156.588C287.535 164.868 284.693 175.358 282.276 184.218C280.088 181.705 261.728 179.671 257.884 179.709C255.396 171.707 249.2 145.477 250.033 137.892C251.096 128.22 269.014 109.625 276.903 103.273Z"/><path fill="#E55A5A" transform="scale(2 2)" d="M172.578 159.316C172.775 158.466 172.804 156.251 172.87 155.251C173.849 140.289 177.014 125.203 182.983 111.419C185.06 106.622 188.188 109.137 191.685 110.935C184.866 122.455 179.736 141.647 180.724 154.62C180.818 155.859 185.564 157.704 186.474 159.189C191.717 167.747 196.51 177.788 201.876 186.009C207.198 183.662 220.646 179.663 226.237 179.709C226.242 181.976 226.275 184.295 226.237 186.557C216.515 190.515 205.124 190.876 195.744 196.595C195.41 196.106 194.46 193.878 194.16 193.212C195.673 189.57 180.058 158.058 173.999 159.316C173.724 159.389 172.911 159.328 172.578 159.316Z"/><path fill="#FD7069" transform="scale(2 2)" d="M191.685 110.935C198.339 114.817 220.27 128.799 224.793 135.071C224.625 149.754 226.453 164.969 226.237 179.709C220.646 179.663 207.198 183.662 201.876 186.009C196.51 177.788 191.717 167.747 186.474 159.189C185.564 157.704 180.818 155.859 180.724 154.62C179.736 141.647 184.866 122.455 191.685 110.935Z"/><path fill="#E55A5A" transform="scale(2 2)" d="M311.378 151.52C316.168 141.962 347.984 122.951 353.977 125.089C354.718 125.648 354.861 126.401 355.195 127.301C353.283 129.371 348.966 130.349 346.436 131.696C339.49 135.394 326.519 144.947 322.243 150.562C318.548 155.414 312.795 183.818 311.378 191.217C318.486 194.166 330.208 199.932 336.644 204.134C335.423 206.261 333.41 209.273 332 211.251L331.733 210.998C327.177 206.625 307.526 196.362 301.532 194.953C304.189 181.665 310.853 164.679 311.378 151.52Z"/><path fill="#FD7069" transform="scale(2 2)" d="M355.195 127.301C358.111 137.989 363.022 173.724 359.194 179.099C357.89 180.931 352.929 182.154 350.821 184.453C345.282 190.492 341.705 197.835 336.644 204.134C330.208 199.932 318.486 194.166 311.378 191.217C312.795 183.818 318.548 155.414 322.243 150.562C326.519 144.947 339.49 135.394 346.436 131.696C348.966 130.349 353.283 129.371 355.195 127.301Z"/><path fill="white" transform="scale(2 2)" d="M236.104 191.217C236.256 187.3 235.784 183.06 235.557 179.111L234.321 158.405C234.146 155.836 233.251 147.063 233.801 145.151C234.607 145.183 235.776 145.185 235.913 146.221C237.871 160.995 239.859 176.436 241.14 191.217L236.104 191.217Z"/><path fill="#E55A5A" transform="scale(2 2)" d="M126.214 204.134C116.657 194.353 116.734 171.584 117.737 158.905C118.432 150.121 119.195 150.658 126.965 151.52C125.151 152.899 121.377 154.762 121.324 156.881C121.101 165.701 127.421 189.219 132.202 195.951C134.51 199.202 148.593 210.505 151.902 213.548C158.318 211.292 174.168 203.289 177.683 199.25C178.661 201.06 179.12 202.2 179.871 204.134C167.794 207.909 156.678 222.386 149.416 225.004C149.352 223.213 128.276 203.235 126.214 204.134Z"/><path fill="#FD7069" transform="scale(2 2)" d="M126.965 151.52C135.423 152.422 154.254 157.462 160.969 162.59C160.929 167.846 164.257 178.518 168.111 180.455C170.899 185.842 175.213 193.87 177.683 199.25C174.168 203.289 158.318 211.292 151.902 213.548C148.593 210.505 134.51 199.202 132.202 195.951C127.421 189.219 121.101 165.701 121.324 156.881C121.377 154.762 125.151 152.899 126.965 151.52Z"/><path fill="#FD7069" transform="scale(2 2)" d="M173.999 159.316C180.058 158.058 195.673 189.57 194.16 193.212C190.638 186.62 179.751 162.126 173.999 159.316Z"/><path fill="white" transform="scale(2 2)" d="M189.368 204.772C186.716 206.152 176.3 181.239 174.735 177.862C173.142 174.427 168.215 167.475 170.834 165.068C172.964 165.975 189.869 199.379 191.018 203.585C190.58 204.289 190.209 204.308 189.368 204.772Z"/><path fill="#FD7069" transform="scale(2 2)" d="M368.452 185.047C377.38 181.293 396.332 180.957 405.705 181.192C407.067 181.226 414.575 180.908 414.645 182.546C414.859 187.566 414.547 196.511 413.258 201.333C409.61 203.924 405.282 205.804 401.333 208.584C386.201 219.237 382.572 234.168 374.526 249.498C366.848 239.008 359.559 232.722 350.652 223.836C355.856 215.053 362.649 205.857 367.766 196.875C370.686 191.75 370.019 190.253 368.452 185.047Z"/><path fill="#61CDBB" transform="scale(2 2)" d="M153.884 239.481C215.664 173.968 319.805 189.633 368.452 260.786C355.067 270.13 342.153 271.741 326.368 269.247C306.588 266.122 295.346 255.418 280.665 243.753C253.188 221.921 216.314 209.128 185.257 231.223C179.319 235.447 170.053 243.196 166.513 249.498C163.748 245.867 157.806 242.275 153.884 239.481Z"/><path fill="#FD7069" transform="scale(2 2)" d="M126.214 204.134C128.276 203.235 149.352 223.213 149.416 225.004L149.416 225.822C143.314 220.252 131.06 211.444 126.214 205.927L126.214 204.134Z"/><path fill="#FD7069" transform="scale(2 2)" d="M75.4107 208.906C84.6216 206.701 103.921 203.786 113.29 204.772C107.042 213.213 114.413 218.042 120.3 223.168L131.963 233.335C133.885 235.025 136.701 237.255 137.872 239.481C131.757 243.791 127.671 253.303 123.492 256.808C122.146 255.911 115.751 254.877 113.735 254.229C110.26 253.11 91.0467 246.654 89.5385 243.67C85.8548 236.35 73.9156 216.439 75.4107 208.906Z"/><path fill="#E55A5A" transform="scale(2 2)" d="M85.0446 251.231C81.5162 245.937 71.4559 222.687 69.7783 217.305C67.8235 211.033 69.9137 210.333 75.4107 208.906C73.9156 216.439 85.8548 236.35 89.5385 243.67C91.0467 246.654 110.26 253.11 113.735 254.229C115.751 254.877 122.146 255.911 123.492 256.808C121.397 259.901 119.989 262.062 117.377 264.744C108.136 259.513 95.4061 256.403 85.0446 251.231Z"/><path fill="white" transform="scale(2 2)" d="M117.08 211.251C118.076 210.47 118.502 210.268 119.643 209.695C125.582 212.904 142.727 229.292 149.416 234.467C148.556 235.372 147.477 236.232 146.516 237.047C137.033 229.911 125.802 219.325 117.08 211.251Z"/><path fill="#CDD07D" transform="scale(2 2)" d="M469.291 225.004L469.245 225.483C470.783 226.927 472.659 227.61 474.296 228.877C483.081 235.672 484.951 248.441 477.125 256.888C466.812 268.019 441.141 259.453 427.862 263.424C417.385 265.745 413.565 275.06 408.331 283.187C400.39 295.516 390.834 306.754 380.774 317.373C369.915 328.834 367.318 325.387 363.12 341.249C359.338 355.537 353.873 369.386 349.332 383.398C364.531 388.567 364.037 406.64 352.349 407.743C344.611 408.251 327.241 406.533 321.301 407.777C319.671 405.989 314.908 399.042 314.718 396.575C313.524 381.095 315.399 364.688 317.81 349.363C318.125 347.356 320.619 338.243 319.745 337.308C313.607 330.735 312.165 342.798 311.378 346.345C305.777 346.065 299.745 347.091 294.162 347.739C265.735 351.042 223.654 349.402 195.744 340.056C196.571 336.207 197.59 326.619 190.773 331.947C189.612 327.147 186.023 327.56 184.436 332.112C179.77 345.495 176.427 359.179 171.358 372.842C170.155 376.083 167.104 381.646 168.883 385.098C171.407 389.994 179.571 391.157 176.855 400.423C172.858 414.064 148.231 407.553 136.443 408.702C125.456 397.759 132.647 348.068 134.559 333.708C134.923 330.979 136.864 321.322 136.333 318.024C131.256 311.837 129.755 320.357 129.287 322.504C109.034 336.333 69.486 339.202 46.7654 332.821C45.5014 332.466 41.9442 330.672 41.5652 330.611C79.4292 323.57 102.505 307.053 125.455 275.234C134.836 262.227 142.015 251.038 153.884 239.481C157.806 242.275 163.748 245.867 166.513 249.498C167.087 252.236 170.373 254.297 172.064 252.368C203.105 216.943 237.676 221.065 273.197 246.957C279.589 251.654 285.82 257.133 292.188 261.908C321.383 283.84 370.107 284.221 388.335 247.98C395.472 233.789 398.904 223.841 414.001 215.432C427.503 207.912 448.174 205.243 453.34 223.9C453.88 225.851 453.15 230.32 455.918 230.387C459.297 230.461 459.037 227.43 459.181 225.004C462.405 224.781 466.06 224.766 469.291 225.004ZM433.986 225.89C429.887 226.626 427.159 230.541 427.887 234.641C428.615 238.741 432.525 241.477 436.626 240.757C440.739 240.034 443.484 236.111 442.754 232C442.024 227.889 438.095 225.151 433.986 225.89Z"/><path fill="#333332" transform="scale(2 2)" d="M436.626 240.757C432.525 241.477 428.615 238.741 427.887 234.641C427.159 230.541 429.887 226.626 433.986 225.89C438.095 225.151 442.024 227.889 442.754 232C443.484 236.111 440.739 240.034 436.626 240.757ZM436.008 227.953C434.257 229.589 434.67 231.478 437.396 231.202C439.333 229.505 438.683 227.936 436.008 227.953Z"/><path fill="white" transform="scale(2 2)" d="M437.396 231.202C434.67 231.478 434.257 229.589 436.008 227.953C438.683 227.936 439.333 229.505 437.396 231.202Z"/><path fill="white" transform="scale(2 2)" d="M114.124 277.013C112.759 278.553 92.095 268.586 89.7443 267.476C87.666 266.494 87.0203 265.918 88.2636 263.934C91.1943 264.112 111.183 273.724 115.63 275.576L114.124 277.013Z"/><path fill="#FD7069" transform="scale(2 2)" d="M66.7449 275.576C70.9858 273.709 77.3788 270.604 81.7347 270.256C83.7842 273.951 100.774 279.711 105.14 281.601C98.3996 287.35 90.9297 295.964 83.8447 300.939C81.4271 295.615 69.4457 288.206 66.977 280.646C66.5421 279.314 66.8802 277.492 66.7833 276.077L66.7449 275.576Z"/><path fill="#E55A5A" transform="scale(2 2)" d="M73.8772 307.817C68.3191 300.789 60.2979 294.688 55.6614 286.758C51.8892 280.306 62.1296 277.64 66.7449 275.576L66.7833 276.077C66.8802 277.492 66.5421 279.314 66.977 280.646C69.4457 288.206 81.4271 295.615 83.8447 300.939C80.8488 303.153 77.0907 306.01 73.8772 307.817Z"/><path fill="#CDD07D" transform="scale(2 2)" d="M191.685 352.074C200.767 354.124 208.914 356.504 218.399 358.16C215.434 367.255 209.841 375.175 205.477 383.398C214.825 387.252 229.056 399.374 212.423 407.364C207.131 409.906 193.74 408.066 187.494 408.702C191.284 398.398 191.167 388.544 182.272 380.697C183.389 373.993 189.166 358.961 191.685 352.074Z"/><path fill="#CDD07D" transform="scale(2 2)" d="M312.753 407.777C308.78 408.17 290.155 407.15 287.782 408.702C281.125 400.145 282.253 393.169 282.256 383L282.276 361.896C289.47 360.673 302.262 359.308 309.539 359.154C307.823 368.285 306.879 389.674 308.362 399.056C308.685 401.096 311.583 405.8 312.753 407.777Z"/></svg>