<?xml version="1.0" encoding="utf-8" ?><svg xmlns="http://www.w3.org/2000/svg" xmlns:xlink="http://www.w3.org/1999/xlink" width="1024" height="1024" viewBox="0 0 1024 1024"><path fill="#333332" transform="scale(2 2)" d="M52.9749 149.651C44.9621 145.837 42.2067 141.862 41.6866 132.901C39.8201 100.744 65.0427 74.465 97.3799 75.5336C103.514 75.7363 109.809 76.7245 115.994 77.4559L133.548 79.3557C142.73 80.3414 153.247 81.4291 162.45 80.6374C177.304 79.3596 184.314 71.1399 200.12 70.7494C235.105 68.059 256.332 90.6219 263.071 122.543C287.186 130.057 294.689 145.555 279.232 166.401C290.311 172.183 292.516 184.138 290.039 195.304C306.477 193.624 311.151 198.462 317.248 212.916C338.882 203.598 354.091 214.246 354.271 237.001C375.464 233.452 382.651 245.238 382.695 263.478C392.101 260.678 398.099 260.632 405.882 266.968C411.807 255.409 418.723 253.39 431.448 253.773C438.578 236.654 445.028 230.699 443.699 208.944C443.296 202.336 449.281 197.234 455.491 199.679C459.587 201.398 462.397 209.718 463.869 213.962C489.524 287.946 435.985 350.817 367.965 374.206C367.142 376.542 366.594 377.797 365.487 380.016C369.753 388.476 373.921 397.63 378.024 406.282C382.201 415.089 381.402 425.245 375.356 433.1C367.209 443.684 356.812 442.014 345.039 442.002L286.675 441.995C283.65 442.001 278.384 442.411 275.66 442.114C256.585 439.903 272.811 405.705 306.939 402.9C302.915 397.284 297.082 391.832 292.568 386.384C286.542 384.663 276.131 383.652 268.881 381.893C265.172 386.333 260.059 396.114 259.012 401.771C267.127 414.637 264.97 429.523 252.631 438.707C246.323 442.919 240.392 441.99 233.142 441.994L179.55 442C173.011 441.998 162.681 443.376 157.214 439.606C150.086 434.69 152.642 428.212 157.058 422.505C167.698 408.754 183.6 403.628 200.12 401.771C186.681 377.037 190.488 360.918 202.761 337.432C199.555 333.899 197.451 330.166 194.857 326.217C182.245 321.864 165.743 327.115 159.367 339.23C158.004 341.359 157.194 345.043 155.617 346.924C144.622 360.037 131.413 328.183 149.856 304.895C135.733 305.088 132.602 317.534 126.843 317.591C114.051 317.717 117.819 270.682 165.046 266.261C169.417 265.852 173.772 265.959 178.155 266.025C173.82 247.747 176.456 242.868 162.016 228.456C152.791 230.4 143.813 232.869 134.752 235.485C114.764 241.255 94.2425 248.977 75.576 233.688C67.4998 227.073 60.9055 215.729 59.8428 205.28C60.3957 203.801 61.6983 201.997 62.1187 200.658C68.1234 181.538 66.2619 177.374 80.0899 194.303C81.8477 179.26 87.948 185.106 95.8649 192.25C97.8441 186.274 97.109 178.903 104.479 179.147C100.571 177.018 94.4625 172.7 91.7236 169.158C78.7491 177.572 79.2481 181.525 73.204 164.45C70.211 166.089 64.522 171.94 60.7681 170.096C58.5771 169.02 54.2269 153.013 52.9749 149.651ZM241.67 92.0304C235.393 83.9394 221.4 78.253 211.379 77.1456C198.85 75.4964 189.204 78.6462 178.016 83.2799C161.336 90.1884 133.196 86.0421 114.661 83.8702C106.206 82.9716 99.3097 81.1638 90.7862 82.2028C67.593 85.0298 50.7418 100.919 48.1272 124.54C47.0221 134.524 46.7317 140.261 56.6672 144.119C67.9348 151.175 99.0221 159.054 112.005 162.198C133.683 167.516 150.987 172.293 171.621 161.77C173.532 160.795 176.187 163.483 175.049 166.401C168.376 171.919 163.005 178.335 155.244 182.976C133.152 196.184 90.658 209.255 66.6877 208.705C68.8747 215.477 72.2084 221.831 77.1786 226.979C92.3088 243.444 117.98 233.806 135.45 228.662C152.835 223.543 171.028 220.109 188.909 217.091C193.914 216.246 199.082 216.059 203.993 214.697C233.863 207.372 227.412 168.23 237.265 179.147C237.223 200.52 219.42 220.574 198.553 222.015C196.125 222.183 191.931 222.839 189.554 223.343C184.657 224.122 179.794 224.73 175.049 226.164C172.785 226.358 171.324 226.457 169.137 226.979C181.45 239.607 181.37 252.823 185.047 268.777C186.78 276.297 189.234 281.664 191.637 288.66C193.556 288.64 195.552 288.59 197.463 288.66C198.799 289.21 199.512 286.631 200.056 285.54C203.141 279.344 206.945 274.032 211.395 268.775C213.561 266.208 223.202 253.494 224.324 263.478C216.705 274.206 210.201 277.361 204.066 291.86C201.756 297.32 194.766 294.006 188.427 294.349C169.075 295.142 143.171 309.702 146.753 331.823C147.126 334.126 148.704 341.067 150.144 342.677L150.583 342.742C151.192 342.043 151.126 341.412 151.242 340.471L151.31 339.937C152.858 338.167 153.978 336.087 155.232 334.107C165.025 318.645 182.432 317.45 199.115 319.742C215.255 321.96 213.27 323.944 225.475 311.012C233.224 302.801 240.539 293.587 248.112 285.692C249.915 283.813 253.857 285.159 253.743 287.799C253.617 290.697 234.209 311.222 230.668 314.94C223.66 322.091 219.301 328.388 208.327 327.248C206.298 326.94 204.148 326.654 202.153 326.217C203.708 328.866 204.849 330.459 206.9 332.763C218.638 352.258 250.539 370.955 271.589 376.145C276.944 377.466 282.373 378.81 287.745 380.016C286.553 372.638 282.98 366.692 281.708 357.172C280.629 334.769 289.799 313.865 308.721 301.319C312.559 298.773 316.298 295.91 317.248 302.907C314.795 305.237 309.877 307.723 306.723 310.476C295.65 320.141 288.724 333.766 287.771 348.483C286.558 369.901 295.236 381.364 308.974 395.989C313.16 400.445 319.227 403.876 315.46 408.833C302.704 409.131 289.843 410.671 280.423 420.22C277.255 423.433 268.734 436.097 278.411 436.038L332.928 436.044C341.023 436.046 354.43 436.677 361.874 435.283C370.433 433.68 376.395 421.266 374.046 413.266C372.685 408.63 369.731 403.888 367.559 399.521C364.798 392.983 362.2 386.431 359.215 380.016C363.746 364.51 369.229 357.294 363.458 338.669C362.806 336.563 361.21 333.188 361.347 331.07C367.089 320.309 371.136 346.499 371.466 348.215C371.624 356.264 371.463 358.967 370.361 366.941C400.965 355.624 435.581 333.573 450.129 302.907C463.728 280.982 465.463 254.596 462.327 229.617C457.302 249.952 453.534 261.818 437.47 277.972C416.68 298.876 384.104 302.497 363.744 278.889C345.063 257.227 324.712 235.32 295.569 229.13C286.977 227.305 278.21 225.982 271.794 219.192C258.513 204.755 255.711 180.421 255.803 161.636C256.023 157.846 257.022 154.048 257.434 150.283C259.282 133.432 256.171 103.385 241.67 92.0304ZM273.025 172.205L271.679 171.453C265.691 168.113 271.281 164.658 274.13 161.879C286.773 149.544 280.216 134.351 264.515 129.484C264.551 136.075 264.722 141.83 264.128 148.47C263.742 152.797 262.222 159.413 262.265 163.446C262.433 179.196 265.128 202.803 276.358 214.521C283.016 221.468 292.923 221.32 301.549 223.767C321.367 229.389 338.286 242.233 352.553 256.784C367.708 272.239 375.036 289.122 400.015 289.05C429.576 288.964 457.623 250.066 456.453 222.653C456.18 216.239 455.721 214.554 454.245 208.705C453.649 205.089 450.51 203.928 450.332 206.841C449.122 226.736 449.012 236.944 437.627 255.367C431.786 263.528 435.113 260.442 427.731 259.866C416.884 259.02 411.779 265.495 410.155 275.025C408.279 275.88 405.618 276.856 404.172 275.025C400.145 264.221 386.374 266.988 379.012 273.275C373.352 272.167 376.062 263.772 375.775 259.072L375.758 258.822C376.112 242.698 356.478 239.15 351.767 245.447C344.888 246.051 349.25 232.116 345.887 226.164C341.46 214.186 328.536 214.404 318.807 219.444C309.434 224.859 313.204 213.292 307.918 208.705C301.592 195.822 288.574 202.692 279.232 207.179C277.585 206.792 275.715 205.769 275.363 203.915C274.573 199.262 286.764 198.168 284.745 185.219C284.18 181.588 282.272 176.546 279.232 174.266C276.988 172.174 276.024 170.688 273.025 172.205ZM180.939 277.239L179.788 273.275C155.46 267.069 124.984 282.789 127.128 311.131C128.937 308.602 130.075 306.976 132.345 304.895C139.94 298.731 146.829 297.869 156.339 299.389C165.188 292.998 173.913 289.353 184.85 288.66C183.57 284.783 182.102 281.214 180.939 277.239ZM211.395 348.215C209.913 346.113 208.69 344.552 206.9 342.682C197.141 362.366 193.087 376.857 205.275 398.11C208.736 404.144 209.643 407.806 201.229 408.191C185.749 408.9 169.02 414.679 160.524 428.487C157.977 432.631 159.795 434.772 164.037 436.038C166.381 435.652 173.971 436.052 176.979 436.045L220.003 436.042C227.598 436.041 235.591 436.26 243.046 435.753C253.776 435.023 259.059 422.503 257.214 413.072C256.442 409.123 254.564 406.315 252.631 402.9C253.768 394.618 257.992 386.939 262.497 380.016C247.629 373.501 237.881 369.987 224.47 359.468C219.878 355.866 215.863 351.741 211.395 348.215ZM61.0383 153.201C61.8323 156.399 63.1057 160.472 64.3097 163.552C65.5455 162.324 66.4914 161.322 67.9091 160.301C69.0921 159.239 70.3213 158.087 71.5762 157.123C69.1239 156.162 63.2877 153.734 61.0383 153.201ZM77.9992 159.315C78.9007 162.619 80.0496 165.979 81.3264 169.158C82.8265 167.957 84.1241 166.87 85.5576 165.592L89.3624 162.637C86.4857 161.78 80.6388 159.825 77.9992 159.315ZM94.886 164.45C96.2725 165.889 103.331 173.288 104.479 170.501C105.096 169.087 105.616 167.847 106.155 166.401C101.679 166.157 98.9907 165.111 94.886 164.45ZM112.596 169.158L112.342 169.497C109.358 173.512 109.361 178.042 104.479 179.147C105.851 179.868 107.693 180.772 108.937 181.621C109.094 181.391 109.909 180.24 109.965 180.071C112.381 177.686 117.512 172.374 119.913 170.501C116.855 169.735 115.708 169.432 112.596 169.158ZM127.128 172.205C123.422 175.743 115.309 182.946 112.596 186.358C115.043 188.374 116.596 189.802 118.616 192.25C125.294 190.391 132.022 187.729 138.41 185.048C147.084 181.056 150.94 178.79 158.648 173.219C150.758 175.088 135.119 174.328 127.128 172.205ZM104.479 186.358C102.958 189.914 102.008 193.32 100.972 197.033C103.741 196.607 106.25 196.125 108.937 195.304L112.596 194.303C111.514 193.062 105.917 187.14 104.479 186.358ZM70.5138 192.25C69.0761 195.227 68.24 199.286 67.9091 202.566C70.0134 202.549 72.768 202.448 74.8211 202.566L77.9992 201.757C75.6403 198.397 73.5348 195.013 70.5138 192.25ZM86.3359 192.25C85.4613 196.164 85.3511 197.002 85.5576 200.982C87.5267 200.412 89.7368 199.715 91.7236 199.306C92.8732 199.351 93.7284 199.381 94.886 199.306C93.7484 198.264 87.5263 192.99 86.3359 192.25Z"/><path fill="#CDD07D" transform="scale(2 2)" d="M241.67 92.0304C256.171 103.385 259.282 133.432 257.434 150.283C257.022 154.048 256.023 157.846 255.803 161.636C248.253 173.944 246.042 172.046 237.265 179.147C227.412 168.23 233.863 207.372 203.993 214.697C199.082 216.059 193.914 216.246 188.909 217.091C171.028 220.109 152.835 223.543 135.45 228.662C117.98 233.806 92.3088 243.444 77.1786 226.979C77.128 225.985 72.4651 218.508 71.5762 214.268C77.8445 212.737 85.8576 212.539 92.5387 211.074C121.972 204.619 155.956 195.901 176.517 172.258C178.869 169.552 177.198 168.043 175.049 166.401C176.187 163.483 173.532 160.795 171.621 161.77C150.987 172.293 133.683 167.516 112.005 162.198C99.0221 159.054 67.9348 151.175 56.6672 144.119C56.5429 143.564 55.8665 142.462 55.6208 141.791C45.5785 114.39 71.7453 86.0155 99.4519 86.921C119.174 87.5656 145.362 93.6126 163.876 91.9235C190.915 89.4566 198.806 71.6646 232.258 86.2684C234.373 87.1921 240.321 92.1425 241.67 92.0304ZM201.295 89.5286C192.406 90.2051 185.76 97.9771 186.471 106.863C187.182 115.75 194.98 122.366 203.864 121.62C212.698 120.878 219.27 113.133 218.563 104.295C217.855 95.4578 210.135 88.8559 201.295 89.5286ZM99.9121 98.1037C76.4068 100.299 75.0227 123.513 83.3972 115.845C87.199 109.788 90.4821 106.328 97.5242 104.609C99.296 104.177 107.296 104.769 105.809 100.383C105.012 98.034 102.15 97.9039 99.9121 98.1037Z"/><path fill="#333332" transform="scale(2 2)" d="M203.864 121.62C194.98 122.366 187.182 115.75 186.471 106.863C185.76 97.9771 192.406 90.2051 201.295 89.5286C210.135 88.8559 217.855 95.4578 218.563 104.295C219.27 113.133 212.698 120.878 203.864 121.62ZM196.404 96.6352C193.695 97.1837 191.91 99.7837 192.372 102.509C192.834 105.234 195.376 107.101 198.115 106.726C199.966 106.472 201.531 105.231 202.2 103.487C202.869 101.743 202.535 99.7728 201.329 98.3467C200.123 96.9205 198.235 96.2646 196.404 96.6352Z"/><path fill="white" transform="scale(2 2)" d="M198.115 106.726C195.376 107.101 192.834 105.234 192.372 102.509C191.91 99.7837 193.695 97.1837 196.404 96.6352C198.235 96.2646 200.123 96.9205 201.329 98.3467C202.535 99.7728 202.869 101.743 202.2 103.487C201.531 105.231 199.966 106.472 198.115 106.726Z"/><path fill="#333332" transform="scale(2 2)" d="M83.3972 115.845C75.0227 123.513 76.4068 100.299 99.9121 98.1037C102.15 97.9039 105.012 98.034 105.809 100.383C107.296 104.769 99.296 104.177 97.5242 104.609C90.4821 106.328 87.199 109.788 83.3972 115.845Z"/><path fill="white" transform="scale(2 2)" d="M264.515 129.484C280.216 134.351 286.773 149.544 274.13 161.879C271.281 164.658 265.691 168.113 271.679 171.453L273.025 172.205C275.065 174.686 276.236 175.13 279.232 174.266C282.272 176.546 284.18 181.588 284.745 185.219C286.764 198.168 274.573 199.262 275.363 203.915C275.715 205.769 277.585 206.792 279.232 207.179C280.447 209.496 280.577 210.042 282.718 211.598C294.724 205.364 296.501 204.63 307.918 208.705C313.204 213.292 309.434 224.859 318.807 219.444C320.434 221.864 320.822 221.927 323.446 223.343C331.771 219.106 339.1 219.73 345.887 226.164C349.25 232.116 344.888 246.051 351.767 245.447C353.058 246.9 353.637 247.603 355.175 248.76C362.647 246.62 371.583 247.325 374.765 256.005C375.077 256.855 375.265 258.106 375.758 258.822L375.775 259.072C376.062 263.772 373.352 272.167 379.012 273.275C380.418 274.822 381.077 275.427 382.695 276.759C397.894 266.819 399.859 275.573 404.172 275.025C405.618 276.856 408.279 275.88 410.155 275.025C412.305 277.696 413.464 274.712 414.522 272.736C420.715 261.176 428.488 265.552 437.382 263.478C449.195 250.094 454.515 225.924 454.245 208.705C455.721 214.554 456.18 216.239 456.453 222.653C457.623 250.066 429.576 288.964 400.015 289.05C375.036 289.122 367.708 272.239 352.553 256.784C338.286 242.233 321.367 229.389 301.549 223.767C292.923 221.32 283.016 221.468 276.358 214.521C265.128 202.803 262.433 179.196 262.265 163.446C262.222 159.413 263.742 152.797 264.128 148.47C264.722 141.83 264.551 136.075 264.515 129.484Z"/><path fill="#CDD07D" transform="scale(2 2)" d="M237.265 179.147C246.042 172.046 248.253 173.944 255.803 161.636C255.711 180.421 258.513 204.755 271.794 219.192C278.21 225.982 286.977 227.305 295.569 229.13C324.712 235.32 345.063 257.227 363.744 278.889C384.104 302.497 416.68 298.876 437.47 277.972C453.534 261.818 457.302 249.952 462.327 229.617C465.463 254.596 463.728 280.982 450.129 302.907C449.809 302.94 449.489 302.974 449.169 303.007C427.236 325.598 401.961 340.446 371.466 348.215C371.136 346.499 367.089 320.309 361.347 331.07C361.21 333.188 362.806 336.563 363.458 338.669C369.229 357.294 363.746 364.51 359.215 380.016C362.2 386.431 364.798 392.983 367.559 399.521C369.731 403.888 372.685 408.63 374.046 413.266C376.395 421.266 370.433 433.68 361.874 435.283C354.43 436.677 341.023 436.046 332.928 436.044L278.411 436.038C285.015 408.623 316.615 422.079 323.446 408.833C316.748 395.738 302.058 389.878 295.558 369.07C289.148 348.553 295.638 326.426 313.128 313.608C315.302 312.014 320.294 309.239 321.587 307.271C322.531 305.835 320.178 301.58 317.248 302.907C316.298 295.91 312.559 298.773 308.721 301.319C289.799 313.865 280.629 334.769 281.708 357.172C268.759 354.441 238.438 325.302 230.668 314.94C234.209 311.222 253.617 290.697 253.743 287.799C253.857 285.159 249.915 283.813 248.112 285.692C240.539 293.587 233.224 302.801 225.475 311.012C213.27 323.944 215.255 321.96 199.115 319.742C182.432 317.45 165.025 318.645 155.232 334.107C153.978 336.087 152.858 338.167 151.31 339.937C149.351 332.168 152.729 321.125 157.662 314.939C166.599 303.732 180.396 299.559 194.306 300.368C202.942 300.87 205.432 304.533 209.395 294.971C212.786 286.786 217.535 279.97 223.53 273.477C224.91 271.983 231.726 266.573 230.592 264.23C229.284 261.53 226.244 262.677 224.324 263.478C223.202 253.494 213.561 266.208 211.395 268.775C205.272 261.359 191.826 224.996 189.554 223.343C191.931 222.839 196.125 222.183 198.553 222.015C219.42 220.574 237.223 200.52 237.265 179.147Z"/><path fill="#CDD07D" transform="scale(2 2)" d="M112.596 186.358C115.309 182.946 123.422 175.743 127.128 172.205C135.119 174.328 150.758 175.088 158.648 173.219C150.94 178.79 147.084 181.056 138.41 185.048C132.022 187.729 125.294 190.391 118.616 192.25C116.596 189.802 115.043 188.374 112.596 186.358Z"/><path fill="#CDD07D" transform="scale(2 2)" d="M175.049 226.164C179.794 224.73 184.657 224.122 189.554 223.343C191.826 224.996 205.272 261.359 211.395 268.775C206.945 274.032 203.141 279.344 200.056 285.54C199.512 286.631 198.799 289.21 197.463 288.66C188.788 270.77 188.083 242.652 177.824 229.308C177.03 228.276 176.008 227.405 175.186 226.343L175.049 226.164Z"/><path fill="#CDD07D" transform="scale(2 2)" d="M180.939 277.239C182.102 281.214 183.57 284.783 184.85 288.66C173.913 289.353 165.188 292.998 156.339 299.389C146.829 297.869 139.94 298.731 132.345 304.895C132.88 299.87 137.073 292.859 140.754 289.273C152.428 277.903 165.996 277.123 180.939 277.239Z"/><path fill="#CDD07D" transform="scale(2 2)" d="M371.466 348.215C401.961 340.446 427.236 325.598 449.169 303.007C449.489 302.974 449.809 302.94 450.129 302.907C435.581 333.573 400.965 355.624 370.361 366.941C371.463 358.967 371.624 356.264 371.466 348.215Z"/><path fill="#CDD07D" transform="scale(2 2)" d="M208.327 327.248C219.301 328.388 223.66 322.091 230.668 314.94C238.438 325.302 268.759 354.441 281.708 357.172C282.98 366.692 286.553 372.638 287.745 380.016C282.373 378.81 276.944 377.466 271.589 376.145C250.539 370.955 218.638 352.258 206.9 332.763C207.338 331.616 207.835 328.842 208.327 327.248Z"/><path fill="#CDD07D" transform="scale(2 2)" d="M211.395 348.215C215.863 351.741 219.878 355.866 224.47 359.468C237.881 369.987 247.629 373.501 262.497 380.016C257.992 386.939 253.768 394.618 252.631 402.9C254.564 406.315 256.442 409.123 257.214 413.072C259.059 422.503 253.776 435.023 243.046 435.753C235.591 436.26 227.598 436.041 220.003 436.042L176.979 436.045C173.971 436.052 166.381 435.652 164.037 436.038C164.756 435.463 165.404 432.237 166.188 431.15C183.955 406.498 215.121 420.734 213.328 404.673C213.087 402.508 210.284 399.42 209.322 397.46C202.123 385.039 200.82 358.612 211.395 348.215Z"/></svg>