<?xml version="1.0" encoding="utf-8" ?><svg xmlns="http://www.w3.org/2000/svg" xmlns:xlink="http://www.w3.org/1999/xlink" width="1024" height="1024" viewBox="0 0 1024 1024"><path fill="#333332" transform="scale(2 2)" d="M36.6038 158.515C13.0803 143.392 16.3507 112.909 40.79 102.268C48.4728 98.9229 56.3185 96.2875 64.1442 93.3483L106.53 77.4376C117.926 73.1664 123.67 72.5074 132.976 64.8361C140.551 58.5911 151.99 53.9874 161.801 53.1199C176.677 52.08 199.928 52.2945 213.176 57.6261C251.213 72.9345 263.416 119.433 245.506 154.835C242.211 161.348 238.006 164.572 235.237 171.873C231.797 180.939 229.362 191.401 233.108 200.799C238.905 215.341 259.339 204.698 270.94 202.194C297.057 196.301 323.477 200.102 348.319 209.373C388.244 224.271 401.932 233.605 430.287 189.82C439.237 175.998 446.784 161.683 453.177 146.501C456.526 138.445 458.453 131.723 467.238 128.002C477.978 123.453 488.125 131.871 492.224 141.371C493.954 145.498 491.302 154.726 490.982 159.312C481.197 225.162 458.016 293.919 396.163 328.207C386.254 333.7 379.875 336.057 369.596 339.99C371.67 359.391 389.557 362.761 390.459 381.191C391.057 393.39 368.699 428.536 362.371 440.304C353.209 457.34 335.67 454.941 319.605 455.144C304.939 455.328 289.979 454.981 275.22 455.135L212.502 455.162C207.29 455.208 199.958 457.093 199.684 450.172C198.938 431.307 213.096 415.962 231.875 414.804C239.883 414.309 248.361 415.127 256.473 414.753C263.786 407.821 271.715 396.129 278.789 388.216C265.417 380.273 261.493 372.555 253.897 360.423L253.752 360.195C238.269 355.829 225.437 350.404 211.025 343.137C197.355 350.303 177.243 347.492 161.801 347.646C155.325 362.995 177.36 374.284 162.459 374.886C149.923 375.392 144.208 370.951 135.691 363.304C133.128 367.535 131.945 371.755 130.193 376.278C127.042 384.412 106.002 364.047 117.072 338.557C118.553 335.248 121.003 331.419 122.89 328.33C118.984 322.354 116.328 316.563 116.714 309.222L115.804 309.828C106.887 315.724 101.668 335.278 95.1912 317.683C88.6435 299.895 99.774 281.971 115.52 273.725C127.113 267.655 138.372 268.336 150.926 268.282C147.521 248.554 145.089 238.948 146.598 217.872C147.255 208.713 148.322 199.67 145.356 190.776C144.511 188.245 143.303 185.668 142.847 183.041L142.786 182.67C137.529 183.411 131.977 183.573 126.67 183.99C108.75 185.401 90.953 187.886 73.1276 190.126C54.2281 192.501 38.0424 177.053 36.6038 158.515ZM485.869 145.604C485.472 139.884 478.332 133.242 472.501 133.745C464.358 134.448 462.313 142.45 459.686 148.705C450.042 171.669 432.288 206.807 412.54 220.74C390.07 236.593 370.544 225.116 348.449 216.736C326.481 208.404 301.842 202.785 278.459 208.093C267.436 210.594 242.974 219.317 233.929 212.54C219.066 201.403 224.03 175.488 232.342 161.986C236.16 155.782 239.274 152.533 242.212 145.249C252.767 119.076 245.34 88.8867 223.222 71.5451C208.11 59.6965 196.888 59.9984 178.997 59.9933C162.882 59.9887 150.267 59.8418 136.886 70.7368C126.15 79.4783 118.428 80.4583 105.406 85.2402L63.4541 100.97C56.2229 103.733 47.1007 106.785 40.4306 110.264C25.2085 118.204 22.1565 142.895 38.4356 151.393C41.2571 153.007 46.5212 153.907 49.8595 154.463C74.1201 158.504 99.6841 157.631 121.693 145.754C150.173 129.374 174.407 118.153 208.686 130.87C213.353 132.601 232.408 138.514 223.471 145.604C221.733 144.885 220.108 144.166 218.397 143.384C217.705 154.348 212.272 163.582 204.143 170.708C191.215 182.04 171.631 181.616 154.862 181.798C153.322 181.815 151.046 181.716 149.63 181.798C151.004 187.379 153.305 192.51 153.733 198.334C154.501 208.768 152.922 219.145 152.808 229.682C152.543 254.19 159.915 286.004 177.954 303.913C178.874 301.937 179.582 300.246 180.374 298.214C184.685 287.408 189.591 271.884 200.281 266.217C221.206 255.125 245.025 273.625 237.178 298.214C251.274 308.681 273.296 314.857 290.478 316.999C295.442 256.215 369.448 247.662 374.842 302.543C397.618 291.409 411.369 287.23 428.973 265.446C451.126 238.034 478.931 179.663 485.869 145.604ZM49.2445 161.224C47.5309 160.745 45.005 160.378 43.2052 160.167C47.9773 181.855 63.3716 184.729 82.6546 182.026C102.969 179.179 123.422 177.317 143.888 175.983C149.082 175.645 154.867 175.483 159.982 174.691C186.706 175.073 208.664 171.709 211.95 139.486C194.81 131.593 176.02 130.664 157.904 135.604C142.519 139.8 131.144 149.317 116.926 155.565C98.7799 163.538 69.0847 165.921 49.2445 161.224ZM472.916 210.465C474.194 206.844 476.7 197.553 476.878 193.812C463.884 223.111 446.096 261.824 421.573 283.284C409.725 293.652 389.944 305.394 374.842 309.531C374.242 312.957 372.42 323.533 371.206 326.445C370.142 328.179 369.891 330.547 369.596 332.552C376.551 330.772 388.77 324.625 395.113 321.047C436.369 297.774 460.353 254.776 472.916 210.465ZM154.862 280.114C154.211 278.395 153.583 276.684 152.844 275.001L152.346 275.041C136.309 276.254 120.839 272.371 108.066 287.837C101.176 296.18 98.4758 304.177 101.264 314.702C106.678 308.544 111.127 303.083 119.187 300.467C123.609 299.032 123.637 298.267 121.026 294.578C122.474 292.464 123.691 286.513 126.38 282.347C128.779 281.274 129.982 281.22 132.569 280.898C126.396 288.758 125.231 291.037 124.909 301.69C123.154 309.273 122.996 316.495 128.169 322.693C134.219 315.385 135.271 307.104 142.786 303.275C150.646 302.858 160.633 304.617 169.011 304.637C167.861 302.781 166.275 300.626 165.025 298.718C161.358 293.837 157.267 285.734 154.862 280.114ZM237.178 306.324C236.204 305.74 235.264 305.19 234.272 304.637C229.204 311.814 225.839 325.509 220.473 334.032C219.151 335.471 218.054 336.627 216.911 338.207C245.976 353.683 266.361 357.865 299.012 357.766C298.025 356.059 296.798 354.066 296.014 352.29C292.413 343.385 290.374 333.602 290.478 324.006C268.669 321.312 256.169 316.59 237.178 306.324ZM269.019 363.304C266.952 362.711 265.077 362.327 262.979 361.891C267.307 373.764 279.157 380.634 289.499 386.403C283.515 393.116 265.06 417.416 259.646 421.717C238.618 423.008 207.818 416.036 206.644 448.236C208.375 448.254 210.232 448.306 211.95 448.236L263.425 448.236C266.209 427.537 278.174 416.494 299.012 414.753C307.481 403.246 318.584 392.989 318.462 379.023C310.341 372.925 309.983 372.376 303.355 364.727C291.687 363.952 281.34 364.942 269.019 363.304ZM275.22 448.236C279.322 447.955 287.648 448.229 291.941 448.231L325.505 448.216C330.573 448.213 336.426 448.413 341.426 448.236C357.028 443.862 365.464 419.673 373.01 406.267C385.006 384.955 389.823 382.279 372.098 361.63C356.715 343.869 363.183 331.697 367.286 312.5C372.174 289.629 352.604 266.169 328.468 274.14C285.843 288.218 288.01 356.82 325.937 375.709C331.164 378.359 340.59 381.109 344.765 384.205C341.452 389.873 336.731 396.004 333.017 401.542C317.736 421.159 326.439 421.319 298.231 421.376C282.853 421.407 271.728 433.487 270.387 448.236L275.22 448.236ZM211.025 269.818C193.407 273.025 189.802 295.068 182.659 310.403C163.883 312.896 141.128 314.4 128.948 331C120.869 342.012 117.127 356.527 125.667 368.444C126.351 366.26 132.582 351.372 136.68 352.765C137.76 353.132 139.992 357.198 141.19 358.586C146.429 364.681 150.598 366.677 158.209 368.444C152.798 357.938 151.059 351.058 158.209 341.003L180.929 341.014C203.973 341.015 210.585 340.934 219.773 319.747C222.681 311.229 232.236 296.747 232.377 288.099C232.553 277.338 221.813 268.654 211.025 269.818ZM144.876 309.222C143.787 310.573 142.111 312.532 141.19 313.927C143.204 313.193 145.272 312.465 147.261 311.677C149.569 310.991 151.492 310.36 153.752 309.531C150.892 309.538 147.7 309.593 144.876 309.222ZM324.642 383.102C324.952 385.362 325.273 387.482 325.671 389.729C320.388 397.249 312.119 407.271 307.554 414.753C310.732 414.537 312.639 414.488 315.592 413.356C318.74 411.426 321.528 406.286 323.652 403.156L334.558 387.221C331.804 386.071 327.346 384.028 324.642 383.102Z"/><path fill="#FD7069" transform="scale(2 2)" d="M266.867 216.934C272.04 215.77 275.782 214.141 281.512 213.227C308.514 208.92 331.934 215.211 356.704 225.765C369.274 231.12 378.35 235.133 392.459 233.779C427.908 230.766 451.064 182.273 463.96 152.265C469.285 139.875 471.807 132.232 485.869 145.604C478.931 179.663 451.126 238.034 428.973 265.446C411.369 287.23 397.618 291.409 374.842 302.543C369.448 247.662 295.442 256.215 290.478 316.999C273.296 314.857 251.274 308.681 237.178 298.214C245.025 273.625 221.206 255.125 200.281 266.217C189.591 271.884 184.685 287.408 180.374 298.214C164.73 281.077 157.528 252.28 158.115 229.513C158.643 209.039 161.805 201.541 154.862 181.798C171.631 181.616 191.215 182.04 204.143 170.708C212.272 163.582 217.705 154.348 218.397 143.384C220.108 144.166 221.733 144.885 223.471 145.604C232.408 138.514 213.353 132.601 208.686 130.87C174.407 118.153 150.173 129.374 121.693 145.754C99.6841 157.631 74.1201 158.504 49.8595 154.463C46.5212 153.907 41.2571 153.007 38.4356 151.393C37.9187 149.973 36.2732 148.47 35.5237 147.045C28.1687 133.055 34.5235 117.294 49.3555 111.958L100.828 92.859C114.958 87.7294 129.495 84.4187 140.81 74.7826C149.209 67.63 159.272 65.3213 170.086 65.7143C179.395 66.0526 188.884 65.035 198.154 66.077C215.741 67.7016 231.638 84.4109 237.851 99.8798C244.447 116.3 242.414 138.796 231.885 153.41C230.483 155.356 227.745 158.308 226.703 160.327C218.039 177.116 212.76 209.783 234.58 219.122C243.923 223.121 253.607 219.731 262.979 217.88C262.333 220.874 262.233 221.6 264.569 223.672C267.591 224.025 280.846 224.273 283.647 222.674C285.712 221.496 285.339 217.288 280.724 217.05C276.29 216.821 271.399 217.189 266.867 216.934ZM176.273 73.4487C163.301 74.4302 153.585 85.7476 154.578 98.7183C155.571 111.689 166.898 121.395 179.868 120.39C192.821 119.386 202.511 108.077 201.519 95.1234C200.527 82.1694 189.228 72.4685 176.273 73.4487ZM63.5973 113.661C52.6743 115.362 46.267 127.788 56.3732 126.668C58.1731 125.322 59.1341 123.383 60.7703 122.039C62.8799 120.305 68.5553 120.726 68.6736 117.16C68.7633 114.453 65.8053 113.4 63.5973 113.661ZM312.4 216.934C309.945 216.927 297.159 216.432 296.094 218.133C291.593 225.319 305.969 223.67 309.515 223.672C313.618 223.682 329.408 225.474 324.985 218.008C323.859 216.106 314.666 216.963 312.4 216.934ZM282.944 228.577C280.212 229.133 278.323 233.266 281.281 234.733C283.785 235.974 297.807 235.61 301.287 235.427C305.287 234.094 304.495 229.694 301.823 229.131C296.756 228.064 288.072 228.489 282.944 228.577ZM248.697 228.577C242.564 229.525 243.105 235.768 250.176 235.408C255.412 235.141 261.5 235.622 266.867 235.427C271.094 234.784 271.21 230.518 268.755 229.547C263.973 227.655 253.782 228.872 248.697 228.577Z"/><path fill="#333332" transform="scale(2 2)" d="M179.868 120.39C166.898 121.395 155.571 111.689 154.578 98.7183C153.585 85.7476 163.301 74.4302 176.273 73.4487C189.228 72.4685 200.527 82.1694 201.519 95.1234C202.511 108.077 192.821 119.386 179.868 120.39ZM175.591 80.5067C166.568 81.861 160.334 90.2498 161.639 99.2802C162.945 108.311 171.3 114.59 180.337 113.334C189.444 112.068 195.782 103.634 194.467 94.5346C193.151 85.4348 184.684 79.142 175.591 80.5067Z"/><path fill="#4FC6C0" transform="scale(2 2)" d="M180.337 113.334C171.3 114.59 162.945 108.311 161.639 99.2802C160.334 90.2498 166.568 81.861 175.591 80.5067C184.684 79.142 193.151 85.4348 194.467 94.5346C195.782 103.634 189.444 112.068 180.337 113.334ZM176.724 90.5071C173.919 91.1583 172.149 93.9312 172.738 96.7497C173.327 99.5682 176.061 101.399 178.891 100.872C180.779 100.521 182.328 99.1755 182.941 97.356C183.554 95.5365 183.134 93.5279 181.843 92.1064C180.553 90.6848 178.594 90.0729 176.724 90.5071Z"/><path fill="#333332" transform="scale(2 2)" d="M178.891 100.872C176.061 101.399 173.327 99.5682 172.738 96.7497C172.149 93.9312 173.919 91.1583 176.724 90.5071C178.594 90.0729 180.553 90.6848 181.843 92.1064C183.134 93.5279 183.554 95.5365 182.941 97.356C182.328 99.1755 180.779 100.521 178.891 100.872Z"/><path fill="#333332" transform="scale(2 2)" d="M56.3732 126.668C46.267 127.788 52.6743 115.362 63.5973 113.661C65.8053 113.4 68.7633 114.453 68.6736 117.16C68.5553 120.726 62.8799 120.305 60.7703 122.039C59.1341 123.383 58.1731 125.322 56.3732 126.668Z"/><path fill="#FECB5B" transform="scale(2 2)" d="M49.2445 161.224C69.0847 165.921 98.7799 163.538 116.926 155.565C131.144 149.317 142.519 139.8 157.904 135.604C176.02 130.664 194.81 131.593 211.95 139.486C208.664 171.709 186.706 175.073 159.982 174.691C158.585 173.401 157.431 171.908 155.869 170.488C149.066 170.037 141.492 171.099 134.712 171.642C119.49 172.861 105.177 174.17 89.9293 175.868C76.2863 176.851 52.2422 183.02 49.2445 161.224Z"/><path fill="#FECB5B" transform="scale(2 2)" d="M472.916 210.465C469.724 211.132 465.301 226.06 463.776 229.432C457.253 243.856 450.716 254.978 441.881 268.02C426.306 290.955 413.881 305.445 387.902 318.89C384.643 320.576 374.365 326 371.206 326.445C372.42 323.533 374.242 312.957 374.842 309.531C389.944 305.394 409.725 293.652 421.573 283.284C446.096 261.824 463.884 223.111 476.878 193.812C476.7 197.553 474.194 206.844 472.916 210.465Z"/><path fill="white" transform="scale(2 2)" d="M371.206 326.445C374.365 326 384.643 320.576 387.902 318.89C413.881 305.445 426.306 290.955 441.881 268.02C450.716 254.978 457.253 243.856 463.776 229.432C465.301 226.06 469.724 211.132 472.916 210.465C460.353 254.776 436.369 297.774 395.113 321.047C388.77 324.625 376.551 330.772 369.596 332.552C369.891 330.547 370.142 328.179 371.206 326.445Z"/><path fill="#333332" transform="scale(2 2)" d="M309.515 223.672C305.969 223.67 291.593 225.319 296.094 218.133C297.159 216.432 309.945 216.927 312.4 216.934C314.666 216.963 323.859 216.106 324.985 218.008C329.408 225.474 313.618 223.682 309.515 223.672Z"/><path fill="#333332" transform="scale(2 2)" d="M262.979 217.88L266.867 216.934C271.399 217.189 276.29 216.821 280.724 217.05C285.339 217.288 285.712 221.496 283.647 222.674C280.846 224.273 267.591 224.025 264.569 223.672C262.233 221.6 262.333 220.874 262.979 217.88Z"/><path fill="#333332" transform="scale(2 2)" d="M301.287 235.427C297.807 235.61 283.785 235.974 281.281 234.733C278.323 233.266 280.212 229.133 282.944 228.577C288.072 228.489 296.756 228.064 301.823 229.131C304.495 229.694 305.287 234.094 301.287 235.427Z"/><path fill="#333332" transform="scale(2 2)" d="M266.867 235.427C261.5 235.622 255.412 235.141 250.176 235.408C243.105 235.768 242.564 229.525 248.697 228.577C253.782 228.872 263.973 227.655 268.755 229.547C271.21 230.518 271.094 234.784 266.867 235.427Z"/><path fill="#CDD07D" transform="scale(2 2)" d="M159.272 319.855C193.97 309.248 180.342 328.374 197.903 288.835C209.139 263.539 228.57 278.008 226.929 289.937C226.601 292.323 212.955 322.242 211.407 325.447C206.403 335.804 192.286 335.05 182.905 335.036L166.619 335.013C147.98 335.003 147.782 344.074 149.63 360.195C145.753 356.088 140.334 347.487 135.337 347.187C130.484 346.895 127.893 354.156 125.667 357.766C125.739 348.871 129.744 332.954 138.425 329.216C137.963 330.626 135.798 337.937 137.917 338.282C139.5 336.819 141.531 332.627 144.183 330.082C148.685 325.762 156.878 324.551 159.272 319.855Z"/><path fill="#CDD07D" transform="scale(2 2)" d="M341.426 448.236C336.426 448.413 330.573 448.213 325.505 448.216L291.941 448.231C287.648 448.229 279.322 447.955 275.22 448.236C275.933 447.994 277.935 440.708 279.361 438.348C287.815 424.357 301.245 429.08 314.487 426.914C322.768 425.559 325.187 422.124 329.621 415.814L348.68 388.644C350.603 385.844 350.302 383.754 349.612 380.651C343.204 374.451 329.342 373.881 319.822 365.22C299.593 346.818 295.486 311.259 313.886 290.07C335.752 264.889 368.974 281.959 361.428 314.108C358.278 327.502 354.149 334.898 358.801 349.71C366.575 374.464 386.939 369.517 373.273 395.036L354.949 428.87C349.616 438.755 349.014 440.194 341.426 448.236Z"/><path fill="#CDD07D" transform="scale(2 2)" d="M132.569 280.898C135.898 279.772 150.586 280.093 154.862 280.114C157.267 285.734 161.358 293.837 165.025 298.718C163.035 299.5 144.935 297.512 141.19 297.378C133.608 300.592 131.539 309.2 128.775 311.543C126.272 309.507 131.427 303.711 124.909 301.69C125.231 291.037 126.396 288.758 132.569 280.898Z"/><path fill="#CDD07D" transform="scale(2 2)" d="M105.596 302.543C107.996 294.015 117.353 283.582 126.38 282.347C123.691 286.513 122.474 292.464 121.026 294.578C115.748 294.913 109.482 299.24 105.596 302.543Z"/><path fill="#CDD07D" transform="scale(2 2)" d="M234.272 304.637C235.264 305.19 236.204 305.74 237.178 306.324C234.066 316.673 228.75 326.513 224.724 336.587C222.829 335.844 221.954 335.339 220.473 334.032C225.839 325.509 229.204 311.814 234.272 304.637Z"/><path fill="#FECB5B" transform="scale(2 2)" d="M237.178 306.324C256.169 316.59 268.669 321.312 290.478 324.006C290.374 333.602 292.413 343.385 296.014 352.29C272.47 353.307 245.819 347.6 224.724 336.587C228.75 326.513 234.066 316.673 237.178 306.324Z"/><path fill="#333332" transform="scale(2 2)" d="M138.425 329.216C143.078 324.166 152.747 321.119 159.272 319.855C156.878 324.551 148.685 325.762 144.183 330.082C141.531 332.627 139.5 336.819 137.917 338.282C135.798 337.937 137.963 330.626 138.425 329.216Z"/><path fill="#FD7069" transform="scale(2 2)" d="M269.019 363.304C281.34 364.942 291.687 363.952 303.355 364.727C309.983 372.376 310.341 372.925 318.462 379.023C318.584 392.989 307.481 403.246 299.012 414.753C278.174 416.494 266.209 427.537 263.425 448.236L211.95 448.236L212.041 447.632C215.586 425.162 233.009 427.396 250.503 427.725C262.423 427.948 263.602 425.58 270.924 416.943L278.508 408.098C282.355 403.622 300.888 386.83 294.505 382.615C285.442 376.629 275.856 372.262 269.019 363.304Z"/></svg>