<?xml version="1.0" encoding="utf-8" ?><svg xmlns="http://www.w3.org/2000/svg" xmlns:xlink="http://www.w3.org/1999/xlink" width="1024" height="1024" viewBox="0 0 1024 1024"><path fill="#333332" transform="scale(2 2)" d="M220.147 172.767L127.24 203.21C121.876 204.952 98.5253 213.378 94.9303 213.192C89.7261 209.164 94.0952 193.738 97.3801 189.065C102.166 182.257 108.771 177.379 114.937 171.747L175.614 117.289C188.6 105.661 195.867 100.376 213.877 96.9175C215.578 96.5371 217.381 96.3066 218.812 95.2237C228.46 87.9207 270.601 52.75 277.929 50.8304C284.053 50.1321 289.271 56.13 287.573 62.0694C286.44 66.0291 282.296 72.8273 280.264 76.7244L264.107 108.101C261.467 113.269 258.208 118.622 256.196 124.045L256.079 124.366C258.79 131.854 262.744 138.971 266.032 146.224C275.567 167.257 285.67 188.019 295.319 208.994C333.51 191.275 299.171 146.044 341.863 115.787C359.71 103.139 454.521 43.2526 474.627 53.8266C484.221 58.872 485.876 72.213 477.524 79.2365C454.085 100.861 434.668 151.238 431.309 182.338C430.758 187.437 430.91 188.112 426.062 190.284C392.003 205.545 373.792 241.838 371.574 277.787C369.713 308.537 369.438 320.1 354.552 347.367C362.122 384.85 384.193 409.47 409.562 436.764C412.465 439.887 416.972 443.383 417.789 447.8C418.657 452.494 415.727 457.092 410.897 457.802C403.225 458.929 385.599 446.15 379.307 441.621C351.591 421.671 327.772 406.896 322.143 372.312C317.856 373.041 313.976 374.7 309.888 376.21C310.626 386.348 316.144 410.78 314.752 416.807C311.132 427.904 304.433 417.913 299.64 415.5C298.671 420.263 296.515 432.738 288.757 426.423C280.884 420.014 276.89 389.353 275.935 379.831C227.058 371.586 223.638 339.386 187.029 324.338C170.263 317.446 157.826 318.666 140.926 322.749C138.563 323.32 129.37 321.417 125.605 321.364C101.105 321.026 75.5416 328.013 56.1698 343.332C41.1245 355.603 23.6779 338.529 30.8733 324.121C49.4599 286.903 76.0125 252.688 107.807 225.84C132.813 204.724 160.642 194.435 185.947 224.288C195.719 235.816 217.23 245.791 232.383 239.803C227.816 217.737 223.322 195.017 220.147 172.767ZM472.244 60.4303C469.988 59.0549 467.651 58.2822 465.032 59.1806C428.117 71.8436 392.539 89.4967 360.235 111.395C344.982 121.734 330.225 131.791 325.633 150.744C319.502 176.2 329.453 200.748 298.247 215.308C299 216.799 299.925 218.775 300.732 220.191C302.072 223.615 304.494 228.185 306.215 231.465C327.052 222.006 338.849 202.769 341.299 180.528C344.38 152.57 339.159 149.767 362.491 132.177C390.306 111.207 421.449 94.8832 453.842 82.2233C461.164 79.3617 487.339 72.7175 472.244 60.4303ZM278.686 63.6406C279.807 62.0777 281.836 59.6192 280.11 57.7933C277.165 56.8243 266.177 66.8896 263.418 69.0707L221.862 101.767C219.729 103.423 215.654 103.406 213.123 103.939C196.458 107.448 189.224 114.286 177.391 124.851L107.741 187.248C102.366 192.061 100.119 198.023 99.5385 205.102C101.505 204.571 103.023 204.123 104.938 203.445C109.626 201.667 114.836 200.176 119.632 198.567L204.119 170.977C210.3 168.999 223.702 161.66 226.69 168.711C228.309 182.313 230.874 194.577 233.391 208.045L249.768 298.654C252.93 316.99 252.468 325.115 261.978 341.062L272.754 359.293C280.476 372.251 282.003 373.847 284.237 388.633C285.256 395.383 288.629 414.411 291.486 419.315C292.503 416.929 292.708 415.745 293.077 413.16C297.085 400.065 302.268 409.694 308.28 413.893L308.603 414.114C307.595 401.534 302.921 391.162 303.276 377.927C299.548 378.304 287.116 381.543 289.347 374.695C290.12 372.32 292.3 372.15 294.482 371.939C304.217 370.996 321.351 362.935 328.053 365.144C330.744 372.042 328.742 379.888 334.003 390.748C341.087 405.374 392.999 446.986 409.192 451.108L409.744 451.324C414.446 448.952 405.247 442.208 403.509 440.285C378.691 412.826 349.654 381.794 347.697 342.75C345.858 306.064 334.918 297.366 317.702 267.383C307.052 248.835 297.653 230.057 288.461 210.741L281.119 194.922C279.391 191.196 277.317 187.014 275.935 183.187C273.926 185.699 271.538 189.815 269.852 192.735C263.782 203.252 247.608 207.223 237.238 200.086C235.331 196.002 235.329 194.867 234.651 190.46C254.85 206.947 263.581 190.802 271.921 175.238C269.944 171.692 268.154 167.506 266.479 163.784L258.923 147.023C256.309 141.272 250.621 130.013 248.709 124.366C249.609 120.932 253.402 114.222 255.141 110.728L269.723 81.8916C272.524 76.4483 276.63 69.2315 278.686 63.6406ZM438.171 130.138C443.372 117.774 448.117 108.312 455.26 96.8344C457.363 93.4551 461.247 88.5747 462.765 85.8966C438.45 95.3988 373.101 125.861 356.252 146.215C357.79 146.738 366.668 149.48 368.166 149.662C388.968 155.383 407.896 165.577 424.626 179.158C427.32 159.665 431.37 147.93 438.171 130.138ZM234.651 252.717L233.899 246.78C206.581 253.415 192.452 239.291 174.837 222.771C154.689 204.295 133.155 213.622 115.032 228.503C86.8928 251.641 63.7939 280.7 45.1396 311.876C40.911 318.943 34.2207 327.41 37.3063 335.523C45.0669 348.231 50.7806 337.715 55.1162 330.005C73.7527 296.867 98.3269 264.139 128.64 240.877C147.06 226.743 156.771 231.316 171.895 245.811C189.694 262.619 212.838 271.465 237.238 266.069C236.383 261.701 235.717 256.955 234.651 252.717ZM145.43 252.717C146.894 248.453 148.553 244.02 149.971 239.803C142.907 238.811 136.638 243.498 131.277 247.612C105.735 267.214 78.5004 301.775 62.2632 330.511C66.9417 328.222 82.4658 321.457 85.0457 319.498C90.2137 319.145 94.5585 317.372 99.5435 316.539C110.868 314.647 125.572 313.964 136.922 315.844C136.264 294.528 139.785 273.204 145.43 252.717ZM352.23 152.125C348.699 159.312 348.997 167.474 348.607 175.283C347.046 206.581 334.523 222.102 309.888 237.659C313.049 247.287 324.918 266.327 330.515 275.253C339.68 289.866 348.98 303.528 352.029 320.874C352.855 325.573 353.019 330.141 354.552 334.704C356.447 328.373 359.164 322.349 360.485 315.844C364.372 301 363.715 285.716 365.37 270.572C369.466 233.082 387.701 202.875 421.154 185.224C401.903 167.917 377.129 158.033 352.23 152.125ZM156.615 241.345C147.721 267.066 143.603 288.524 143.719 315.844C170.456 306.485 197.941 318.021 217.634 336.363C232.568 350.273 242.114 361.998 261.85 369.092C265.424 370.266 269.008 371.583 272.706 372.312C268.13 364.329 263.348 356.444 258.608 348.556C247.77 330.523 247.878 328.267 244.253 307.073C242.287 295.581 240.381 284.005 238.125 272.569C214.823 279.533 187.18 268.99 169.555 253.125C165.924 249.858 160.708 243.493 156.615 241.345Z"/><path fill="#FECB5B" transform="scale(2 2)" d="M472.244 60.4303C487.339 72.7175 461.164 79.3617 453.842 82.2233C421.449 94.8832 390.306 111.207 362.491 132.177C339.159 149.767 344.38 152.57 341.299 180.528C338.849 202.769 327.052 222.006 306.215 231.465C304.494 228.185 302.072 223.615 300.732 220.191C302.554 218.376 304.842 216.985 306.939 215.512C336.868 194.49 322.32 173.502 331.692 147.205C336.858 132.711 347.174 126.047 359.016 117.799C388.479 97.2787 419.764 80.8491 453.238 68.0468C459.488 65.6566 465.997 63.445 472.025 60.5379L472.244 60.4303Z"/><path fill="#FD7069" transform="scale(2 2)" d="M104.938 203.445C105.273 193.084 127.99 175.886 136.034 168.843L168.552 139.887C175.408 133.864 182.029 127.898 189.194 122.191C198.278 114.956 197.477 113.345 210.354 110.102C221.364 107.329 219.905 110.2 228.909 102.884L266.596 72.9946C270.171 70.2082 275.036 65.7148 278.686 63.6406C276.63 69.2315 272.524 76.4483 269.723 81.8916L255.141 110.728C253.402 114.222 249.609 120.932 248.709 124.366C250.621 130.013 256.309 141.272 258.923 147.023L266.479 163.784C268.154 167.506 269.944 171.692 271.921 175.238C263.581 190.802 254.85 206.947 234.651 190.46C232.055 182.817 234.92 169.545 226.69 168.711C223.702 161.66 210.3 168.999 204.119 170.977L119.632 198.567C114.836 200.176 109.626 201.667 104.938 203.445ZM197.88 119.612C190.746 119.852 185.146 125.81 185.349 132.946C185.552 140.081 191.483 145.711 198.619 145.544C205.806 145.375 211.485 139.393 211.281 132.207C211.076 125.02 205.065 119.372 197.88 119.612Z"/><path fill="#FD7069" transform="scale(2 2)" d="M438.171 130.138C424.299 130.517 374.916 144.076 368.166 149.662C366.668 149.48 357.79 146.738 356.252 146.215C373.101 125.861 438.45 95.3988 462.765 85.8966C461.247 88.5747 457.363 93.4551 455.26 96.8344C448.117 108.312 443.372 117.774 438.171 130.138Z"/><path fill="#333332" transform="scale(2 2)" d="M198.619 145.544C191.483 145.711 185.552 140.081 185.349 132.946C185.146 125.81 190.746 119.852 197.88 119.612C205.065 119.372 211.076 125.02 211.281 132.207C211.485 139.393 205.806 145.375 198.619 145.544ZM197.567 126.423C195.722 126.653 194.078 127.701 193.09 129.276C192.103 130.852 191.877 132.788 192.474 134.549C193.45 137.423 196.368 139.164 199.361 138.658C202.676 138.098 204.937 134.991 204.449 131.663C203.961 128.336 200.904 126.008 197.567 126.423Z"/><path fill="#FECB5B" transform="scale(2 2)" d="M368.166 149.662C374.916 144.076 424.299 130.517 438.171 130.138C431.37 147.93 427.32 159.665 424.626 179.158C407.896 165.577 388.968 155.383 368.166 149.662Z"/><path fill="#FD7069" transform="scale(2 2)" d="M309.888 237.659C334.523 222.102 347.046 206.581 348.607 175.283C348.997 167.474 348.699 159.312 352.23 152.125C377.129 158.033 401.903 167.917 421.154 185.224C387.701 202.875 369.466 233.082 365.37 270.572C363.715 285.716 364.372 301 360.485 315.844C359.164 322.349 356.447 328.373 354.552 334.704C353.019 330.141 352.855 325.573 352.029 320.874C348.98 303.528 339.68 289.866 330.515 275.253C324.918 266.327 313.049 247.287 309.888 237.659Z"/><path fill="white" transform="scale(2 2)" d="M226.69 168.711C234.92 169.545 232.055 182.817 234.651 190.46C235.329 194.867 235.331 196.002 237.238 200.086C236.831 205.729 239.881 217.756 240.998 223.728L257.133 315.531C259.154 326.889 259.545 327.844 265.235 337.499L276.291 356.325C279.162 361.189 284.077 368.549 285.568 373.72C288.733 384.704 289.373 404.269 293.077 413.16C292.708 415.745 292.503 416.929 291.486 419.315C288.629 414.411 285.256 395.383 284.237 388.633C282.003 373.847 280.476 372.251 272.754 359.293L261.978 341.062C252.468 325.115 252.93 316.99 249.768 298.654L233.391 208.045C230.874 194.577 228.309 182.313 226.69 168.711Z"/><path fill="#74CABF" transform="scale(2 2)" d="M237.238 200.086C247.608 207.223 263.782 203.252 269.852 192.735C271.538 189.815 273.926 185.699 275.935 183.187C277.317 187.014 279.391 191.196 281.119 194.922L288.461 210.741C297.653 230.057 307.052 248.835 317.702 267.383C334.918 297.366 345.858 306.064 347.697 342.75C349.654 381.794 378.691 412.826 403.509 440.285C405.247 442.208 414.446 448.952 409.744 451.324L409.192 451.108C409.021 450.113 400.534 444.743 398.84 443.401C385.462 432.986 372.283 422.683 359.465 411.594C342.786 397.163 333.557 388.456 333.516 365.144C331.664 363.067 328.495 361.145 328.053 365.144C321.351 362.935 304.217 370.996 294.482 371.939C292.3 372.15 290.12 372.32 289.347 374.695C287.116 381.543 299.548 378.304 303.276 377.927C302.921 391.162 307.595 401.534 308.603 414.114L308.28 413.893C302.268 409.694 297.085 400.065 293.077 413.16C289.373 404.269 288.733 384.704 285.568 373.72C284.077 368.549 279.162 361.189 276.291 356.325L265.235 337.499C259.545 327.844 259.154 326.889 257.133 315.531L240.998 223.728C239.881 217.756 236.831 205.729 237.238 200.086ZM296.751 250.259C288.981 254.043 304.254 274.287 307.266 274.488C309.222 273.384 310.441 272.068 309.655 269.79C308.323 265.934 301.724 250.286 296.751 250.259ZM311.492 279.027C309.893 280.056 309.336 280.974 308.603 282.689C309.985 286.907 314.547 298.818 319.741 298.466C320.845 297.753 322.058 296.958 322.314 295.562C322.527 294.399 316.86 278.651 311.492 279.027ZM323.43 301.998C314.677 306.216 328.24 321.033 330.211 321.373C331.272 320.585 332.866 319.307 333.195 317.958C333.58 316.373 327.365 301.992 323.43 301.998Z"/><path fill="#FECB5B" transform="scale(2 2)" d="M234.651 252.717C235.717 256.955 236.383 261.701 237.238 266.069C212.838 271.465 189.694 262.619 171.895 245.811C156.771 231.316 147.06 226.743 128.64 240.877C98.3269 264.139 73.7527 296.867 55.1162 330.005C50.7806 337.715 45.0669 348.231 37.3063 335.523C38.446 333.563 39.9719 329.834 41.2822 327.46C62.7857 288.497 90.8513 251.12 127.104 224.841C134.247 219.176 140.252 217.392 149.078 216.862C178.642 215.085 182.306 252.932 224.364 252.762C227.894 252.747 230.883 252.126 234.651 252.717Z"/><path fill="#FD7069" transform="scale(2 2)" d="M145.43 252.717C135.791 254.709 97.9207 301.112 92.0201 309.652C91.4231 310.516 85.0726 319.391 85.0457 319.498C82.4658 321.457 66.9417 328.222 62.2632 330.511C78.5004 301.775 105.735 267.214 131.277 247.612C136.638 243.498 142.907 238.811 149.971 239.803C148.553 244.02 146.894 248.453 145.43 252.717Z"/><path fill="#FD7069" transform="scale(2 2)" d="M143.719 315.844C143.603 288.524 147.721 267.066 156.615 241.345C160.708 243.493 165.924 249.858 169.555 253.125C187.18 268.99 214.823 279.533 238.125 272.569C240.381 284.005 242.287 295.581 244.253 307.073C247.878 328.267 247.77 330.523 258.608 348.556C263.348 356.444 268.13 364.329 272.706 372.312C269.008 371.583 265.424 370.266 261.85 369.092C242.114 361.998 232.568 350.273 217.634 336.363C197.941 318.021 170.456 306.485 143.719 315.844Z"/><path fill="#333332" transform="scale(2 2)" d="M307.266 274.488C304.254 274.287 288.981 254.043 296.751 250.259C301.724 250.286 308.323 265.934 309.655 269.79C310.441 272.068 309.222 273.384 307.266 274.488Z"/><path fill="#FECB5B" transform="scale(2 2)" d="M85.0457 319.498C85.0726 319.391 91.4231 310.516 92.0201 309.652C97.9207 301.112 135.791 254.709 145.43 252.717C139.785 273.204 136.264 294.528 136.922 315.844C125.572 313.964 110.868 314.647 99.5435 316.539C94.5585 317.372 90.2137 319.145 85.0457 319.498Z"/><path fill="#333332" transform="scale(2 2)" d="M308.603 282.689C309.336 280.974 309.893 280.056 311.492 279.027C316.86 278.651 322.527 294.399 322.314 295.562C322.058 296.958 320.845 297.753 319.741 298.466C314.547 298.818 309.985 286.907 308.603 282.689Z"/><path fill="#333332" transform="scale(2 2)" d="M330.211 321.373C328.24 321.033 314.677 306.216 323.43 301.998C327.365 301.992 333.58 316.373 333.195 317.958C332.866 319.307 331.272 320.585 330.211 321.373Z"/><path fill="white" transform="scale(2 2)" d="M328.053 365.144C328.495 361.145 331.664 363.067 333.516 365.144C333.557 388.456 342.786 397.163 359.465 411.594C372.283 422.683 385.462 432.986 398.84 443.401C400.534 444.743 409.021 450.113 409.192 451.108C392.999 446.986 341.087 405.374 334.003 390.748C328.742 379.888 330.744 372.042 328.053 365.144Z"/></svg>