<?xml version="1.0" encoding="utf-8" ?><svg xmlns="http://www.w3.org/2000/svg" xmlns:xlink="http://www.w3.org/1999/xlink" width="1024" height="1024" viewBox="0 0 1024 1024"><path fill="#333332" transform="scale(2 2)" d="M263.904 116.895C267.529 111.429 287.325 91.8303 290.906 90.2365C294.383 90.8946 312.593 113.673 314.891 116.895C321.218 113.528 338.258 107.611 345.58 105.462C348.147 104.709 349.581 105.125 350.518 107.65C353.97 116.945 357.381 126.239 360.897 135.512L361.15 135.49C366.458 135.095 394.209 137.834 396.08 139.456C397.189 142.291 395.032 151.353 394.442 154.75L389.638 181.899C392.374 184.726 395.582 187.416 398.416 190.337C413.688 206.073 421.866 224.902 429.084 245.269C438.731 272.495 437.328 296.067 470.993 302.167C474.918 303.13 489.224 301.7 482.342 310.791C464.778 333.991 432.485 342.379 405.028 345.62C409.135 361.216 401.747 363.929 398.117 378.048C396.219 385.426 399.105 396.3 396.297 404.156C394.823 409.765 387.432 417.01 381.121 417.252C368.788 417.726 354.422 417.476 341.991 417.342C333.434 417.25 326.487 410.85 323.077 403.398C315.729 403.017 308.475 404.623 301.633 400.985C287.756 393.608 288.778 379.242 295.17 367.366C280.048 367.505 268.643 366.992 253.648 365.933C247.704 374.684 247.095 373.09 246.819 383.535C246.566 393.166 248.586 403.222 241.538 411.006C233.231 420.566 212.437 417.388 200.453 417.465C183.22 417.292 173.617 412.912 172.866 394C158.241 393.628 141.359 395.272 137.22 376.092C134.325 362.674 141.816 355.298 148.479 344.771C152.721 337.875 156.514 330.484 160.202 323.265C155.871 319.979 147.98 309.733 144.609 305.362C133.909 306.741 120.939 311.58 111.071 315.74C98.864 320.886 92.9391 331.21 78.6549 329.925C66.6599 328.845 59.2151 321.635 51.8305 313.09C32.7351 290.995 27.4135 262.882 52.0155 242.246C57.0375 238.019 62.9062 233.799 67.8273 229.477C51.9963 213.39 39.4994 195.177 30.4768 174.5C28.8798 170.322 24.1488 161.792 26.7633 157.482C34.1439 145.313 43.1492 153.748 49.767 160.789C65.9797 175.734 84.3569 186.793 104.496 195.757C106.551 194.676 110.012 194.052 112.421 193.411C95.0367 178.576 83.5141 164.752 72.6048 144.057C69.4666 137.488 64.7248 130.43 62.6003 123.486C59.5395 113.482 71.9247 107.423 76.4113 110.502C83.0045 115.027 88.3784 121.362 95.0675 125.968C111.579 138.417 130.71 149.291 150.195 156.086C156.961 132.277 181.069 118.847 201.634 136.479C205.775 135.906 213.14 133.855 217.4 132.8C220.804 124.703 223.836 116.464 226.993 108.269C228.418 104.572 229.471 99.5923 234.407 101.91C244.342 106.576 254.177 111.855 263.904 116.895ZM295.17 102.653C293.539 101.125 292.286 100.013 290.906 98.2317C283.077 105.794 273.613 115.138 266.404 123.119L263.904 123.923C256.952 121.467 245.153 113.424 238.762 112.141C236.826 110.651 235.907 109.872 233.591 108.982C230.038 118.315 225.967 129.142 221.876 138.274C217.813 139.616 210.817 140.671 206.391 141.724C207.528 143.691 208.226 144.57 209.807 146.235C211.702 151.617 217.938 160.662 220.928 166.013C271.933 140.675 322.202 138.528 373.12 168.775C376.841 170.985 380.308 173.999 384.003 176.307C385.894 167.417 387.024 158.014 388.811 149.032L389.638 144.168C387.076 143.709 382.894 143.445 380.212 143.211L362.012 141.724C361.668 142.546 361.274 143.359 360.897 144.168C359.007 144.231 357.21 144.193 356.44 142.195C353.295 134.03 349.873 125.524 346.906 117.324C346.323 115.295 346.139 114.245 345.835 112.141C340.959 113.527 336.267 115.493 331.53 117.318L316.198 123.119C315.026 123.512 313.99 123.914 312.792 123.666C311.03 122.466 296.268 104.634 295.17 102.653ZM72.5531 116.07C65.4544 117.191 68.9517 123.356 70.9028 127.338C81.3248 148.607 98.9209 178.829 120.435 191.041C121.564 190.598 122.823 190.136 123.916 189.635C135.743 185.43 145.428 174.449 148.479 162.425C127.477 152.479 111.953 146.316 92.6388 131.898C89.5548 129.595 86.4201 127.052 83.2831 124.831C82.447 123.367 74.6693 116.46 72.5531 116.07ZM193.807 138.274C179.425 130.845 166.955 136.148 158.975 149.962C156.102 154.936 155.484 161.176 153.726 166.563C146.669 189.462 130.327 193.746 111.024 200.276C112.601 202.173 113.18 202.859 114.059 205.256C117.39 228.595 94.1354 250.617 75.8878 237.315C74.744 235.903 74.0203 235.454 72.5531 234.388C70.0353 235.664 66.4796 238.56 64.1814 240.365C44.2132 256.043 34.874 270.559 47.4657 295.25C48.9059 298.074 53.0189 304.523 55.1011 306.763C56.8377 306.718 58.4244 306.727 60.1622 306.763C74.6285 302.468 83.931 301.671 98.2516 293.197C101.869 291.282 104.847 288.165 108.496 286.377C110.918 285.19 113.113 289.503 111.719 290.881C100.348 302.118 80.9037 308.883 65.9865 311.753C64.2506 312.2 61.9871 312.331 60.1622 312.495C62.6544 316.346 66.3182 319.105 70.3967 321.085C85.5376 328.435 90.7732 319.151 102.981 312.493C110.045 308.641 118.42 305.623 125.995 303.113C127.519 303.067 136.135 300.735 137.937 300.254C141.018 299.643 145.212 299.229 148.479 298.726C154.058 298.053 159.754 297.848 165.294 297.09C167.421 296.945 169.735 296.67 171.872 296.46C176.087 296.585 183.199 294.81 187.14 293.303C190.904 292.29 192.544 291.487 195.825 289.43C199.727 288.055 207.377 281.751 210.368 278.804C212.236 277.553 214.238 274.907 215.468 273.045C219.02 268.47 221.921 263.338 223.747 257.832C224.725 255.295 225.603 252.78 226.501 250.216C228.06 246.952 230.037 236.939 230.23 233.231C230.159 232.77 230.231 227.343 230.23 226.459C230.284 221.479 229.819 214.697 228.857 209.768C228.529 207.885 228.114 205.805 227.678 203.947C227.685 201.703 223.833 189.754 222.862 187.352C221.854 184.482 220.895 182.304 220.088 179.318C218.171 175.978 215.814 170.964 213.945 167.31C212.74 164.455 211.757 161.832 209.807 159.396C207.604 155.776 205.541 152.476 203.082 149.032C201.744 146.527 198.998 142.527 196.961 140.574C195.712 139.496 195.181 139.142 193.807 138.274ZM37.4984 157.698C21.2352 154.009 51.6349 200.397 53.9235 203.651C58.2868 209.853 77.6503 233.51 84.2721 234.505C86.1479 234.787 88.1516 234.616 90.0258 234.388C99.3854 231.993 105.989 224.899 107.864 215.381C110.311 202.955 103.922 202.821 94.8217 198.355C74.0975 188.505 60.8093 178.428 43.8154 164.099C43.0093 162.924 38.8605 159.232 37.4984 157.698ZM223.747 172.28C224.297 173.781 224.615 174.316 225.396 175.659C236.38 205.179 242.819 232.214 228.864 262.948C227.221 266.566 223.926 271.515 222.862 274.572C221.593 276.081 220.901 276.935 220.088 278.804L220.508 278.928C225.483 280.429 230.689 283.319 235.754 284.988C269.029 295.958 284.954 287.436 310.555 269.507C331.908 254.953 362.3 255.881 379.468 276.321C382.337 279.737 384.963 283.484 388.017 286.749C406.65 306.666 431.742 317.85 458.793 310.957C461.905 310.164 465.249 309.083 468.364 308.621C465.858 307.733 464.514 307.296 461.925 306.763C434.77 297.838 431.516 276.117 424.431 252.011C420.378 238.219 401.573 193.252 386.521 188.796C385.752 187.272 385.326 186.161 384.003 185.092C348.133 150.691 283.05 144.937 238.374 164.666C233.139 166.978 228.187 168.588 223.747 172.28ZM230.23 289.43C226.123 288.894 219.092 285.45 215.468 283.264C195.78 299.884 184.756 303.487 157.797 304.236C155.674 304.318 154.029 304.317 151.905 304.236C160.375 316.367 178.449 331.765 191.412 338.723C190.658 336.336 190.286 334.878 189.973 332.372C190.849 329.272 194.252 325.811 196.391 330.238C196.907 331.304 196.575 332.926 196.961 334.231C198.028 339.979 200.314 341.36 202.993 346.111C203.528 347.061 198.065 353.909 197.505 355.015C192.448 363.15 188.266 371.861 184.276 380.476C166.462 418.94 199.564 408.686 219.915 410.95C250.357 414.336 236.431 385.27 241.85 371.966C244.324 365.892 254.425 358.05 251.982 349.183C250.213 342.759 244.951 338.865 240.643 334.231C240.237 331.458 240.348 330.474 243.191 329.718C250.064 329.702 260.322 347.956 258.466 355.511L258.466 356.188L257.161 360.175C261.499 359.952 266.877 360.462 271.248 360.925C296.799 360.973 314.125 360.213 338.974 352.86C337.714 351.297 336.817 350.262 335.421 348.827C323.682 336.141 331.915 328.258 336.795 335.05C334.533 338.222 337.162 341.625 340.004 343.552C342.439 346.236 345.939 349.978 348.001 352.86C347.309 354.167 346.618 355.542 345.835 356.791C337.473 366.094 314.544 407.155 341.136 410.704C347.057 411.495 374.662 411.506 379.769 410.647C396.315 407.866 389.168 386.41 392.024 375.257C395.292 362.492 405.562 356.427 395.527 343.552C394.068 339.502 388.884 317.84 398.895 321.915C400.781 324.051 399.213 331.241 399.721 335.05C400.145 336.583 400.676 338.178 401.158 339.704C426.534 337.4 451.225 330.73 470.884 314.099C466.45 315.775 462.006 316.623 457.79 318.179C455.155 318.178 452.272 318.804 449.611 319.014C421.669 321.22 399.867 309.745 381.329 289.12C375.456 282.128 370.684 275.214 362.346 270.96C328.061 253.115 309.46 284.754 281.684 293.078C267.061 297.46 243.886 296.824 230.23 289.43ZM168.696 330.862C167.533 329.747 166.52 328.827 165.294 327.782C161.859 334.166 158.335 340.386 154.73 346.654C151.65 352.283 145.964 358.764 143.791 364.704C141.116 372.012 145.015 382.672 152.238 385.961C158.161 388.659 167.865 387.587 174.557 387.623C175.025 385.687 175.399 384.625 176.11 382.75C181.66 368.924 187.388 360.104 194.743 347.855C185.577 342.3 177.254 336.085 168.696 330.862ZM309.596 365.933C307.411 366.057 306.008 366.228 303.84 366.572C297.301 375.547 292.672 385.9 303.21 394.305C307.756 397.931 316.54 396.708 322.131 396.772C321.988 395.01 321.76 393.715 322.131 391.986C323.553 383.45 330.957 368.671 335.421 360.925C328.632 361.907 316.468 364.279 309.596 365.933Z"/><path fill="#50C0BB" transform="scale(2 2)" d="M295.17 102.653C296.268 104.634 311.03 122.466 312.792 123.666C313.99 123.914 315.026 123.512 316.198 123.119C316.369 129.23 318.607 128.344 323.601 126.368C331.323 123.312 339.22 120.459 346.906 117.324C349.873 125.524 353.295 134.03 356.44 142.195C357.21 144.193 359.007 144.231 360.897 144.168C360.794 148.175 368.988 147.206 371.727 147.446C377.424 147.944 383.26 148.057 388.811 149.032C387.024 158.014 385.894 167.417 384.003 176.307C380.308 173.999 376.841 170.985 373.12 168.775C322.202 138.528 271.933 140.675 220.928 166.013C217.938 160.662 211.702 151.617 209.807 146.235C213.484 145.694 222.066 144.435 225.396 143.061C230.663 135.816 233.917 120.705 238.762 112.141C245.153 113.424 256.952 121.467 263.904 123.923L266.404 123.119C267.301 124.345 267.954 125.493 269.355 126.049C272.7 125.998 289.542 105.996 295.17 102.653Z"/><path fill="#EEE6CB" transform="scale(2 2)" d="M72.5531 116.07C74.6693 116.46 82.447 123.367 83.2831 124.831C86.4201 127.052 89.5548 129.595 92.6388 131.898C111.953 146.316 127.477 152.479 148.479 162.425C145.428 174.449 135.743 185.43 123.916 189.635C123.05 188.778 121.816 187.821 120.858 187.034C108.479 176.866 85.7233 150.911 79.3552 135.512C78.2324 134.34 72.4472 121.725 71.7835 119.641C71.6067 119.085 72.4025 116.611 72.5531 116.07Z"/><path fill="#F68B72" transform="scale(2 2)" d="M193.807 138.274C195.181 139.142 195.712 139.496 196.961 140.574C186.887 145.397 192.413 157.14 203.082 149.032C205.541 152.476 207.604 155.776 209.807 159.396C193.351 161.562 208.44 177.266 213.945 167.31C215.814 170.964 218.171 175.978 220.088 179.318C210.28 178.32 208.701 188.443 217.4 191.041C219.881 190.234 221.169 189.441 222.862 187.352C223.833 189.754 227.685 201.703 227.678 203.947C222.123 197.579 214.019 205.645 220.189 211.557C223.04 214.288 226.51 212.098 228.857 209.768C229.819 214.697 230.284 221.479 230.23 226.459C216.045 214.18 219.189 244.359 230.23 233.231C230.037 236.939 228.06 246.952 226.501 250.216C216.66 241.19 208.74 258.502 223.747 257.832C221.921 263.338 219.02 268.47 215.468 273.045C206.751 259.557 198.184 278.089 209.986 278.783L210.368 278.804C207.377 281.751 199.727 288.055 195.825 289.43C193.885 275.324 177.659 287.438 187.14 293.303C183.199 294.81 176.087 296.585 171.872 296.46C175.786 285.213 155.345 286.924 161.993 297.09L165.294 297.09C159.754 297.848 154.058 298.053 148.479 298.726C151.111 287.055 133.619 290.146 137.937 300.254C136.135 300.735 127.519 303.067 125.995 303.113C126.755 300.768 126.166 297.149 123.578 296.433C118.64 295.066 117.379 298.648 114.534 300.511C111.307 302.624 106.433 303.908 103.089 306.163C94.449 311.068 85.9719 320.48 75.6294 317.567C72.4603 316.674 67.7276 314.659 65.9865 311.753C80.9037 308.883 100.348 302.118 111.719 290.881C113.113 289.503 110.918 285.19 108.496 286.377C104.847 288.165 101.869 291.282 98.2516 293.197C83.931 301.671 74.6285 302.468 60.1622 306.763C52.5196 291.44 37.4795 278.931 50.5476 259.749C51.2619 267.728 55.9961 263.061 61.2393 263.389C65.5657 263.66 68.3149 268.383 67.5859 272.383C66.0904 279.35 60.1051 277.14 55.5134 279.246C53.7638 280.048 55.3754 283.313 56.2203 283.721C67.9036 289.359 81.3287 270.79 68.808 260.175C63.6352 255.701 58.1372 257.183 52.0504 257.832C55.9331 251.884 69.8048 242.152 75.8878 237.315C94.1354 250.617 117.39 228.595 114.059 205.256C134.909 197.942 155.188 190.217 159.816 164.802C163.765 143.112 174.319 138.973 193.317 138.295L193.807 138.274ZM146.433 216.827C136.447 218.306 129.561 227.614 131.066 237.596C132.571 247.578 141.896 254.441 151.875 252.91C161.816 251.384 168.648 242.101 167.149 232.155C165.649 222.209 156.383 215.353 146.433 216.827Z"/><path fill="#F68B72" transform="scale(2 2)" d="M232.518 172.28C272.482 154.809 309.342 152.01 351.229 168.277C360.879 172.025 376.632 179.496 384.003 186.606C385.317 187.476 385.712 188.607 386.521 188.796C401.573 193.252 420.378 238.219 424.431 252.011C431.516 276.117 434.77 297.838 461.925 306.763C457.138 308.472 446.652 308.739 441.609 308.653C417.643 308.209 397.933 292.953 383.925 274.705C367.908 252.815 332.1 249.033 310.464 264.142C281.234 284.553 273.209 288.187 239.546 280.937C240.625 280.343 241.739 277.339 242.354 276.112C256.746 247.441 252.856 197.774 232.518 172.28ZM306.714 169.104C300.163 170.184 295.702 176.333 296.706 182.896C297.71 189.458 303.806 193.992 310.38 193.065C314.701 192.455 318.361 189.569 319.962 185.51C321.564 181.45 320.859 176.843 318.117 173.447C315.375 170.052 311.019 168.393 306.714 169.104ZM366.601 189.033C359.766 189.899 354.94 196.161 355.843 202.992C356.747 209.823 363.036 214.615 369.861 213.674C376.634 212.74 381.381 206.51 380.484 199.732C379.587 192.954 373.384 188.174 366.601 189.033ZM264.689 193.784C258.765 194.641 254.666 200.15 255.546 206.07C256.427 211.99 261.951 216.068 267.868 215.164C273.752 214.265 277.802 208.778 276.926 202.891C276.051 197.003 270.58 192.932 264.689 193.784ZM323.076 214.81C316.47 215.63 311.788 221.661 312.63 228.264C313.473 234.867 319.519 239.529 326.119 238.665C332.688 237.804 337.324 231.792 336.485 225.22C335.647 218.649 329.651 213.993 323.076 214.81ZM395.853 236.663C391.57 237.112 387.858 239.828 386.135 243.775C384.411 247.723 384.942 252.291 387.525 255.738C390.108 259.184 394.344 260.977 398.616 260.431C405.118 259.6 409.741 253.692 408.984 247.181C408.227 240.67 402.372 235.981 395.853 236.663ZM275.352 242.765C270.942 243.302 267.16 246.167 265.449 250.267C263.737 254.367 264.36 259.07 267.079 262.584C269.799 266.097 274.196 267.879 278.594 267.25C285.296 266.291 289.977 260.115 289.089 253.403C288.2 246.691 282.073 241.946 275.352 242.765ZM415.58 274.355C410.144 274.944 406.205 279.815 406.768 285.254C407.331 290.693 412.182 294.655 417.624 294.119C423.104 293.579 427.099 288.686 426.532 283.21C425.966 277.733 421.054 273.762 415.58 274.355Z"/><path fill="#F5E6C7" transform="scale(2 2)" d="M37.4984 157.698C38.8605 159.232 43.0093 162.924 43.8154 164.099L43.6793 164.5L42.7941 163.975L42.9424 164.74C41.8184 164.653 39.8397 162.541 38.2222 162.056C37.918 163.406 39.2616 164.847 38.6665 166.013C37.3658 162.675 37.3527 161.192 37.4984 157.698Z"/><path fill="#EEE6CB" transform="scale(2 2)" d="M43.8154 164.099C60.8093 178.428 74.0975 188.505 94.8217 198.355C103.922 202.821 110.311 202.955 107.864 215.381C105.989 224.899 99.3854 231.993 90.0258 234.388C89.0916 232.64 80.8263 227.023 78.3434 224.727C59.5007 207.306 48.536 189.451 38.6665 166.013C39.2616 164.847 37.918 163.406 38.2222 162.056C39.8397 162.541 41.8184 164.653 42.9424 164.74L42.7941 163.975L43.6793 164.5L43.8154 164.099Z"/><path fill="#333332" transform="scale(2 2)" d="M310.38 193.065C303.806 193.992 297.71 189.458 296.706 182.896C295.702 176.333 300.163 170.184 306.714 169.104C311.019 168.393 315.375 170.052 318.117 173.447C320.859 176.843 321.564 181.45 319.962 185.51C318.361 189.569 314.701 192.455 310.38 193.065ZM307.333 175.653C304.309 176.423 302.485 179.5 303.26 182.522C304.035 185.544 307.115 187.363 310.136 186.583C313.149 185.805 314.964 182.733 314.19 179.719C313.417 176.704 310.349 174.885 307.333 175.653Z"/><path fill="#FD7069" transform="scale(2 2)" d="M225.396 175.659C227.794 174.193 229.947 173.348 232.518 172.28C252.856 197.774 256.746 247.441 242.354 276.112C241.739 277.339 240.625 280.343 239.546 280.937C235.354 279.932 226.03 277.073 222.862 274.572C223.926 271.515 227.221 266.566 228.864 262.948C242.819 232.214 236.38 205.179 225.396 175.659Z"/><path fill="#50C0BB" transform="scale(2 2)" d="M310.136 186.583C307.115 187.363 304.035 185.544 303.26 182.522C302.485 179.5 304.309 176.423 307.333 175.653C310.349 174.885 313.417 176.704 314.19 179.719C314.964 182.733 313.149 185.805 310.136 186.583Z"/><path fill="#F9E8E5" transform="scale(2 2)" d="M384.003 185.092C385.326 186.161 385.752 187.272 386.521 188.796C385.712 188.607 385.317 187.476 384.003 186.606L384.003 185.092Z"/><path fill="#333332" transform="scale(2 2)" d="M369.861 213.674C363.036 214.615 356.747 209.823 355.843 202.992C354.94 196.161 359.766 189.899 366.601 189.033C373.384 188.174 379.587 192.954 380.484 199.732C381.381 206.51 376.634 212.74 369.861 213.674ZM368.315 195.757C359.175 196.89 361.523 206.356 368.315 207.608C376.318 205.725 374.837 195.407 368.315 195.757Z"/><path fill="#333332" transform="scale(2 2)" d="M267.868 215.164C261.951 216.068 256.427 211.99 255.546 206.07C254.666 200.15 258.765 194.641 264.689 193.784C270.58 192.932 276.051 197.003 276.926 202.891C277.802 208.778 273.752 214.265 267.868 215.164ZM264.516 200.457C262.333 201.393 261.313 203.913 262.229 206.104C263.144 208.296 265.655 209.34 267.854 208.445C270.083 207.538 271.145 204.986 270.217 202.766C269.289 200.545 266.728 199.508 264.516 200.457Z"/><path fill="#50C0BB" transform="scale(2 2)" d="M368.315 207.608C361.523 206.356 359.175 196.89 368.315 195.757C374.837 195.407 376.318 205.725 368.315 207.608Z"/><path fill="#50C0BB" transform="scale(2 2)" d="M267.854 208.445C265.655 209.34 263.144 208.296 262.229 206.104C261.313 203.913 262.333 201.393 264.516 200.457C266.728 199.508 269.289 200.545 270.217 202.766C271.145 204.986 270.083 207.538 267.854 208.445Z"/><path fill="#333332" transform="scale(2 2)" d="M326.119 238.665C319.519 239.529 313.473 234.867 312.63 228.264C311.788 221.661 316.47 215.63 323.076 214.81C329.651 213.993 335.647 218.649 336.485 225.22C337.324 231.792 332.688 237.804 326.119 238.665ZM323.077 221.512C316.156 224.442 318.453 232.049 325.971 231.808C331.817 229.297 330.424 221.141 323.077 221.512Z"/><path fill="#333332" transform="scale(2 2)" d="M151.875 252.91C141.896 254.441 132.571 247.578 131.066 237.596C129.561 227.614 136.447 218.306 146.433 216.827C156.383 215.353 165.649 222.209 167.149 232.155C168.648 242.101 161.816 251.384 151.875 252.91ZM147.492 223.018C140.993 223.858 136.397 229.797 137.215 236.299C138.032 242.801 143.955 247.417 150.46 246.622C156.996 245.823 161.64 239.865 160.818 233.331C159.997 226.798 154.023 222.175 147.492 223.018Z"/><path fill="#50C0BB" transform="scale(2 2)" d="M325.971 231.808C318.453 232.049 316.156 224.442 323.077 221.512C330.424 221.141 331.817 229.297 325.971 231.808Z"/><path fill="white" transform="scale(2 2)" d="M150.46 246.622C143.955 247.417 138.032 242.801 137.215 236.299C136.397 229.797 140.993 223.858 147.492 223.018C154.023 222.175 159.997 226.798 160.818 233.331C161.64 239.865 156.996 245.823 150.46 246.622ZM147.383 228.352C143.908 229.287 141.796 232.806 142.606 236.313C143.416 239.819 146.856 242.056 150.39 241.373C152.791 240.909 154.748 239.17 155.491 236.839C156.234 234.509 155.645 231.959 153.955 230.19C152.266 228.421 149.745 227.716 147.383 228.352Z"/><path fill="#333332" transform="scale(2 2)" d="M150.39 241.373C146.856 242.056 143.416 239.819 142.606 236.313C141.796 232.806 143.908 229.287 147.383 228.352C149.745 227.716 152.266 228.421 153.955 230.19C155.645 231.959 156.234 234.509 155.491 236.839C154.748 239.17 152.791 240.909 150.39 241.373Z"/><path fill="#333332" transform="scale(2 2)" d="M398.616 260.431C394.344 260.977 390.108 259.184 387.525 255.738C384.942 252.291 384.411 247.723 386.135 243.775C387.858 239.828 391.57 237.112 395.853 236.663C402.372 235.981 408.227 240.67 408.984 247.181C409.741 253.692 405.118 259.6 398.616 260.431ZM395.537 242.863C392.513 243.63 390.657 246.675 391.363 249.715C392.068 252.754 395.074 254.671 398.127 254.028C400.158 253.601 401.8 252.108 402.418 250.127C403.036 248.145 402.535 245.984 401.107 244.477C399.68 242.97 397.549 242.353 395.537 242.863Z"/><path fill="#333332" transform="scale(2 2)" d="M278.594 267.25C274.196 267.879 269.799 266.097 267.079 262.584C264.36 259.07 263.737 254.367 265.449 250.267C267.16 246.167 270.942 243.302 275.352 242.765C282.073 241.946 288.2 246.691 289.089 253.403C289.977 260.115 285.296 266.291 278.594 267.25ZM274.855 249.475C271.814 250.56 270.2 253.878 271.222 256.94C272.244 260.003 275.527 261.685 278.61 260.727C280.662 260.089 282.208 258.392 282.653 256.29C283.097 254.187 282.371 252.009 280.753 250.595C279.135 249.181 276.878 248.753 274.855 249.475Z"/><path fill="#50C0BB" transform="scale(2 2)" d="M398.127 254.028C395.074 254.671 392.068 252.754 391.363 249.715C390.657 246.675 392.513 243.63 395.537 242.863C397.549 242.353 399.68 242.97 401.107 244.477C402.535 245.984 403.036 248.145 402.418 250.127C401.8 252.108 400.158 253.601 398.127 254.028Z"/><path fill="#50C0BB" transform="scale(2 2)" d="M278.61 260.727C275.527 261.685 272.244 260.003 271.222 256.94C270.2 253.878 271.814 250.56 274.855 249.475C276.878 248.753 279.135 249.181 280.753 250.595C282.371 252.009 283.097 254.187 282.653 256.29C282.208 258.392 280.662 260.089 278.61 260.727Z"/><path fill="white" transform="scale(2 2)" d="M220.088 278.804C220.901 276.935 221.593 276.081 222.862 274.572C226.03 277.073 235.354 279.932 239.546 280.937C273.209 288.187 281.234 284.553 310.464 264.142C332.1 249.033 367.908 252.815 383.925 274.705C397.933 292.953 417.643 308.209 441.609 308.653C446.652 308.739 457.138 308.472 461.925 306.763C464.514 307.296 465.858 307.733 468.364 308.621C465.249 309.083 461.905 310.164 458.793 310.957C431.742 317.85 406.65 306.666 388.017 286.749C384.963 283.484 382.337 279.737 379.468 276.321C362.3 255.881 331.908 254.953 310.555 269.507C284.954 287.436 269.029 295.958 235.754 284.988C230.689 283.319 225.483 280.429 220.508 278.928L220.088 278.804Z"/><path fill="#333332" transform="scale(2 2)" d="M50.5476 259.749C50.8949 259.204 51.6171 258.365 52.0504 257.832C58.1372 257.183 63.6352 255.701 68.808 260.175C81.3287 270.79 67.9036 289.359 56.2203 283.721C55.3754 283.313 53.7638 280.048 55.5134 279.246C60.1051 277.14 66.0904 279.35 67.5859 272.383C68.3149 268.383 65.5657 263.66 61.2393 263.389C55.9961 263.061 51.2619 267.728 50.5476 259.749Z"/><path fill="#CDD07D" transform="scale(2 2)" d="M177.448 312.495C202.195 312.549 215.369 309.333 230.23 289.43C243.886 296.824 267.061 297.46 281.684 293.078C309.46 284.754 328.061 253.115 362.346 270.96C370.684 275.214 375.456 282.128 381.329 289.12C399.867 309.745 421.669 321.22 449.611 319.014C452.272 318.804 455.155 318.178 457.79 318.179C451.457 323.015 428.181 330.951 420.249 332.372C419.685 330.253 407.631 322.68 405.282 320.561C403.042 318.539 400.491 319.067 398.895 321.915C388.884 317.84 394.068 339.502 395.527 343.552C394.333 344.914 394.039 345.189 393.233 346.853C397.689 358.064 389.91 363.483 387.836 373.781C385.932 383.228 389.206 402.02 380.624 405.427C377.673 406.599 347.087 406.439 342.492 406.085C335.854 405.573 332.147 399.094 333.284 392.787C334.97 383.43 343.141 371.197 348.001 362.498C350.252 359.184 352.176 356.789 353.189 352.86C351.794 348.142 345.29 341.872 341.557 338.723C340.653 336.954 338.762 335.427 336.795 335.05C331.915 328.258 323.682 336.141 335.421 348.827C329.8 353.923 288.692 356.23 277.02 356.188C275.604 356.039 272.779 356.163 271.248 356.188C272.107 345.193 259.584 332.487 250.68 327.782C246.673 328.087 246.64 328.879 243.191 329.718C240.348 330.474 240.237 331.458 240.643 334.231L240.422 334.637C237.095 340.77 245.546 343.361 248.098 351.911C246.052 359.696 238.078 365.892 236.428 372.799C234.936 379.043 236.04 388.558 235.739 395.254C235.102 409.399 223.138 406.129 213.052 406.147C205.03 406.162 183.076 409.443 184.317 395.78C185.665 380.946 207.499 352.477 208.056 347.341C208.664 341.742 202.321 334.853 196.961 334.231C196.575 332.926 196.907 331.304 196.391 330.238C194.252 325.811 190.849 329.272 189.973 332.372C186.129 331.881 175.341 321.841 171.872 319.265C174.048 316.662 174.583 314.535 177.448 312.495Z"/><path fill="#333332" transform="scale(2 2)" d="M417.624 294.119C412.182 294.655 407.331 290.693 406.768 285.254C406.205 279.815 410.144 274.944 415.58 274.355C421.054 273.762 425.966 277.733 426.532 283.21C427.099 288.686 423.104 293.579 417.624 294.119ZM415.847 280.587C413.901 281.016 412.67 282.939 413.093 284.885C413.517 286.832 415.435 288.069 417.382 287.652C419.339 287.234 420.584 285.305 420.159 283.349C419.734 281.394 417.801 280.155 415.847 280.587Z"/><path fill="#50C0BB" transform="scale(2 2)" d="M417.382 287.652C415.435 288.069 413.517 286.832 413.093 284.885C412.67 282.939 413.901 281.016 415.847 280.587C417.801 280.155 419.734 281.394 420.159 283.349C420.584 285.305 419.339 287.234 417.382 287.652Z"/><path fill="#9BA13C" transform="scale(2 2)" d="M230.23 289.43C215.369 309.333 202.195 312.549 177.448 312.495C174.583 314.535 174.048 316.662 171.872 319.265C168.509 315.334 159.745 308.378 157.797 304.236C184.756 303.487 195.78 299.884 215.468 283.264C219.092 285.45 226.123 288.894 230.23 289.43Z"/><path fill="#9BA13C" transform="scale(2 2)" d="M398.895 321.915C400.491 319.067 403.042 318.539 405.282 320.561C407.631 322.68 419.685 330.253 420.249 332.372C416.315 332.906 402.803 335.554 399.721 335.05C399.213 331.241 400.781 324.051 398.895 321.915Z"/><path fill="#9BA13C" transform="scale(2 2)" d="M243.191 329.718C246.64 328.879 246.673 328.087 250.68 327.782C259.584 332.487 272.107 345.193 271.248 356.188C269.93 356.126 268.945 356.144 267.644 356.188C264.16 355.651 261.726 355.839 258.466 355.511C260.322 347.956 250.064 329.702 243.191 329.718Z"/><path fill="#9BA13C" transform="scale(2 2)" d="M168.696 330.862C177.254 336.085 185.577 342.3 194.743 347.855C187.388 360.104 181.66 368.924 176.11 382.75C165.669 383.59 143.06 384.875 148.395 367.23C150.983 358.671 163.922 342.108 168.696 330.862Z"/><path fill="white" transform="scale(2 2)" d="M341.557 338.723C345.29 341.872 351.794 348.142 353.189 352.86C352.176 356.789 350.252 359.184 348.001 362.498C348.413 360.403 350.451 358.423 350.616 356.816C348.156 356.496 349.057 356.43 347.92 354.873L347.63 354.989C346.964 355.969 346.831 356.167 345.835 356.791C346.618 355.542 347.309 354.167 348.001 352.86C345.939 349.978 342.439 346.236 340.004 343.552C342.102 344.34 342.525 345.988 343.701 346.42L343.678 346.38L343.494 346.437C343.901 344.778 339.946 343.997 343.282 342.084L343.539 341.94C343.054 340.776 342.093 340.227 341.557 338.723Z"/><path fill="white" transform="scale(2 2)" d="M277.02 356.188C288.692 356.23 329.8 353.923 335.421 348.827C336.817 350.262 337.714 351.297 338.974 352.86C314.125 360.213 296.799 360.973 271.248 360.925L271.248 356.188C273.271 356.243 275.004 356.286 277.02 356.188Z"/><path fill="#EEE6CB" transform="scale(2 2)" d="M258.466 355.511C261.726 355.839 264.16 355.651 267.644 356.188C264.446 356.56 261.171 357.681 258.466 356.188L258.466 355.511Z"/><path fill="#C4C4C4" transform="scale(2 2)" d="M258.466 356.188C261.171 357.681 264.446 356.56 267.644 356.188C268.945 356.144 269.93 356.126 271.248 356.188C272.779 356.163 275.604 356.039 277.02 356.188C275.004 356.286 273.271 356.243 271.248 356.188L271.248 360.925C266.877 360.462 261.499 359.952 257.161 360.175L258.466 356.188Z"/><path fill="#9BA13C" transform="scale(2 2)" d="M309.596 365.933C316.468 364.279 328.632 361.907 335.421 360.925C330.957 368.671 323.553 383.45 322.131 391.986C299.803 392.134 295.927 386.729 309.596 365.933Z"/></svg>