<?xml version="1.0" encoding="utf-8" ?><svg xmlns="http://www.w3.org/2000/svg" xmlns:xlink="http://www.w3.org/1999/xlink" width="1024" height="1024" viewBox="0 0 1024 1024"><path fill="#3C3C3B" transform="scale(2 2)" d="M246.005 133.946C248.407 130.003 251.736 126.488 254.55 122.809C260.031 115.858 267.049 103.68 275.747 101.837C285.479 101.014 289.249 109.767 293.61 116.763L303.538 132.351C305.288 135.106 307.907 139.515 309.825 142.009L310.026 142.266C321.754 135.769 353.398 111.015 359.771 134.914C361.12 139.974 361.824 145.252 362.746 150.401L366.876 172.652C379.346 170.794 403.319 163.568 411.663 174.665C416.36 180.912 407.79 213.826 406.354 222.456C424.605 223.585 443.851 226.972 458.058 239.662C487.747 266.188 483.516 317.069 436.821 317.647C421.122 317.841 403.77 308.893 392.702 298.459C379.514 311.703 369.321 320.565 352.979 330.012C353.403 344.055 350.586 355.545 350.339 368.256C376.18 374.392 374.412 402.943 355.053 405.937C350.647 406.619 327.039 406.588 323.031 405.715C318.113 404.644 314.437 401.399 311.799 397.237C303.412 397.976 289.932 395.88 287.328 386.25C284.42 375.5 279.852 360.624 279.731 349.571C267.991 350.034 242.287 345.706 230.982 342.523C229.591 349.66 227.2 362.951 224.5 369.404C238.337 370.918 247.362 382.825 241.797 396.237C239.591 401.562 234.149 406.038 228.333 406.168C213.186 406.385 186.431 411.381 183.208 391.529C181.628 381.793 179.782 372.086 177.889 362.405C175.706 349.451 179.5 344.192 184.435 332.536C182.16 330.227 178.874 326.231 177.35 323.481C147.307 345.962 111.664 372.856 71.9793 367.655C57.8777 366.2 44.8162 358.838 35.9063 347.865C33.2866 344.638 33.0123 341.634 36.6001 339.122C62.5718 338.405 79.582 333.72 101.259 317.46C91.9986 308.795 79.4481 295.706 71.3043 286.178C63.7376 277.325 71.933 268.809 79.2083 264.003C87.4545 258.557 95.6635 253.03 103.799 247.427C100.233 240.276 88.7212 220.346 87.3096 213.114C84.4884 198.49 97.7755 196.707 107.678 194.909L131.362 190.662L131.34 169.15C131.293 142.873 134.988 140.077 161.828 146.674C168.461 148.381 175.091 150.172 181.679 152.039C185.863 141.593 190.434 126.977 195.43 117.381C206.115 96.8579 234.03 126.587 246.005 133.946ZM170.992 273.995C171.067 276.46 170.998 279.34 170.992 281.836C171.713 296.317 177.456 310.86 186.213 322.398C187.998 324.75 191.902 327.864 192.616 330.687C193.561 334.417 185.912 347.414 184.852 352.265C184.102 355.695 190.365 388.076 191.926 392.358C195.19 401.312 208.535 398.275 216.263 398.263C221.533 398.255 228.026 399.603 232.589 396.237C236.397 392.474 236.644 387 233.719 382.65C224.038 368.25 212.455 388.76 218.546 362.722C222.081 347.61 225.975 331.927 224.207 316.31C223.93 313.862 223.349 311.281 223.578 308.82C235.584 299.633 231.498 328.426 232.004 334.521C253.684 340.558 281.759 343.546 304.211 340.933C304.293 336.958 304.13 328.017 307.101 325.258C309.416 323.108 313.159 325.683 313.153 328.505C313.148 330.367 312.701 332.327 312.471 334.179C311.095 345.275 310.329 394.392 324.641 397.882C329.052 398.958 353.026 399.678 358.076 396.237C368.124 388.899 358.428 375.588 346.44 376.102C339.843 376.384 340.851 375.512 341.996 369.075C343.76 359.161 347.468 328.231 343.418 318.645C344.15 312.88 350.913 310.79 352.215 321.344C364.564 315.032 379.806 300.398 389.152 290.553C390.664 288.969 392.662 287.891 394.62 289.644C412.232 305.411 436.194 317.794 458.27 303.326C437.985 303.326 422.048 285.991 433.185 284.534C435.418 284.472 451.869 302.734 466.238 294.431C470.084 288.061 469.64 275.871 467.832 269.016C459.981 239.253 429.635 230.807 402.351 230.592C391.041 230.503 392.618 229.186 383.411 235.844C367.811 247.127 358.256 233.935 348.752 224.402C302.535 176.708 222.433 170.903 175.865 221.788C135.273 266.143 140.027 321.647 66.8822 343.549L59.2528 345.318C55.6524 345.424 50.1683 346.336 45.8074 346.54C50.5552 351.565 55.3823 354.756 62.0311 357.134C101.084 371.102 143.661 339.636 173.11 316.462C168.015 306.156 166.352 301.836 163.788 290.553C163.011 286.227 162.611 280.736 162.804 276.356C163.031 271.218 167.736 269.51 170.992 273.995ZM276.561 109.802C272.143 111.172 255.69 133.966 252.144 138.836C251.21 140.12 252.678 143.254 256.385 140.151C260.826 136.433 273.239 116.39 276.925 114.523C278.14 114.614 279.103 116.304 279.731 117.314C285.688 127.311 302.473 156.493 301.71 144.673C301.688 144.331 283.368 110.113 276.561 109.802ZM207.172 118.073C202.658 118.854 201.838 121.463 200.424 125.303C200.171 125.989 183.399 164.181 192.069 157.499C193.968 156.035 195.871 149.766 196.712 147.523L202.536 131.78C203.5 129.109 204.736 122.277 208.099 122.061C217.09 126.77 230.407 141.078 238.564 143.899C239.643 143.4 240.014 141.692 240.366 140.61C236.204 136.765 212.423 118.129 207.172 118.073ZM276.561 127.426C270.459 135.145 264.735 143.661 258.546 151.103C258.332 160.031 259.63 170.049 259.285 178.218C266.968 178.179 270.939 178.7 278.441 179.626C281.815 180.203 285.608 180.812 288.934 181.55C290.482 172.608 292.648 163.999 294.432 155.181C293.32 153.221 277.239 127.9 276.561 127.426ZM345.096 132.317C337.883 134.72 321.923 144.767 315.103 148.797C312.088 150.579 313.32 154.417 315.593 153.3C321.459 150.414 343.966 135.128 347.876 137.393C349.02 149.249 352.891 162.644 354.91 174.575C356.345 174.48 357.62 174.533 359.05 174.575L354.889 151.959C353.745 145.671 353.499 131.554 345.096 132.317ZM210.309 133.946C207.105 140.523 201.991 154.485 200.039 161.509C203.029 168.597 208.15 180.463 211.865 186.831C215.174 185.914 221.663 183.155 224.5 183.241C229.047 181.169 234.067 179.938 239.056 179.626C238.628 171.627 237.941 162.194 238.031 154.219C232.842 149.512 214.739 135.565 210.309 133.946ZM341.469 148.001C332.029 152.687 322.969 158.55 313.403 163.327C312.586 166.091 311.949 169.67 311.36 172.537L308.313 187.725C312.468 189.399 318.736 192.406 322.664 194.648C326.604 196.904 330.952 199.499 334.478 202.353C338.874 195.37 343.567 188.592 347.876 181.55C347.163 177.55 342.351 149.349 341.469 148.001ZM246.455 149.231C245.265 150.893 246.774 173.423 246.455 178.218C247.971 178.222 249.629 178.261 251.131 178.218L251.648 177.825C251.004 169.001 250.799 160.13 250.194 151.308C250.035 148.988 248.294 149.233 246.455 149.231ZM144.744 151.103C141.174 152.171 139.378 153.669 139.349 157.72C139.269 168.994 138.909 180.459 139.491 191.693C139.57 193.22 141.681 193.449 142.88 193.032C143.884 191.692 143.534 184.432 143.53 182.272L143.454 164.879C143.421 162.42 142.55 156.347 144.744 155.181C150.306 155.312 172.46 162.267 179.381 164.386C179.403 162.96 179.472 161.334 179.381 159.926L157.937 153.792C154.803 152.924 147.566 150.541 144.744 151.103ZM303.139 154.219C301.709 156.519 297.431 178.682 296.268 183.241L300.345 184.946C300.988 184.269 306.277 159.675 306.436 156.574C306.55 154.332 305.093 154.16 303.139 154.219ZM151.194 164.386C151.186 174.426 151.085 184.62 151.194 194.648C153.746 196.725 169.47 212.352 170.992 214.777C174.509 212.323 179.391 207.203 183.264 204.125C186.777 201.353 190.206 198.771 193.807 196.111C191.253 190.299 184.558 178.359 183.264 172.652C174.099 171.243 158.039 164.836 151.194 164.386ZM192.631 167.051L188.723 167.051C190.655 171.035 198.843 189.189 200.743 191.213L201.053 191.242C201.452 191.177 204.496 190.727 204.703 190.662C202.95 185.822 195.929 170.683 193.49 167.043L193.022 166.859L192.631 167.051ZM398.115 176.6C389.219 177.616 377.777 179.106 368.941 180.589C368.906 181.804 368.778 183.803 368.941 184.946C377.488 184.136 393.654 180.794 401.514 181.55C400.627 185.929 399.365 193.742 398.115 197.554C397.539 205.115 395.023 213.941 394.067 221.744L398.115 221.744L403.95 191.552C404.646 187.948 405.886 184.19 406.354 180.589C404.298 177.302 402.177 175.836 398.115 176.6ZM356.922 183.241L348.193 196.115C346.161 199.066 342.671 203.657 341.469 206.785C342.696 208.438 343.19 208.723 345.096 209.531C349.567 202.65 353.699 195.648 358.627 188.993C360.533 186.419 360.705 183.961 356.922 183.241ZM391.517 189.622C383.478 190.383 374.885 191.527 366.876 192.724C362.747 196.52 353.625 209.535 350.339 214.777C353.993 217.799 355.933 220.767 359.05 223.799C369.414 235.59 374.161 233.977 385.366 223.799C385.847 219.481 392.05 191.083 391.797 189.745L391.517 189.622ZM133.312 198.608C127.542 199.335 91.6862 202.096 95.1586 211.585C96.3882 214.946 109.308 243.132 111.218 244.72C112.062 244.722 112.054 244.702 112.875 244.467C116.284 243.501 113.014 240.084 111.389 236.676L103.813 221.019C97.4653 208.121 96.3492 209.422 110.503 206.84L127.724 203.718C129.807 203.342 132.176 203.01 134.18 202.438C136.106 201.888 135.859 198.448 133.312 198.608ZM146.211 201.434C139.265 204.592 155.734 214.831 158.662 218.981C159.123 219.635 163.193 223.59 163.788 223.799C164.648 222.888 165.386 222.119 166.163 221.125C163.923 218.332 148.755 202.395 146.211 201.434ZM137.096 210.339C128.076 211.739 119.178 213.38 110.105 214.777C111.903 221.827 120.813 238.387 124.99 245.746C126.515 248.433 132.753 250.575 135.687 251.843C138.351 252.975 140.881 254.159 143.5 255.387C148.446 247.138 152.741 238.049 158.87 230.507C156.285 227.514 139.783 209.834 137.096 210.339ZM114.406 251.843C107.058 253.064 87.579 267.811 80.7064 272.705C77.2252 275.184 75.1087 278.671 78.502 282.318C86.8352 291.275 98.1683 304.406 107.214 312.169C108.113 311.342 109.256 310.342 110.105 309.498C106.186 304.46 100.393 299.158 95.9538 294.431C94.0992 292.513 81.3001 280.06 81.3835 278.389C81.5076 275.902 86.5328 273.764 88.3356 272.638C92.9845 269.735 110.852 256.01 115.222 256.588C119.589 257.166 132.979 264.281 138.177 266.292C138.816 264.876 138.941 264.029 139.249 262.532C136.224 260.711 116.517 251.525 114.406 251.843ZM114.406 265.204C107.377 270.067 99.6517 274.683 92.4339 279.504C98.3405 285.728 108.085 296.435 114.406 301.686C114.737 302.229 115.075 302.757 115.36 303.326C123.97 293.047 127.721 284.488 134.502 273.995C131.779 272.333 116.671 265.072 114.406 265.204ZM300.345 349.571C296.426 349.163 291.293 349.624 287.175 349.571C288.644 357.191 291.772 382.622 297.729 387.328C301.821 389.761 303.635 389.768 308.313 389.433C307.913 376.173 303.322 364.026 304.211 348.898L300.345 349.571Z"/><path fill="#E67D58" transform="scale(2 2)" d="M258.546 151.103C264.735 143.661 270.459 135.145 276.561 127.426C277.239 127.9 293.32 153.221 294.432 155.181C292.648 163.999 290.482 172.608 288.934 181.55C285.608 180.812 281.815 180.203 278.441 179.626C270.939 178.7 266.968 178.179 259.285 178.218C259.63 170.049 258.332 160.031 258.546 151.103Z"/><path fill="#EA9959" transform="scale(2 2)" d="M200.039 161.509C201.991 154.485 207.105 140.523 210.309 133.946C214.739 135.565 232.842 149.512 238.031 154.219C237.941 162.194 238.628 171.627 239.056 179.626C234.067 179.938 229.047 181.169 224.5 183.241C221.663 183.155 215.174 185.914 211.865 186.831C208.15 180.463 203.029 168.597 200.039 161.509Z"/><path fill="#FECB5B" transform="scale(2 2)" d="M313.403 163.327C322.969 158.55 332.029 152.687 341.469 148.001C342.351 149.349 347.163 177.55 347.876 181.55C343.567 188.592 338.874 195.37 334.478 202.353C330.952 199.499 326.604 196.904 322.664 194.648C318.736 192.406 312.468 189.399 308.313 187.725L311.36 172.537C311.949 169.67 312.586 166.091 313.403 163.327Z"/><path fill="#FECB5B" transform="scale(2 2)" d="M151.194 194.648C151.085 184.62 151.186 174.426 151.194 164.386C158.039 164.836 174.099 171.243 183.264 172.652C184.558 178.359 191.253 190.299 193.807 196.111C190.206 198.771 186.777 201.353 183.264 204.125C179.391 207.203 174.509 212.323 170.992 214.777C169.47 212.352 153.746 196.725 151.194 194.648Z"/><path fill="white" transform="scale(2 2)" d="M466.238 294.431C465.766 290.974 466.442 286.243 466.216 282.484C464.065 246.693 423.04 235.197 392.978 236.018C389.539 236.112 385.684 240.334 382.758 242.047C365.504 252.145 355.278 238.17 345.255 227.876C298.574 179.938 217.148 176.744 174.088 231.225C144.906 268.003 134.289 327.494 80.2908 341.642C76.7549 342.568 71.9612 344.401 68.4944 344.465C67.6765 344.202 67.4639 344.198 66.8822 343.549C140.027 321.647 135.273 266.143 175.865 221.788C222.433 170.903 302.535 176.708 348.752 224.402C358.256 233.935 367.811 247.127 383.411 235.844C392.618 229.186 391.041 230.503 402.351 230.592C429.635 230.807 459.981 239.253 467.832 269.016C469.64 275.871 470.084 288.061 466.238 294.431Z"/><path fill="#FD7069" transform="scale(2 2)" d="M366.876 192.724C374.885 191.527 383.478 190.383 391.517 189.622L391.797 189.745C392.05 191.083 385.847 219.481 385.366 223.799C374.161 233.977 369.414 235.59 359.05 223.799C355.933 220.767 353.993 217.799 350.339 214.777C353.625 209.535 362.747 196.52 366.876 192.724Z"/><path fill="#EB0707" transform="scale(2 2)" d="M170.992 281.836C170.998 279.34 171.067 276.46 170.992 273.995C167.736 269.51 163.031 271.218 162.804 276.356C162.611 280.736 163.011 286.227 163.788 290.553C161.133 292.836 158.334 296.461 155.936 299.108C133.248 324.145 103.573 344.842 68.4944 345.318L68.4944 344.465C71.9612 344.401 76.7549 342.568 80.2908 341.642C134.289 327.494 144.906 268.003 174.088 231.225C217.148 176.744 298.574 179.938 345.255 227.876C355.278 238.17 365.504 252.145 382.758 242.047C385.684 240.334 389.539 236.112 392.978 236.018C423.04 235.197 464.065 246.693 466.216 282.484C466.442 286.243 465.766 290.974 466.238 294.431C451.869 302.734 435.418 284.472 433.185 284.534C422.048 285.991 437.985 303.326 458.27 303.326C436.194 317.794 412.232 305.411 394.62 289.644C392.662 287.891 390.664 288.969 389.152 290.553C372.805 277.938 344.747 296.132 327.715 301.581C289.499 313.806 247.496 311.382 213.162 289.593C198.256 281.055 187.151 279.982 170.992 281.836ZM421.865 248.713C418.108 248.351 419.096 248.831 416.471 250.651C408.811 249.315 417.327 274.025 427.558 261.167C431.57 256.125 428.248 248.996 421.865 248.713ZM274.039 202.353C257.814 203.588 259.868 219.129 276.561 218.981C294.143 217.713 289.564 201.503 274.039 202.353ZM223.578 205.333C207.313 207.687 206.926 223.422 224.5 222.456C242.74 217.593 236.736 203.686 223.578 205.333ZM252.319 221.744C237.201 223.397 236.901 239.015 254.226 238.252C270.353 234.908 265.389 219.127 252.319 221.744ZM298.504 223.799C284.828 225.99 290.014 241.458 308.313 240.751C321.63 237.779 313.903 220.888 298.504 223.799ZM202.858 233.583C186.639 235.802 187.107 252.04 201.812 250.651C218.921 248.284 217.58 232.559 202.858 233.583Z"/><path fill="#3C3C3B" transform="scale(2 2)" d="M276.561 218.981C259.868 219.129 257.814 203.588 274.039 202.353C289.564 201.503 294.143 217.713 276.561 218.981Z"/><path fill="#3C3C3B" transform="scale(2 2)" d="M224.5 222.456C206.926 223.422 207.313 207.687 223.578 205.333C236.736 203.686 242.74 217.593 224.5 222.456Z"/><path fill="#FECB5B" transform="scale(2 2)" d="M110.105 214.777C119.178 213.38 128.076 211.739 137.096 210.339C139.783 209.834 156.285 227.514 158.87 230.507C152.741 238.049 148.446 247.138 143.5 255.387C140.881 254.159 138.351 252.975 135.687 251.843C132.753 250.575 126.515 248.433 124.99 245.746C120.813 238.387 111.903 221.827 110.105 214.777Z"/><path fill="#3C3C3B" transform="scale(2 2)" d="M254.226 238.252C236.901 239.015 237.201 223.397 252.319 221.744C265.389 219.127 270.353 234.908 254.226 238.252Z"/><path fill="#3C3C3B" transform="scale(2 2)" d="M308.313 240.751C290.014 241.458 284.828 225.99 298.504 223.799C313.903 220.888 321.63 237.779 308.313 240.751Z"/><path fill="#3C3C3B" transform="scale(2 2)" d="M201.812 250.651C187.107 252.04 186.639 235.802 202.858 233.583C217.58 232.559 218.921 248.284 201.812 250.651Z"/><path fill="white" transform="scale(2 2)" d="M416.471 250.651C419.096 248.831 418.108 248.351 421.865 248.713C424.822 257.122 413.782 257.367 416.471 250.651Z"/><path fill="#333232" transform="scale(2 2)" d="M421.865 248.713C428.248 248.996 431.57 256.125 427.558 261.167C417.327 274.025 408.811 249.315 416.471 250.651C413.782 257.367 424.822 257.122 421.865 248.713Z"/><path fill="#E67D58" transform="scale(2 2)" d="M92.4339 279.504C99.6517 274.683 107.377 270.067 114.406 265.204C116.671 265.072 131.779 272.333 134.502 273.995C127.721 284.488 123.97 293.047 115.36 303.326C115.075 302.757 114.737 302.229 114.406 301.686C108.085 296.435 98.3405 285.728 92.4339 279.504Z"/><path fill="#FECB5B" transform="scale(2 2)" d="M170.992 281.836C187.151 279.982 198.256 281.055 213.162 289.593C247.496 311.382 289.499 313.806 327.715 301.581C344.747 296.132 372.805 277.938 389.152 290.553C379.806 300.398 364.564 315.032 352.215 321.344C350.913 310.79 344.15 312.88 343.418 318.645C341.227 318.366 340.481 319.039 338.929 320.524C339.718 335.948 339.705 351.558 336.932 366.801C336.351 369.998 333.969 377.549 336.748 380.218C341.234 384.527 357.659 376.316 358.076 396.237C353.026 399.678 329.052 398.958 324.641 397.882C310.329 394.392 311.095 345.275 312.471 334.179C312.701 332.327 313.148 330.367 313.153 328.505C313.159 325.683 309.416 323.108 307.101 325.258C304.13 328.017 304.293 336.958 304.211 340.933C281.759 343.546 253.684 340.558 232.004 334.521C231.498 328.426 235.584 299.633 223.578 308.82C216.333 306.134 218.76 313.951 219.146 318.141C220.931 337.5 212.897 355.852 211.004 374.839C209.727 387.654 231.118 373.709 232.589 396.237C228.026 399.603 221.533 398.255 216.263 398.263C208.535 398.275 195.19 401.312 191.926 392.358C190.365 388.076 184.102 355.695 184.852 352.265C185.912 347.414 193.561 334.417 192.616 330.687C191.902 327.864 187.998 324.75 186.213 322.398C177.456 310.86 171.713 296.317 170.992 281.836Z"/><path fill="#FECB5B" transform="scale(2 2)" d="M68.4944 345.318C103.573 344.842 133.248 324.145 155.936 299.108C158.334 296.461 161.133 292.836 163.788 290.553C166.352 301.836 168.015 306.156 173.11 316.462C143.661 339.636 101.084 371.102 62.0311 357.134C55.3823 354.756 50.5552 351.565 45.8074 346.54C50.1683 346.336 55.6524 345.424 59.2528 345.318C60.8266 346.133 66.612 345.551 68.4944 345.318Z"/><path fill="#9CEAF6" transform="scale(2 2)" d="M59.2528 345.318L66.8822 343.549C67.4639 344.198 67.6765 344.202 68.4944 344.465L68.4944 345.318C66.612 345.551 60.8266 346.133 59.2528 345.318Z"/><path fill="#FECB5B" transform="scale(2 2)" d="M287.175 349.571C291.293 349.624 296.426 349.163 300.345 349.571L304.211 348.898C303.322 364.026 307.913 376.173 308.313 389.433C303.635 389.768 301.821 389.761 297.729 387.328C291.772 382.622 288.644 357.191 287.175 349.571Z"/></svg>