<?xml version="1.0" encoding="utf-8" ?><svg xmlns="http://www.w3.org/2000/svg" xmlns:xlink="http://www.w3.org/1999/xlink" width="1024" height="1024" viewBox="0 0 1024 1024"><path fill="#333332" transform="scale(2 2)" d="M168.918 229.62C181.137 210.45 185.984 173.111 187.21 150.396C188.028 135.236 183.396 113.659 199.517 104.775C212.775 97.4686 228.862 107.62 234.856 104.139C246.551 97.3459 245.141 79.8662 265.374 74.7881C286.275 73.3599 289.949 95.4996 301.235 96.1228C311.147 96.6701 325.725 76.2303 343.355 88.7954C351.631 94.6936 354.2 103.929 357.579 112.952C365.676 134.571 382.881 115.607 397.778 132.191C406.686 142.108 400.429 155.559 399.933 167.066C399.317 181.352 426.446 182.802 426.771 203.978C427.062 222.834 409.324 229.593 409.398 237.984C409.505 250.067 437.725 265.931 409.681 290.452C436.551 312.462 465.883 312.286 492.35 288.619C501.638 280.314 497.301 296.649 496.702 299.234C490.605 319.567 475.56 337.586 456.81 347.487C426.858 363.455 399.144 356.751 368.66 347.578C367.22 351.027 364.407 356.231 362.233 359.171C362.285 359.241 362.337 359.311 362.388 359.38L362.638 359.735C364.871 362.875 377.001 393.444 376.506 396.409C375.842 400.392 358.88 428.096 353.561 432.076C351.076 433.935 329.426 432.954 325.51 432.955L256.698 432.954C244.42 432.951 232.632 435.452 244.054 418.548C252.324 406.309 267.836 400.36 281.628 397.35C278.104 392.417 273.93 385.467 270.881 380.179C250.95 382.904 233.323 381.964 213.66 378.263C210.798 380.457 206.01 385.57 202.85 388.323C198.668 392.162 194.219 395.854 189.821 399.449C188.685 407.82 190.209 419.757 177.887 421.037C165.724 422.301 161.786 410.029 160.828 400.215C158.524 402.295 150.79 410.648 147.803 406.206C141.909 397.442 150.419 381.175 156.559 373.811C162.748 367.099 172.111 362.105 178.516 355.829L178.772 355.576C173.639 351.985 168.818 348.805 163.592 345.066C152.59 348.802 137.976 355.392 127.538 360.263C123.196 389.855 101.898 383.245 100.162 357.25C96.6419 361.062 94.4134 363.39 89.1332 364.197C82.4343 361.414 83.4911 356.536 85.4981 350.614C91.0504 334.233 103.964 327.505 118.025 320.745L133.833 313.117C126.71 301.496 121.455 291.255 117.049 278.337C115.504 273.81 111.822 270.745 107.708 268.221C81.2628 251.994 46.2963 287.198 33.0686 257.148C30.7687 251.923 31.0523 248.015 33.2933 242.627C12.0233 242.378 6.55015 213.617 23.816 205.548C41.6781 197.201 60.3971 189.473 78.3234 181.136C95.4841 173.154 108.907 169.454 127.53 178.883C149.07 189.79 153.47 212.878 168.918 229.62ZM197.869 189.522C196.853 194.689 195.767 199.574 194.648 204.7C190.554 219.572 188.932 224.1 181.543 237.748C193.876 240.369 198.573 237.787 209.528 235.319C212.797 233.438 221.829 228.515 224.711 227.795C229.218 224.438 235.578 221.367 240.58 218.333C245.823 216.806 250.415 214.295 255.74 212.743C259.232 211.445 265.535 209.846 269.173 209.127C274.829 207.949 279.823 207.549 285.569 207.252C292.751 207.178 297.854 207.433 305.09 208.185C310.416 209.227 314.509 210.121 319.706 211.574C324.953 213.213 331.175 215.665 335.912 218.333C339.814 220.288 343.702 222.649 347.415 224.953C352.236 228.193 356.541 232.095 361.318 235.319C363.843 238.468 368.482 242.614 371.446 245.786C375.841 250.407 379.36 254.719 383.15 259.872C388.035 267.465 394.985 274.05 398.997 280.586C400.006 279.027 400.677 277.948 402.248 276.849C417.205 258.72 376.461 248.286 404.296 217.496C418.007 202.329 411.566 201.676 397.156 190.49C372.542 171.382 392.366 152.711 386.449 142.816C384.006 138.73 372.131 139.41 367.766 139.134C337.684 137.237 346.226 103.511 332.114 100.256C319.687 97.3897 306.984 124.369 284.637 103.915C280.411 100.047 275.201 91.815 269.524 90.5911C262.023 88.9737 254.8 104.419 251.161 109.439C236.086 130.235 215.272 111.768 206.021 118.409C199.871 122.824 202.069 142.906 201.878 149.608C201.498 162.973 200.152 176.348 197.869 189.522ZM319.706 281.393C296.685 287.707 290.332 316.502 296.353 336.709C302.585 357.623 319.106 376.787 333.849 392.45C342.066 401.18 339.018 400.167 329.818 402.985C314.322 407.732 303.119 412.796 294.249 427.456C296.09 427.481 298.175 427.557 299.99 427.456L340.759 427.456C346.93 416.729 354.715 406.439 360.47 395.724C358.026 385.51 350.368 369.054 346.259 358.63C355.04 342.389 367.101 320.91 360.307 302.099C354.703 286.58 335.822 275.439 319.706 281.393ZM187.32 306.495C181.108 306.151 173.064 312.241 173.914 318.444C175.235 328.079 180.423 338.497 183.175 347.882C187.303 358.796 186.275 356.496 178.439 362.914C165.145 373.802 151.031 380.971 151.777 400.96C153.083 399.858 155.311 397.566 156.341 396.765C173.239 379.787 161.718 405.177 171.938 414.044C172.452 414.348 172.569 414.489 173.115 414.612C186.508 420.563 182.184 401.646 185.138 396.902C186.578 395.244 188.661 393.489 190.325 392.096C200.697 383.413 210.011 373.867 219.44 364.197C225.311 364.661 231.404 365.377 237.234 366.314C258.262 366.347 280.364 365.72 299.99 357.25C292.885 350.639 288.951 331.079 288.79 321.73C258.339 327.934 242.691 329.666 210.419 328.17C209.35 327.771 207.852 327.465 206.719 327.325C210.986 337.687 213.232 348.768 217.366 358.63C214.626 367.588 195.643 381.795 188.542 388.899C182.74 394.703 180.71 393.623 180.578 403.844C180.513 408.89 182.017 414.109 175.384 414.044C174.323 408.612 174.306 406.396 174.808 400.96C176.488 389.07 178.238 390.866 186.475 383.56C194.943 376.048 203.954 367.841 211.219 359.171C208.573 349.908 205.602 340.818 202.474 331.629C199.186 321.967 198.212 308.534 187.32 306.495ZM140.429 321.73C139.381 320.429 138.322 319.08 137.248 317.807L121.397 325.314C108.364 331.369 95.9723 337.156 90.8292 352.162C90.326 353.63 89.5276 356.466 89.7182 357.978L90.0018 358.238C92.0425 358.119 92.9435 356.191 94.1178 355.576C97.6789 353.339 98.1621 349.985 103.132 348.508C105.883 349.649 106.216 350.271 105.8 353.194C104.666 357.843 106.89 373.052 113.53 373.796C121.915 374.735 121.211 361.462 122.628 356.555C131.518 350.974 148.928 345.456 158.989 341.234C158.253 340.276 157.162 338.762 156.341 337.952C153.885 338.547 150.712 340.067 148.314 341.091L134.794 346.972C131.12 348.606 122.027 351.935 119.304 354.14C118.421 355.812 117.542 380.699 111.061 371.664C111.217 369.062 113.374 353.288 114.146 351.265C116.659 348.255 121.791 346.603 125.402 345L140.058 338.49C143.688 336.882 147.404 335.353 150.857 333.407C146.24 329.004 144.444 326.199 140.429 321.73ZM458.569 321.73C428.861 326.324 401.527 308.561 383.753 286.056C376.794 277.245 369.719 268.159 362.523 259.657C334.122 226.105 291.044 212.375 250.752 231.353C228.279 241.938 207.821 258.814 181.251 252.674C142.845 244.571 144.783 198.516 114.974 190.093C97.53 185.163 80.9615 196.771 65.2021 203.804L41.6046 214.462C38.5427 215.838 35.0962 217.056 31.9527 218.396C25.6091 221.1 27.5844 227.532 33.959 227.773C37.967 227.925 42.2149 227.785 46.2908 227.785L72.5857 227.786C74.1089 227.786 87.8794 226.494 85.2762 231.258C83.8143 233.934 61.8813 246.047 58.0754 247.838C56.7919 248.442 46.7722 250.943 47.0066 252.117C48.3426 258.808 62.7766 253.085 66.3295 252.236C82.4734 248.374 99.3301 246.628 114.572 254.691C129.254 262.458 129.837 270.921 135.841 284.709C143.523 302.35 155.93 320.439 171.938 331.519C169.439 323.859 166.798 318.366 170.835 310.589C175.197 302.185 185.871 298.551 194.313 303.012C201.679 306.903 202.542 314.641 205.083 321.73C238.9 324.895 255.893 324.12 288.79 315.823C297.654 250.959 378.478 268.127 366.574 325.793C366.126 327.257 365.933 329.912 365.764 331.519C368.484 331.637 369.964 332.131 372.588 332.877C396.723 339.759 423.711 346.938 447.421 334.535C453.497 331.357 463.959 325.135 468.127 319.554C465.165 320.538 461.685 321.46 458.569 321.73ZM281.628 378.263C280.277 378.495 278.259 378.78 276.978 379.093L277.128 379.431C279.957 385.723 285.169 391.972 288.419 398.162C292.485 405.905 253.566 401.454 245.863 427.456C247.65 427.467 249.458 427.493 251.243 427.456C263.408 427.458 276.736 427.172 288.79 427.456C296.675 409.493 307.93 408.539 310.531 404.228C308.227 394.294 305.811 382.609 304.008 372.634C295.389 375.532 290.569 376.461 281.628 378.263ZM267.371 80.0989C250.025 81.6566 246.5 109.699 232.93 110.243C221.739 110.692 207.454 101.739 198.065 112.506C189.913 121.856 192.893 137.549 192.32 148.902C190.826 178.543 187.492 206.767 173.115 233.123L176.741 235.319C191.673 210.531 195.364 177.096 196.467 148.675C196.869 138.295 192.929 115.085 207.367 112.005C218.191 109.984 230.935 118.796 241.464 111.947C250.825 105.857 254.329 86.9968 266.982 85.4896C282.082 83.6909 287.487 109.834 304.527 105.876C314.145 103.642 326.184 90.0999 337.233 96.7955C352.482 106.036 341.069 130.059 367.736 133.897C416.158 133.395 376.86 162.27 395.409 181.859C402.902 189.772 417.308 193.4 416.948 205.704C416.382 219.756 399.606 223.285 399.664 238.272C399.724 253.589 425.227 266.154 402.248 283.644C403.447 285.036 403.993 285.413 405.446 286.523C417.348 278.332 419.566 264.42 410.748 253.032C390.817 227.294 422.693 225.297 421.295 204.405C420.12 186.845 401.639 186.53 395.921 175.015C389.983 163.06 403.848 145.192 392.286 134.473C381.852 124.801 363.944 134.752 356.049 122.766C349.25 112.165 348.988 93.9509 334.247 90.4826C321.89 87.5751 310.913 102.583 300.085 101.414C286.914 99.9916 282.416 78.6368 267.371 80.0989ZM100.88 179.096C91.4572 180.052 85.0552 183.817 76.6594 187.657L37.1563 205.419C28.1819 209.346 17.5947 211.747 18.7966 224.11C20.5279 241.921 40.8912 236.392 52.0769 238.45C46.8839 239.473 42.5238 238.258 39.1099 243.432C34.7492 250.039 37.8554 258.827 44.227 262.788C58.2055 271.867 84.8714 248.062 111.124 263.862C117.082 267.448 120.617 271.847 122.871 278.293C134.059 310.154 151.022 329.621 177.723 348.508C173.851 336.18 172.898 339.919 163.382 331.727C148.88 319.24 137.439 302.392 130.124 284.758C125.467 272.42 123.83 265.678 111.292 259.154C81.9572 243.891 49.869 272.214 42.1015 253.551C41.4383 251.958 40.9892 246.75 43.2465 246.501C55.4129 245.164 63.1939 238.826 73.6828 233.123C69.6188 232.928 65.5419 233.087 61.4689 233.116L43.408 233.132C38.4105 233.126 29.8102 234.454 26.1485 230.251C20.7541 224.165 22.6548 216.707 30.0322 213.395L72.8223 194.511C87.2095 188.174 96.5751 180.926 113.19 184.196C144.749 190.406 145.482 228.556 170.742 243.035C198.991 259.224 223.897 237.677 248.712 226.227C276.219 213.58 310.06 214.699 336.249 229.927C359.122 243.131 370.764 261.154 386.51 280.586C406.345 304.212 436.088 326.013 468.108 313.799C470.675 312.82 478.368 307.987 480.668 310.921C482.45 313.542 477.921 317.661 476.434 319.282C448.267 349.978 419.087 351.315 379.855 340.56C374.442 339.076 368.877 337.029 363.572 335.579C360.003 344.337 355.848 351.126 352.125 359.171C357.44 370.028 362.628 384.382 366.574 395.724C361.784 406.546 352.065 416.975 347.415 427.456L350.764 427.456C355.738 421.779 367.931 402.739 371.446 395.724C366.53 384.152 361.22 371.009 356.777 359.171C358.666 354.394 362.976 345.705 365.764 341.234C370.425 341.717 381.926 345.561 387.465 346.968C433.712 358.713 477.023 343.913 491.897 296.445C475.395 308.247 460.599 314.457 439.407 311.169C405.588 305.923 391.755 277.577 372.134 254.947C335.844 213.096 286.343 199.008 236.539 226.915C219.476 236.475 202.26 248.147 181.653 242.748C152.662 235.153 151.145 197.197 126.335 184.254C119.646 180.765 108.41 177.526 100.88 179.096ZM302.288 363.04C297.327 364.261 292.879 366.131 287.647 367.266C269.408 371.223 239.704 373.881 221.008 369.78C219.432 371.365 218.626 372.322 217.366 374.196C218.512 374.205 219.882 374.254 221.008 374.196C253.677 377.78 274.429 376.071 305.09 366.314C304.488 365.322 303.461 363.257 302.288 363.04ZM309.488 372.634C311.857 382.629 314.065 391.948 315.629 402.138L318.679 400.96C319.657 399.532 313.839 374.97 309.488 372.634ZM321.268 386.894C322.581 391.346 323.241 394.887 324.064 399.449C326.152 398.61 327.75 397.955 329.933 397.35L330.715 397.097L330.851 396.722C329.782 395.401 322.472 387.675 321.268 386.894Z"/><path fill="#FD7069" transform="scale(2 2)" d="M197.869 189.522C200.152 176.348 201.498 162.973 201.878 149.608C202.069 142.906 199.871 122.824 206.021 118.409C215.272 111.768 236.086 130.235 251.161 109.439C254.8 104.419 262.023 88.9737 269.524 90.5911C275.201 91.815 280.411 100.047 284.637 103.915C306.984 124.369 319.687 97.3897 332.114 100.256C346.226 103.511 337.684 137.237 367.766 139.134C372.131 139.41 384.006 138.73 386.449 142.816C392.366 152.711 372.542 171.382 397.156 190.49C411.566 201.676 418.007 202.329 404.296 217.496C376.461 248.286 417.205 258.72 402.248 276.849C397.922 273.592 386.242 260.034 383.15 259.872C379.36 254.719 375.841 250.407 371.446 245.786C375.942 236.797 392.584 218.969 399.205 210.572C404.011 205.829 397.792 200.055 393.452 204.294C382.861 214.636 372.136 225.191 361.318 235.319C356.541 232.095 352.236 228.193 347.415 224.953C347.854 223.763 350.697 219.169 351.55 217.631L370.454 184.065C371.82 181.619 379.69 169.683 378.946 167.03C375.333 154.142 361.469 180.542 358.991 184.043C351.75 194.27 341.893 207.369 335.912 218.333C331.175 215.665 324.953 213.213 319.706 211.574C320.068 207.026 323.499 195.234 324.791 190.046L335.219 147.15C336.049 143.664 341.11 129.639 334.923 128.906C330.079 128.332 326.587 143.519 325.31 147.264L317.749 169.17C315.115 176.818 305.236 201.833 305.09 208.185C297.854 207.433 292.751 207.178 285.569 207.252C285.753 202.185 285.227 196.334 284.82 191.249L280.697 140.867C280.221 134.019 279.792 127.159 279.087 120.335C278.446 114.131 273.172 113.409 269.677 118.051C270.126 125.744 269.779 135.094 269.715 142.93L269.142 201.451C269.142 203.672 268.948 207.028 269.173 209.127C265.535 209.846 259.232 211.445 255.74 212.743C245.546 188.853 234.301 165.259 223.678 141.549C221.037 135.654 216.814 138.199 215.124 143.237C220.094 156.553 224.111 169.646 228.792 183.043L235.903 203.46C237.504 208.111 239.441 213.554 240.58 218.333C235.578 221.367 229.218 224.438 224.711 227.795C221.287 222.514 201.045 191.785 197.869 189.522Z"/><path fill="#FC5754" transform="scale(2 2)" d="M285.569 207.252C279.823 207.549 274.829 207.949 269.173 209.127C268.948 207.028 269.142 203.672 269.142 201.451L269.715 142.93C269.779 135.094 270.126 125.744 269.677 118.051C273.172 113.409 278.446 114.131 279.087 120.335C279.792 127.159 280.221 134.019 280.697 140.867L284.82 191.249C285.227 196.334 285.753 202.185 285.569 207.252Z"/><path fill="#FC5754" transform="scale(2 2)" d="M305.09 208.185C305.236 201.833 315.115 176.818 317.749 169.17L325.31 147.264C326.587 143.519 330.079 128.332 334.923 128.906C341.11 129.639 336.049 143.664 335.219 147.15L324.791 190.046C323.499 195.234 320.068 207.026 319.706 211.574C314.509 210.121 310.416 209.227 305.09 208.185Z"/><path fill="#FC5754" transform="scale(2 2)" d="M215.124 143.237C216.814 138.199 221.037 135.654 223.678 141.549C234.301 165.259 245.546 188.853 255.74 212.743C250.415 214.295 245.823 216.806 240.58 218.333C239.441 213.554 237.504 208.111 235.903 203.46L228.792 183.043C224.111 169.646 220.094 156.553 215.124 143.237Z"/><path fill="#FC5754" transform="scale(2 2)" d="M335.912 218.333C341.893 207.369 351.75 194.27 358.991 184.043C361.469 180.542 375.333 154.142 378.946 167.03C379.69 169.683 371.82 181.619 370.454 184.065L351.55 217.631C350.697 219.169 347.854 223.763 347.415 224.953C343.702 222.649 339.814 220.288 335.912 218.333Z"/><path fill="#E1DF67" transform="scale(2 2)" d="M171.938 331.519C155.93 320.439 143.523 302.35 135.841 284.709C129.837 270.921 129.254 262.458 114.572 254.691C99.3301 246.628 82.4734 248.374 66.3295 252.236C62.7766 253.085 48.3426 258.808 47.0066 252.117C46.7722 250.943 56.7919 248.442 58.0754 247.838C61.8813 246.047 83.8143 233.934 85.2762 231.258C87.8794 226.494 74.1089 227.786 72.5857 227.786L46.2908 227.785C42.2149 227.785 37.967 227.925 33.959 227.773C27.5844 227.532 25.6091 221.1 31.9527 218.396C35.0962 217.056 38.5427 215.838 41.6046 214.462L65.2021 203.804C80.9615 196.771 97.53 185.163 114.974 190.093C144.783 198.516 142.845 244.571 181.251 252.674C207.821 258.814 228.279 241.938 250.752 231.353C291.044 212.375 334.122 226.105 362.523 259.657C369.719 268.159 376.794 277.245 383.753 286.056C401.527 308.561 428.861 326.324 458.569 321.73L458.883 322.062C454.429 327.075 438.101 332.284 431.632 333.404C412.363 336.742 391.901 334.65 373.372 328.575C371.933 328.107 367.372 326.702 366.574 325.793C378.478 268.127 297.654 250.959 288.79 315.823C255.893 324.12 238.9 324.895 205.083 321.73C202.542 314.641 201.679 306.903 194.313 303.012C185.871 298.551 175.197 302.185 170.835 310.589C166.798 318.366 169.439 323.859 171.938 331.519ZM99.8938 194.913C95.4897 196.036 92.784 200.466 93.795 204.897C94.8061 209.328 99.1654 212.145 103.621 211.247C106.605 210.645 109.028 208.472 109.95 205.571C110.872 202.669 110.148 199.496 108.059 197.282C105.97 195.068 102.844 194.161 99.8938 194.913Z"/><path fill="#FC5754" transform="scale(2 2)" d="M194.648 204.7C195.767 199.574 196.853 194.689 197.869 189.522C201.045 191.785 221.287 222.514 224.711 227.795C221.829 228.515 212.797 233.438 209.528 235.319C208.319 231.745 197.063 206.388 194.648 204.7Z"/><path fill="#333332" transform="scale(2 2)" d="M103.621 211.247C99.1654 212.145 94.8061 209.328 93.795 204.897C92.784 200.466 95.4897 196.036 99.8938 194.913C102.844 194.161 105.97 195.068 108.059 197.282C110.148 199.496 110.872 202.669 109.95 205.571C109.028 208.472 106.605 210.645 103.621 211.247ZM100.806 200.316C99.2661 200.959 98.5377 202.728 99.1783 204.269C99.8189 205.81 101.587 206.542 103.129 205.904C104.675 205.264 105.409 203.491 104.766 201.946C104.124 200.401 102.35 199.671 100.806 200.316Z"/><path fill="white" transform="scale(2 2)" d="M103.129 205.904C101.587 206.542 99.8189 205.81 99.1783 204.269C98.5377 202.728 99.2661 200.959 100.806 200.316C102.35 199.671 104.124 200.401 104.766 201.946C105.409 203.491 104.675 205.264 103.129 205.904Z"/><path fill="#FC5754" transform="scale(2 2)" d="M361.318 235.319C372.136 225.191 382.861 214.636 393.452 204.294C397.792 200.055 404.011 205.829 399.205 210.572C392.584 218.969 375.942 236.797 371.446 245.786C368.482 242.614 363.843 238.468 361.318 235.319Z"/><path fill="#FD7069" transform="scale(2 2)" d="M194.648 204.7C197.063 206.388 208.319 231.745 209.528 235.319C198.573 237.787 193.876 240.369 181.543 237.748C188.932 224.1 190.554 219.572 194.648 204.7Z"/><path fill="#FC5754" transform="scale(2 2)" d="M383.15 259.872C386.242 260.034 397.922 273.592 402.248 276.849C400.677 277.948 400.006 279.027 398.997 280.586C394.985 274.05 388.035 267.465 383.15 259.872Z"/><path fill="#E1DF67" transform="scale(2 2)" d="M319.706 281.393C335.822 275.439 354.703 286.58 360.307 302.099C367.101 320.91 355.04 342.389 346.259 358.63C350.368 369.054 358.026 385.51 360.47 395.724C354.715 406.439 346.93 416.729 340.759 427.456L299.99 427.456C315.704 402.706 346.804 413.169 343.914 395.724C321.14 373.455 291.558 340.713 301.998 306.15C306.331 291.806 319.506 282.079 319.706 281.393Z"/><path fill="#FECB5B" transform="scale(2 2)" d="M187.32 306.495C198.212 308.534 199.186 321.967 202.474 331.629C205.602 340.818 208.573 349.908 211.219 359.171C203.954 367.841 194.943 376.048 186.475 383.56C178.238 390.866 176.488 389.07 174.808 400.96C172.446 400.164 170.43 397.654 168.918 395.724C167.289 404.718 170.141 407.16 171.938 414.044C161.718 405.177 173.239 379.787 156.341 396.765C157.872 378.04 180.922 369.746 191.767 359.171C189.303 348.178 182.287 332.766 178.684 321.538C176.365 314.313 182.188 310.127 187.32 306.495Z"/><path fill="#CDD07D" transform="scale(2 2)" d="M458.569 321.73C461.685 321.46 465.165 320.538 468.127 319.554C463.959 325.135 453.497 331.357 447.421 334.535C423.711 346.938 396.723 339.759 372.588 332.877C369.964 332.131 368.484 331.637 365.764 331.519C365.933 329.912 366.126 327.257 366.574 325.793C367.372 326.702 371.933 328.107 373.372 328.575C391.901 334.65 412.363 336.742 431.632 333.404C438.101 332.284 454.429 327.075 458.883 322.062L458.569 321.73Z"/><path fill="#FC5754" transform="scale(2 2)" d="M94.1178 355.576C100.979 336.907 123.628 329.542 140.429 321.73C144.444 326.199 146.24 329.004 150.857 333.407C147.404 335.353 143.688 336.882 140.058 338.49L125.402 345C121.791 346.603 116.659 348.255 114.146 351.265C113.374 353.288 111.217 369.062 111.061 371.664C107.146 366.166 106.482 359.711 105.8 353.194C106.216 350.271 105.883 349.649 103.132 348.508C98.1621 349.985 97.6789 353.339 94.1178 355.576Z"/><path fill="#52D4CC" transform="scale(2 2)" d="M237.234 366.314C222.999 357.523 217.397 341.942 209.88 328.413L210.419 328.17C242.691 329.666 258.339 327.934 288.79 321.73C288.951 331.079 292.885 350.639 299.99 357.25C280.364 365.72 258.262 366.347 237.234 366.314Z"/><path fill="#0E9BA6" transform="scale(2 2)" d="M210.419 328.17L209.88 328.413C217.397 341.942 222.999 357.523 237.234 366.314C231.404 365.377 225.311 364.661 219.44 364.197C220.325 361.796 220.493 359.358 217.366 358.63C213.232 348.768 210.986 337.687 206.719 327.325C207.852 327.465 209.35 327.771 210.419 328.17Z"/><path fill="#CDD07D" transform="scale(2 2)" d="M281.628 378.263C290.569 376.461 295.389 375.532 304.008 372.634C305.811 382.609 308.227 394.294 310.531 404.228C307.577 403.219 304.577 403.213 301.62 401.502C299.135 400.063 296.748 397.988 294.249 396.765C291.324 393.196 283.189 382.149 281.628 378.263Z"/><path fill="#CDD07D" transform="scale(2 2)" d="M315.629 402.138C314.065 391.948 311.857 382.629 309.488 372.634C313.839 374.97 319.657 399.532 318.679 400.96L315.629 402.138Z"/><path fill="#E1DF67" transform="scale(2 2)" d="M168.918 395.724C170.43 397.654 172.446 400.164 174.808 400.96C174.306 406.396 174.323 408.612 175.384 414.044L173.115 414.612C172.569 414.489 172.452 414.348 171.938 414.044C170.141 407.16 167.289 404.718 168.918 395.724Z"/><path fill="#E1DF67" transform="scale(2 2)" d="M294.249 396.765C296.748 397.988 299.135 400.063 301.62 401.502C304.577 403.213 307.577 403.219 310.531 404.228C307.93 408.539 296.675 409.493 288.79 427.456C276.736 427.172 263.408 427.458 251.243 427.456C257.64 410.259 281.808 411.008 293.583 404.228C294.179 401.279 294.267 399.779 294.249 396.765Z"/></svg>