<?xml version="1.0" encoding="utf-8" ?><svg xmlns="http://www.w3.org/2000/svg" xmlns:xlink="http://www.w3.org/1999/xlink" width="1024" height="1024" viewBox="0 0 1024 1024"><path fill="#3C3C3B" transform="scale(2 2)" d="M184.908 146.963C169.987 148.952 154.702 149.169 139.695 149.889C117.126 150.66 95.8094 156.238 73.8675 160.375C64.9834 162.049 54.6412 159.984 47.5977 154.303C41.7514 149.588 39.784 142.977 35.0373 137.624C26.2594 127.855 32.6534 112.654 39.4355 103.708C44.4 97.1599 54.2263 92.8507 61.56 89.1517L82.7049 78.4684C103.127 67.9162 123.986 57.7151 144.747 47.8183C150.186 45.2253 158.47 44.4561 164.533 43.7509C197.019 42.3648 227.263 55.4997 241.755 86.3297C269.817 146.028 216.865 187.571 232.455 219.113C239.14 232.637 253.443 229.586 265.774 229.314C293.645 228.699 315.07 229.554 340.76 243.781C354.212 251.23 366.569 260.513 382.241 251.699C396.348 243.766 402.077 227.976 407.944 213.818C419.281 186.457 438.297 131.364 465.859 115.78C473.519 111.449 483.612 118.077 481.247 126.781C480.047 131.198 476.354 136.537 474.497 140.985C462.309 170.186 459.519 195.894 454.472 226.935C444.084 290.833 422.125 340.82 359.81 369.112C363.383 382.836 369.812 395.973 375.011 409.124C377.176 414.598 372.88 420.468 370.466 425.247C364.729 435.946 359.806 447.055 354.154 457.789C348.992 467.593 331.451 464.76 321.908 464.753L247.527 464.756C237.371 464.754 225.974 468.096 228.89 454.161C230.533 446.313 234.955 439.981 241.539 435.483C252.935 429.106 261.967 429.012 274.102 433.118C280.252 426.3 286.413 416.851 292.719 409.533C290.735 406.217 288.278 400.842 286.478 397.221L275.772 375.81C262.952 374.678 246.116 369.616 233.804 365.919C230.811 367.455 203.898 382.055 203.043 384.552C201.083 390.274 204.799 406.693 206.4 412.973C210.706 431.958 192.989 430.306 184.398 413.772C176.029 437.461 162.845 421.212 161.504 408.151C158.234 376.315 181.462 361.001 202.746 344.323C201.323 342.971 200.388 342.072 198.742 341.015C191.716 343.255 175.171 347.339 169.913 352.443C162.222 359.909 162.152 398.318 148.77 391.624C143.223 388.849 140.78 381.248 138.95 375.81C123.662 388.406 115.019 380.851 120.438 364.627C130.348 334.959 151.696 327.056 175.743 314.383L175.996 314.247C142.822 257.113 175.385 217.583 185.274 163.419C186.238 158.138 185.77 152.235 184.908 146.963ZM217.432 68.1C206.908 57.8934 188.311 52.2912 173.997 52.2908C153.227 52.2901 149.985 54.3453 132.164 63.0523L75.3169 91.3761C67.448 95.2979 53.7711 101.382 47.102 106.977C41.4793 111.695 33.3411 128.578 44.7004 133.704C61.7232 140.629 87.1302 130.531 101.959 122.662C112.878 116.869 122.915 110.172 135.646 113.416C149.036 116.828 153.731 126.84 165.577 113.773C172.425 106.218 177.846 98.6161 188.817 97.6322C202.961 96.3637 213.209 107.283 214.373 120.98C212.057 132.275 207.972 136.874 198.742 143.095C196.7 143.838 194.654 144.49 192.589 145.16C195.935 166.073 189.621 182.209 183.14 201.972C171.037 238.879 160.703 274.824 183.097 309.945C189.323 319.709 199.85 331.803 209.224 338.58L209.501 338.778C211.099 337.627 211.812 337.084 213.219 335.724L211.785 332.511C209.084 323.322 203.356 298.597 204.477 289.691C211.954 281.5 212.413 297.203 212.904 300.607C214.788 313.667 218.246 326.237 222.129 338.726C222.91 341.238 216.123 344.47 214.623 345.472C196.729 360.078 165.077 377.821 169.76 405.946C169.838 410.3 171.218 413.763 174.244 416.904C176.512 412.401 177.423 402.207 177.873 396.934C180.616 393.989 183.128 393.589 185.75 396.934C188.492 405.989 190.622 412.192 198.742 418.513C198.358 412.748 196.341 402.548 194.726 396.934C194.709 392.382 193.663 383.912 195.582 379.945C198.869 373.151 243.449 353.335 245.574 348.907C247.541 344.81 240.343 309.429 238.872 302.3C237.967 297.91 233.552 289.04 240.303 287.635C245.304 286.594 246.06 297.691 246.689 300.709C248.565 309.709 250.034 318.81 252.001 327.78C253.889 342.554 258.331 351.855 244.031 360.598C265.238 365.695 282.106 369.855 304.494 369.794C298.684 357.01 299.511 350.054 296.235 338.778C295.875 330.507 296.585 294.706 309.785 296.987C310.768 298.098 310.803 298.304 311.375 299.665L311.571 300.124C311.609 300.217 311.646 300.309 311.684 300.402C310.802 302.667 309.664 304.797 308.773 307.015C298.584 332.372 306.654 368.116 326.08 387.234C331.006 394.624 350.687 409.029 345.957 416.456C341.446 423.538 337.309 430.811 333.117 438.078C330.724 442.274 323.246 438.924 318.573 439.032C298.269 437.108 285.428 455.774 292.719 456.541C299.452 456.401 342.39 457.218 345.088 455.972C347.621 454.801 350.714 446.977 351.943 444.568L361.563 425.274C362.987 422.361 366.87 415.2 367.743 412.443C363.677 400.626 349.976 374.321 351.807 364.647C356.047 342.231 361.586 329.225 355.347 306.612C366.098 294.077 366.326 324.15 366.247 328.675C364.703 338.955 362.761 349.669 361.411 359.767C396.305 342.377 420.074 315.634 433.239 278.933C434.872 274.383 436.308 269.745 438.156 265.282L438.156 263.229C427.288 253.223 421.17 249.293 412.865 235.301C411.852 233.189 410.854 231.191 409.772 229.114C406.247 237.612 404.051 241.347 398.134 248.563C398.346 250.603 398.731 253.18 399.363 255.128C403.572 268.25 409.766 277.911 420.625 286.74C422.52 290.087 420.4 292.457 416.933 292.912C404.984 286.83 397.058 273.314 392.886 260.975C392.406 259.017 391.869 257.074 391.34 255.128C367.929 272.018 355.144 260.224 333.738 249.394C313.889 239.352 292.067 235.937 269.986 237.299C251.325 238.45 238.003 240.391 225.091 224.065C224.906 223.462 224.238 222.118 223.946 221.485C206.621 225.299 204.252 203.02 221.294 203.179C221.259 196.283 223.301 190.075 225.091 183.533C203.114 185.824 216.471 151.549 230.73 168.936C232.918 164.895 237.264 152.78 238.599 148.267C218.69 161.974 214.866 126.623 233.158 132.103C236.864 133.214 238.699 136.703 240.281 139.936C244.03 115.479 238.823 83.5378 217.432 68.1ZM198.742 108.288C181.487 98.0465 174.097 122.776 160.661 127.523C147.96 132.011 138.682 119.243 127.082 120.583C119.489 121.46 112.386 126.524 105.776 130.025C89.4481 139.277 65.7552 147.42 47.0924 142.06C48.1717 143.507 49.8482 145.782 51.2265 146.963C62.6057 157.335 78.8376 151.239 91.9029 148.141C121.85 141.04 152.16 142.673 182.425 138.96C199.943 136.811 216.356 119.874 198.742 108.288ZM471.697 128.009C476.688 121.05 471.196 120.96 465.443 126.039C455.124 135.147 443.242 151.33 438.156 164.539C438.88 166.833 439.298 168.113 440.455 170.23C443.296 175.379 448.044 179.846 453.238 182.579C454.271 178.844 454.99 174.792 455.929 171.001C460.1 154.158 464.42 143.214 471.697 128.009ZM436.037 178.776L433.083 174.056C430.652 177.998 427.432 186.128 425.969 190.554C426.85 192.276 428.137 194.606 428.909 196.322C431.331 204.265 440.732 211.935 447.83 215.613C448.855 207.803 450.203 198.964 451.786 191.31C445.116 188.601 440.564 184.157 436.037 178.776ZM424.793 206.124C423.812 204.3 422.933 202.796 421.841 201.035C419.28 207.343 416.718 213.919 414.347 220.304C415.197 222.08 416.033 223.813 416.933 225.565C421.963 236.839 430.475 247.008 440.455 254.249C442.852 243.705 444.473 234.528 446.522 224.065C436.643 219.097 431.343 215.593 424.793 206.124ZM184.398 325.644C183.287 324.123 182.186 322.618 181.047 321.119C158.518 330.425 132.482 344.58 127.324 370.678L127.324 374.284C133.658 370.889 136.776 364.605 141.095 359.438C143.099 357.075 147.853 359.608 147.457 362.007C146.027 370.677 145.985 375.702 151.16 383.462C161.478 346.394 155.695 346.254 192.589 334.452C189.707 331.514 187.146 328.713 184.398 325.644ZM267.387 439.032C252.674 436.964 240.518 440.654 236.939 456.541C238.464 456.551 240.016 456.579 241.539 456.541L282.143 456.541C285.399 439.403 297.835 431.787 314.82 430.135C317.536 419.201 321.158 407.834 323.699 396.934C317.004 389.457 314.467 386.229 309.049 377.781C301.377 377.794 293.416 377.236 285.781 377.781C290.552 386.548 298.297 401.356 301.604 410.517C297.889 416.178 281.619 438.196 276.689 442.851C275.18 442.244 273.6 441.674 272.073 441.102C270.553 440.508 268.888 439.712 267.387 439.032ZM329.28 403.398C328.682 412.539 324.242 422.23 323.699 430.909C324.848 431.18 326.03 431.444 327.17 431.74L329.28 428.624C331.961 424.536 335.895 416.908 338.533 413.772C336.961 411.453 331.597 404.548 329.28 403.398Z"/><path fill="#0D9BA6" transform="scale(2 2)" d="M217.432 68.1C238.823 83.5378 244.03 115.479 240.281 139.936C238.699 136.703 236.864 133.214 233.158 132.103C214.866 126.623 218.69 161.974 238.599 148.267C237.264 152.78 232.918 164.895 230.73 168.936C216.471 151.549 203.114 185.824 225.091 183.533C223.301 190.075 221.259 196.283 221.294 203.179C204.252 203.02 206.621 225.299 223.946 221.485C224.238 222.118 224.906 223.462 225.091 224.065C226.036 233.476 247.66 243.543 257.211 242.427C247.698 244.886 245.121 259.09 254.582 263.669C267.995 270.159 278.681 249.902 261.353 242.427C271.51 242.696 286.499 243.676 296.235 243.087C268.907 247.333 291.943 282.873 306.134 262.921C310.508 256.771 307.156 249.858 302.82 244.997C312.562 246.252 321.724 248.758 330.982 252.308C346.076 258.096 361.012 270.953 377.938 267.831C384.329 266.652 387.774 263.323 392.886 260.975C397.058 273.314 404.984 286.83 416.933 292.912L416.58 293.191C413.031 296.03 410.004 299.599 406.524 302.518C396.325 311.074 379.285 324.506 366.247 328.675C366.326 324.15 366.098 294.077 355.347 306.612C348.62 293.238 340.021 291.411 327.068 289.292C306.554 285.937 286.1 281.831 265.608 278.371L242.354 274.367C237.408 273.469 232.531 272.779 227.793 271.254C194.487 260.533 198.556 216.666 205.305 189.427C209.893 170.915 224.367 138.766 214.373 120.98C213.209 107.283 202.961 96.3637 188.817 97.6322C177.846 98.6161 172.425 106.218 165.577 113.773C153.731 126.84 149.036 116.828 135.646 113.416C122.915 110.172 112.878 116.869 101.959 122.662C87.1302 130.531 61.7232 140.629 44.7004 133.704C38.3679 113.333 63.9004 102.947 77.7303 96.0847L133.048 68.6309C159.972 55.4552 172.789 54.1605 203.581 63.1619C206.409 63.9887 215.351 67.916 217.432 68.1ZM154.654 62.9491C143.112 63.4155 134.115 73.1186 134.52 84.6631C134.925 96.2077 144.58 105.256 156.127 104.912C167.761 104.566 176.892 94.8221 176.484 83.1906C176.076 71.559 166.284 62.4792 154.654 62.9491ZM204.934 67.5939C199.726 68.1767 195.959 72.845 196.489 78.0587C197.02 83.2724 201.65 87.0863 206.869 86.6082C210.292 86.2947 213.282 84.1672 214.701 81.0366C216.12 77.906 215.749 74.2546 213.728 71.4739C211.708 68.6932 208.35 67.2117 204.934 67.5939ZM227.394 95.8712C222.138 96.3523 218.267 101.004 218.748 106.26C219.23 111.517 223.882 115.387 229.138 114.905C234.394 114.423 238.264 109.772 237.782 104.516C237.301 99.2607 232.65 95.3902 227.394 95.8712ZM75.9701 102.101C58.7055 103.474 49.7236 127.936 60.8946 128.009C66.8803 126.328 63.7645 114.454 72.8502 111.307C75.4595 110.403 82.1741 110.267 80.7647 105.615C79.9739 103.005 78.639 102.15 75.9701 102.101ZM224.72 235.24C219.169 236.113 215.379 241.322 216.257 246.872C217.135 252.421 222.348 256.207 227.897 255.323C233.438 254.441 237.217 249.236 236.34 243.694C235.463 238.153 230.263 234.369 224.72 235.24ZM328.798 255.08C322.407 256.072 318.026 262.053 319.009 268.445C319.993 274.838 325.968 279.226 332.362 278.252C338.768 277.276 343.167 271.286 342.182 264.881C341.197 258.476 335.201 254.086 328.798 255.08ZM361.253 269.679C355.862 270.873 352.431 276.179 353.554 281.586C354.678 286.992 359.939 290.492 365.36 289.438C368.929 288.744 371.85 286.184 373.004 282.735C374.158 279.287 373.368 275.484 370.935 272.781C368.503 270.078 364.804 268.893 361.253 269.679Z"/><path fill="#3C3C3B" transform="scale(2 2)" d="M156.127 104.912C144.58 105.256 134.925 96.2077 134.52 84.6631C134.115 73.1186 143.112 63.4155 154.654 62.9491C166.284 62.4792 176.076 71.559 176.484 83.1906C176.892 94.8221 167.761 104.566 156.127 104.912ZM155.252 71.1611C150.671 71.2083 146.471 73.7188 144.259 77.7311C142.048 81.7434 142.169 86.6356 144.576 90.5337C146.983 94.4319 151.302 96.7318 155.88 96.5525C162.818 96.2808 168.251 90.4884 168.08 83.5475C167.908 76.6066 162.195 71.0897 155.252 71.1611Z"/><path fill="#3C3C3B" transform="scale(2 2)" d="M206.869 86.6082C201.65 87.0863 197.02 83.2724 196.489 78.0587C195.959 72.845 199.726 68.1767 204.934 67.5939C208.35 67.2117 211.708 68.6932 213.728 71.4739C215.749 74.2546 216.12 77.906 214.701 81.0366C213.282 84.1672 210.292 86.2947 206.869 86.6082Z"/><path fill="white" transform="scale(2 2)" d="M155.88 96.5525C151.302 96.7318 146.983 94.4319 144.576 90.5337C142.169 86.6356 142.048 81.7434 144.259 77.7311C146.471 73.7188 150.671 71.2083 155.252 71.1611C162.195 71.0897 167.908 76.6066 168.08 83.5475C168.251 90.4884 162.818 96.2808 155.88 96.5525ZM154.294 77.6244C150.952 78.1971 148.682 81.3363 149.183 84.6894C149.685 88.0426 152.776 90.3793 156.139 89.9485C158.378 89.6616 160.288 88.1857 161.13 86.0906C161.972 83.9955 161.614 81.6088 160.196 79.852C158.777 78.0952 156.52 77.243 154.294 77.6244Z"/><path fill="#3C3C3B" transform="scale(2 2)" d="M156.139 89.9485C152.776 90.3793 149.685 88.0426 149.183 84.6894C148.682 81.3363 150.952 78.1971 154.294 77.6244C156.52 77.243 158.777 78.0952 160.196 79.852C161.614 81.6088 161.972 83.9955 161.13 86.0906C160.288 88.1857 158.378 89.6616 156.139 89.9485Z"/><path fill="#3C3C3B" transform="scale(2 2)" d="M229.138 114.905C223.882 115.387 219.23 111.517 218.748 106.26C218.267 101.004 222.138 96.3523 227.394 95.8712C232.65 95.3902 237.301 99.2607 237.782 104.516C238.264 109.772 234.394 114.423 229.138 114.905Z"/><path fill="#3C3C3B" transform="scale(2 2)" d="M60.8946 128.009C49.7236 127.936 58.7055 103.474 75.9701 102.101C78.639 102.15 79.9739 103.005 80.7647 105.615C82.1741 110.267 75.4595 110.403 72.8502 111.307C63.7645 114.454 66.8803 126.328 60.8946 128.009Z"/><path fill="#CEA538" transform="scale(2 2)" d="M198.742 108.288C196.08 109.456 191.142 107.446 186.004 110.423C175.848 116.238 170.109 131.162 157.327 131.911C142.874 132.758 140.094 120.511 121.047 129.483C100.763 139.037 83.9633 150.02 60.0116 148.142C57.5729 147.951 53.4281 146.665 51.2265 146.963C49.8482 145.782 48.1717 143.507 47.0924 142.06C65.7552 147.42 89.4481 139.277 105.776 130.025C112.386 126.524 119.489 121.46 127.082 120.583C138.682 119.243 147.96 132.011 160.661 127.523C174.097 122.776 181.487 98.0465 198.742 108.288Z"/><path fill="#FDB853" transform="scale(2 2)" d="M51.2265 146.963C53.4281 146.665 57.5729 147.951 60.0116 148.142C83.9633 150.02 100.763 139.037 121.047 129.483C140.094 120.511 142.874 132.758 157.327 131.911C170.109 131.162 175.848 116.238 186.004 110.423C191.142 107.446 196.08 109.456 198.742 108.288C216.356 119.874 199.943 136.811 182.425 138.96C152.16 142.673 121.85 141.04 91.9029 148.141C78.8376 151.239 62.6057 157.335 51.2265 146.963Z"/><path fill="#FECB5B" transform="scale(2 2)" d="M214.373 120.98C224.367 138.766 209.893 170.915 205.305 189.427C198.556 216.666 194.487 260.533 227.793 271.254C232.531 272.779 237.408 273.469 242.354 274.367L265.608 278.371C286.1 281.831 306.554 285.937 327.068 289.292C340.021 291.411 348.62 293.238 355.347 306.612C361.586 329.225 356.047 342.231 351.807 364.647C349.976 374.321 363.677 400.626 367.743 412.443C366.87 415.2 362.987 422.361 361.563 425.274L351.943 444.568C350.714 446.977 347.621 454.801 345.088 455.972C342.39 457.218 299.452 456.401 292.719 456.541C293.724 456.522 295.197 456.74 295.51 455.549C298.683 443.466 309.517 442.285 318.573 439.032C323.246 438.924 330.724 442.274 333.117 438.078C337.309 430.811 341.446 423.538 345.957 416.456C350.687 409.029 331.006 394.624 326.08 387.234C325.818 385.711 324.341 382.76 323.629 381.236C314.03 360.679 305.655 337.296 311.883 314.501C313.08 310.119 315.64 306.667 317.231 302.469C319.523 296.422 314.891 293.855 309.785 296.987C296.585 294.706 295.875 330.507 296.235 338.778C283.261 337.433 263.948 332.203 252.001 327.78C250.034 318.81 248.565 309.709 246.689 300.709C246.06 297.691 245.304 286.594 240.303 287.635C233.552 289.04 237.967 297.91 238.872 302.3C240.343 309.429 247.541 344.81 245.574 348.907C243.449 353.335 198.869 373.151 195.582 379.945C193.663 383.912 194.709 392.382 194.726 396.934C194.108 400.614 186.841 397.937 185.75 396.934C183.128 393.589 180.616 393.989 177.873 396.934C176.515 395.345 175.959 395.074 174.244 393.871C178.209 378.323 211.111 355.84 223.821 346.302C228.336 342.914 228.471 338.978 226.814 333.827C222.653 320.894 219.273 307.631 217.57 294.114C215.06 274.273 202.886 284.852 204.477 289.691C203.356 298.597 209.084 323.322 211.785 332.511C203.009 328.496 189.012 309.077 184.794 300.887C159.521 251.823 194.001 209.525 199.413 163.768C200.365 155.717 199.324 150.815 198.742 143.095C207.972 136.874 212.057 132.275 214.373 120.98Z"/><path fill="#FD7069" transform="scale(2 2)" d="M440.455 170.23C445.627 158.895 460.84 133.455 471.697 128.009C464.42 143.214 460.1 154.158 455.929 171.001C454.99 174.792 454.271 178.844 453.238 182.579C448.044 179.846 443.296 175.379 440.455 170.23Z"/><path fill="#FD7069" transform="scale(2 2)" d="M428.909 196.322C431.866 191.752 432.946 184.018 436.037 178.776C440.564 184.157 445.116 188.601 451.786 191.31C450.203 198.964 448.855 207.803 447.83 215.613C440.732 211.935 431.331 204.265 428.909 196.322Z"/><path fill="#FD7069" transform="scale(2 2)" d="M416.933 225.565C417.84 224.198 423.77 208.735 424.793 206.124C431.343 215.593 436.643 219.097 446.522 224.065C444.473 234.528 442.852 243.705 440.455 254.249C430.475 247.008 421.963 236.839 416.933 225.565Z"/><path fill="#3C3C3B" transform="scale(2 2)" d="M227.897 255.323C222.348 256.207 217.135 252.421 216.257 246.872C215.379 241.322 219.169 236.113 224.72 235.24C230.263 234.369 235.463 238.153 236.34 243.694C237.217 249.236 233.438 254.441 227.897 255.323Z"/><path fill="#FD7069" transform="scale(2 2)" d="M399.363 255.128C405.599 249.049 408.758 242.733 412.865 235.301C421.17 249.293 427.288 253.223 438.156 263.229L438.156 265.282C435.727 265.775 425.41 282.394 420.625 286.74C409.766 277.911 403.572 268.25 399.363 255.128Z"/><path fill="#3C3C3B" transform="scale(2 2)" d="M257.211 242.427L261.353 242.427C278.681 249.902 267.995 270.159 254.582 263.669C245.121 259.09 247.698 244.886 257.211 242.427Z"/><path fill="#3C3C3B" transform="scale(2 2)" d="M302.82 244.997C307.156 249.858 310.508 256.771 306.134 262.921C291.943 282.873 268.907 247.333 296.235 243.087C298.149 243.668 300.896 244.543 302.82 244.997Z"/><path fill="#3C3C3B" transform="scale(2 2)" d="M332.362 278.252C325.968 279.226 319.993 274.838 319.009 268.445C318.026 262.053 322.407 256.072 328.798 255.08C335.201 254.086 341.197 258.476 342.182 264.881C343.167 271.286 338.768 277.276 332.362 278.252Z"/><path fill="#FECB5B" transform="scale(2 2)" d="M420.625 286.74C425.41 282.394 435.727 265.775 438.156 265.282C436.308 269.745 434.872 274.383 433.239 278.933C420.074 315.634 396.305 342.377 361.411 359.767C362.761 349.669 364.703 338.955 366.247 328.675C379.285 324.506 396.325 311.074 406.524 302.518C410.004 299.599 413.031 296.03 416.58 293.191L416.933 292.912C420.4 292.457 422.52 290.087 420.625 286.74Z"/><path fill="#3C3C3B" transform="scale(2 2)" d="M365.36 289.438C359.939 290.492 354.678 286.992 353.554 281.586C352.431 276.179 355.862 270.873 361.253 269.679C364.804 268.893 368.503 270.078 370.935 272.781C373.368 275.484 374.158 279.287 373.004 282.735C371.85 286.184 368.929 288.744 365.36 289.438Z"/><path fill="#FD7069" transform="scale(2 2)" d="M127.324 370.678C127.934 370.474 128.317 370.097 128.698 369.567C143.784 348.806 160.303 334.428 184.398 325.644C187.146 328.713 189.707 331.514 192.589 334.452C155.695 346.254 161.478 346.394 151.16 383.462C145.985 375.702 146.027 370.677 147.457 362.007C147.853 359.608 143.099 357.075 141.095 359.438C136.776 364.605 133.658 370.889 127.324 374.284L127.324 370.678Z"/><path fill="#CEA538" transform="scale(2 2)" d="M241.539 456.541C242.719 446.937 254.539 441.715 263.411 441.102C265.223 441.041 270.935 441.303 272.073 441.102C273.6 441.674 275.18 442.244 276.689 442.851C281.619 438.196 297.889 416.178 301.604 410.517C298.297 401.356 290.552 386.548 285.781 377.781C293.416 377.236 301.377 377.794 309.049 377.781C314.467 386.229 317.004 389.457 323.699 396.934C321.158 407.834 317.536 419.201 314.82 430.135C297.835 431.787 285.399 439.403 282.143 456.541L241.539 456.541Z"/><path fill="#FD7069" transform="scale(2 2)" d="M174.244 393.871C175.959 395.074 176.515 395.345 177.873 396.934C177.423 402.207 176.512 412.401 174.244 416.904C171.218 413.763 169.838 410.3 169.76 405.946C171.201 401.746 171.942 397.873 174.244 393.871Z"/><defs><linearGradient id="gradient_0" gradientUnits="userSpaceOnUse" x1="189.50945" y1="397.15198" x2="198.42633" y2="417.05902"><stop offset="0" stop-color="#FF9F5F"/><stop offset="1" stop-color="#FF6D6F"/></linearGradient></defs><path fill="url(#gradient_0)" transform="scale(2 2)" d="M194.726 396.934C196.341 402.548 198.358 412.748 198.742 418.513C190.622 412.192 188.492 405.989 185.75 396.934C186.841 397.937 194.108 400.614 194.726 396.934Z"/><path fill="white" transform="scale(2 2)" d="M267.387 439.032C268.888 439.712 270.553 440.508 272.073 441.102C270.935 441.303 265.223 441.041 263.411 441.102C264.003 440.919 264.132 440.832 264.684 440.534L264.498 440.52C265.846 440.039 266.605 440.045 267.387 439.032Z"/></svg>