<?xml version="1.0" encoding="utf-8" ?><svg xmlns="http://www.w3.org/2000/svg" xmlns:xlink="http://www.w3.org/1999/xlink" width="1024" height="1024" viewBox="0 0 1024 1024"><path fill="#3C3C3B" transform="scale(2 2)" d="M94.2422 140.349C86.6546 143.156 82.9741 148.196 73.3771 149.528C37.4948 155.234 26.7546 103.565 60.4189 93.7048C68.8732 91.2287 81.5297 89.0736 89.2877 85.91C91.7281 84.8912 94.2423 81.3146 96.4047 79.7148C106.23 71.8932 114.01 69.3378 125.965 67.7549L127.427 67.7313C155.71 67.4304 178.015 86.2021 181.841 114.688C182.736 121.351 181.553 126.904 180.596 133.477L172.834 192.494C170.688 209.617 169.067 220.848 169.217 238.266C171.484 237.084 173.8 235.261 175.89 233.779C243.606 185.773 339.958 207.065 381.692 278.727C387.672 288.884 391.387 298.886 396.696 308.344C402.755 319.139 415.064 329.287 428.113 328.104C452.827 325.862 455.764 293.53 428.804 284.679C424.853 283.38 419.383 283.661 419.134 278.147C419.033 273.814 422.719 271.912 426.567 272.255C489.746 277.894 485.015 372.04 420.502 379.284C406.86 379.752 389.879 380.181 376.414 379.498L376.414 416.79C376.467 430.993 375.133 443.021 357.515 443.185L327.731 443.175C315.436 443.182 293.454 445.895 293.544 426.762L293.433 379.498L216.404 379.498C214.98 383.025 215.251 388.432 215.254 392.337L215.28 414.326C215.292 425.767 215.871 441.679 199.778 442.748C184.817 443.741 162.697 443.947 147.475 442.881C138.763 442.271 131.574 434.217 131.418 425.569C130.734 402.903 129.185 376.694 137.995 355.767C112.227 332.087 97.1086 288.602 104.571 254.713L125.33 157.727C126.672 151.081 127.87 142.839 129.469 136.453C122.092 138.192 115.109 141.189 107.558 141.3C102.958 141.367 99.0944 140.412 94.6897 140.352L94.2422 140.349ZM63.9118 140.349C72.6173 143.769 83.6199 135.128 90.3566 131.832C93.5967 130.247 102.94 132.585 107.454 132.468C118.827 132.171 135.474 119.716 139.603 132.421C138.093 137.659 136.463 146.852 135.355 152.367L117.899 237.51C114.846 252.097 112.47 258.654 111.764 273.907C112.364 302.302 123.215 326.834 142.413 347.284L142.786 347.233L143.103 346.78C152.266 334.334 155.928 330.945 169.217 323.126C139.656 299.664 125.361 258.581 150.868 226.467C152.204 224.785 154.003 223.093 155.13 221.254C157.226 219.738 159.062 218.263 160.298 215.958C161.95 206.905 163.116 196.471 164.356 187.238L172.079 129.882C178.383 83.0815 127.712 59.1696 97.6813 90.6041C93.2783 95.213 90.9044 94.9313 85.1006 96.4336L70.2022 100.298C66.378 101.257 62.4965 101.838 59.0541 103.895C43.8789 112.962 46.1288 136.128 63.9118 140.349ZM218.061 224.469L217.861 223.739C211.652 220.976 176.812 243.214 171.453 249.075C171.822 250.437 172.451 252.519 172.705 253.846C181.268 283.373 208.904 290.344 236.006 290.249L236.006 309.92L216.404 309.92C216.325 306.049 216.508 302.13 216.404 298.355C206.275 296.805 201.767 293.595 194.485 291.894C167.082 277.867 162.399 256.453 159.92 229.453C158.311 231.192 157.61 232.386 156.512 234.434C135.156 260.698 151.545 304.825 179.411 319.253C204.175 316.248 218.867 319.664 229.344 343.066L282.503 343.066C295.84 309.483 329.94 314.172 353.277 335.495C355.927 337.915 358.231 340.672 360.83 343.066L401.28 343.067C419.324 343.067 440.352 345.578 449.974 326.156L450.289 325.522C442.943 332.423 441.662 331.653 435.338 335.918C431.704 336.887 429.817 336.72 426.474 337.222C412.138 336.958 401.716 329.961 393.003 318.968C387.174 311.614 385.278 303.23 380.863 295.043C367.681 270.597 347.585 246.244 322.393 233.325C322.246 234.345 321.877 235.663 321.623 236.689C306.157 294.693 229.404 288.579 218.968 234.843C218.251 231.152 218.547 227.964 218.061 224.469ZM226.747 221.254C225.326 235.576 233.513 252.448 245.41 260.469C254.154 267.918 269.874 271.176 280.797 267.593C299.524 263.557 310.255 247.269 314.242 229.453C289.548 218.771 253.121 211.802 226.747 221.254ZM456.688 331.557C442.652 353.143 427.136 351.475 404.469 351.473L366.622 351.463C370.43 358.679 371.983 363.356 374.906 370.608L400.902 370.626C402.634 370.627 410.637 370.779 411.922 370.608C444.172 372.491 468.968 342.522 461.373 311.049C461.133 319.396 460.341 323.862 456.688 331.557ZM140.308 402.65C141.914 402.674 143.565 402.652 145.175 402.65L201.519 402.65L206.242 402.65C206.314 391.499 203.497 378.617 211.917 370.357C241.145 341.684 193.518 306.099 158.761 341.316C140.225 360.098 140.281 378.584 140.308 402.65ZM302.199 402.65C303.832 402.722 305.84 402.66 307.504 402.65C313.511 402.832 320.281 402.654 326.358 402.652L363.279 402.65C364.17 402.78 366.658 402.671 367.689 402.65C367.732 377.901 367.824 361.28 347.458 342.341C312.249 309.597 277.186 339.222 294.479 366.219C296.879 369.966 300.531 372.801 301.836 377.061C303.211 381.778 301.85 396.855 302.199 402.65ZM145.175 411.95L140.308 411.95C140.257 420.449 137.582 432.998 149.227 434.163C150.199 434.34 160.389 434.168 162.249 434.166L197.43 434.163C208.792 433.123 206.282 420.419 206.242 411.95C204.767 411.879 203.021 411.936 201.519 411.95L145.175 411.95ZM307.504 411.95L302.199 411.95C302.155 422.256 298.997 434.414 313.009 434.163L341.897 434.174C346.043 434.176 352.196 434.38 356.191 434.163L356.567 434.18C370.539 434.789 367.658 421.727 367.689 411.95L363.279 411.95L307.504 411.95ZM229.344 351.463C228.305 359.861 227.172 362.888 223.585 370.608L280.797 370.608L286.74 370.608C283.384 363.383 281.845 359.489 281.585 351.463L229.344 351.463Z"/><defs><linearGradient id="gradient_0" gradientUnits="userSpaceOnUse" x1="177.70341" y1="217.16232" x2="47.108986" y2="205.49763"><stop offset="0" stop-color="#FFBE2B"/><stop offset="1" stop-color="#CCCE6C"/></linearGradient></defs><path fill="url(#gradient_0)" transform="scale(2 2)" d="M139.603 132.421C135.474 119.716 118.827 132.171 107.454 132.468C102.94 132.585 93.5967 130.247 90.3566 131.832C83.6199 135.128 72.6173 143.769 63.9118 140.349C63.5118 139.504 60.8488 138.086 59.9513 137.291C49.986 128.459 53.4525 111.309 65.6811 106.446C75.7446 102.444 86.8908 101.096 97.2206 97.8289C99.7744 97.021 103.356 92.1172 105.615 90.3112C125.582 74.3512 154.987 80.2236 165.471 104.142C170.865 116.448 168.39 124.745 166.634 137.221L155.13 221.254C154.003 223.093 152.204 224.785 150.868 226.467C125.361 258.581 139.656 299.664 169.217 323.126C155.928 330.945 152.266 334.334 143.103 346.78C142.488 344.995 137.692 338.948 136.364 337.02C122.203 316.461 114.635 290.683 116.513 265.73C116.618 259.888 119.388 254.299 120.499 248.914L139.945 154.221C140.283 152.58 147.946 123.799 139.603 132.421ZM116.233 95.5117C103.433 85.809 98.2293 100.413 106.326 104.908C107.384 108.271 116.608 110.035 120.14 102.654C119.93 100.185 118.892 96.3622 116.233 95.5117Z"/><path fill="#3C3C3B" transform="scale(2 2)" d="M106.326 104.908C98.2293 100.413 103.433 85.809 116.233 95.5117C116.851 101.621 112.439 106.125 106.326 104.908Z"/><path fill="#FD7069" transform="scale(2 2)" d="M245.41 260.469C245.059 259.282 241.266 255.942 240.221 254.612C233.88 246.533 230.284 234.589 230.321 224.469C250.955 217.711 288.958 221.492 308.037 231.202L308.393 231.385C307.042 242.917 300.181 253.627 291.291 261.016C288.225 263.565 282.149 266.064 280.696 267.389L280.797 267.593C269.874 271.176 254.154 267.918 245.41 260.469Z"/><path fill="#0D9BA6" transform="scale(2 2)" d="M218.061 224.469C218.547 227.964 218.251 231.152 218.968 234.843C229.404 288.579 306.157 294.693 321.623 236.689C343.747 245.576 366.714 276.879 377.412 296.749C381.329 304.025 383.749 312.254 388.708 318.906C397.907 331.245 412.353 339.837 428.108 338.346C429.813 338.231 434.257 337.227 435.338 335.918C441.662 331.653 442.943 332.423 450.289 325.522L449.974 326.156C440.352 345.578 419.324 343.067 401.28 343.067L360.83 343.066C358.231 340.672 355.927 337.915 353.277 335.495C329.94 314.172 295.84 309.483 282.503 343.066L229.344 343.066C218.867 319.664 204.175 316.248 179.411 319.253C151.545 304.825 135.156 260.698 156.512 234.434C157.292 252.032 160.45 265.935 173.843 278.864C176.964 281.877 190.361 291.946 194.485 291.894C201.767 293.595 206.275 296.805 216.404 298.355C216.508 302.13 216.325 306.049 216.404 309.92L236.006 309.92L236.006 290.249C208.904 290.344 181.268 283.373 172.705 253.846C181.468 243.292 204.968 231.585 218.061 227.308L218.061 224.469ZM261.192 290.249L261.192 309.92L274.802 309.957C275.765 309.962 280.17 310.045 280.797 309.92C280.797 303.417 280.713 296.736 280.797 290.249L261.192 290.249ZM306.742 290.249L306.742 309.92C312.041 309.909 321.372 309.574 326.325 309.92L326.325 290.249L306.742 290.249Z"/><path fill="white" transform="scale(2 2)" d="M156.512 234.434C157.61 232.386 158.311 231.192 159.92 229.453C162.399 256.453 167.082 277.867 194.485 291.894C190.361 291.946 176.964 281.877 173.843 278.864C160.45 265.935 157.292 252.032 156.512 234.434Z"/><path fill="#3C3C3B" transform="scale(2 2)" d="M261.192 309.92L261.192 290.249L280.797 290.249C280.713 296.736 280.797 303.417 280.797 309.92C280.17 310.045 275.765 309.962 274.802 309.957L261.192 309.92Z"/><path fill="#3C3C3B" transform="scale(2 2)" d="M306.742 309.92L306.742 290.249L326.325 290.249L326.325 309.92C321.372 309.574 312.041 309.909 306.742 309.92Z"/><path fill="#CDD07D" transform="scale(2 2)" d="M145.175 402.65C145.15 386.252 144.292 373.172 152.373 358.058C160.722 342.442 174.683 331.726 192.868 331.239C205.654 330.897 215.141 338.209 215.464 351.447C215.764 363.767 206.668 366.741 202.537 376.577C201.175 380.149 201.322 397.734 201.519 402.65L145.175 402.65Z"/><path fill="#CDD07D" transform="scale(2 2)" d="M307.504 402.65C307.514 395.358 307.899 385.35 307.07 377.972C306.726 374.916 301.819 370.337 300.364 367.573C283.239 341.116 315.388 314.338 346.792 347.26C367.295 368.753 362.293 377.757 363.279 402.65L326.358 402.652C320.281 402.654 313.511 402.832 307.504 402.65Z"/><path fill="#FECB5B" transform="scale(2 2)" d="M366.622 351.463L404.469 351.473C427.136 351.475 442.652 353.143 456.688 331.557C456 347.886 435.147 365.166 420.122 368.491C418.632 368.821 412.821 370.03 411.922 370.608C410.637 370.779 402.634 370.627 400.902 370.626L374.906 370.608C371.983 363.356 370.43 358.679 366.622 351.463Z"/><path fill="white" transform="scale(2 2)" d="M426.474 337.222C429.817 336.72 431.704 336.887 435.338 335.918C434.257 337.227 429.813 338.231 428.108 338.346L426.079 337.947L426.13 337.811L428.546 337.395C428.188 337.314 426.911 337.252 426.474 337.222Z"/><path fill="#FECB5B" transform="scale(2 2)" d="M223.585 370.608C227.172 362.888 228.305 359.861 229.344 351.463L281.585 351.463C281.845 359.489 283.384 363.383 286.74 370.608L280.797 370.608L223.585 370.608Z"/><path fill="#FD7069" transform="scale(2 2)" d="M145.175 411.95L201.519 411.95C201.516 418.78 202.694 429.31 197.43 434.163L162.249 434.166C160.389 434.168 150.199 434.34 149.227 434.163C148.884 433.134 146.339 431.078 145.963 429.705C144.629 424.824 144.873 416.951 145.175 411.95Z"/><path fill="#FD7069" transform="scale(2 2)" d="M307.504 411.95L363.279 411.95L363.232 412.395C362.385 421.01 365.593 429.07 356.191 434.163C352.196 434.38 346.043 434.176 341.897 434.174L313.009 434.163C312.952 434.124 312.894 434.084 312.837 434.045L312.553 433.843C305.803 429.106 307.461 419.427 307.504 411.95Z"/></svg>