<?xml version="1.0" encoding="utf-8" ?><svg xmlns="http://www.w3.org/2000/svg" xmlns:xlink="http://www.w3.org/1999/xlink" width="1024" height="1024" viewBox="0 0 1024 1024"><path fill="#3C3C3B" transform="scale(2 2)" d="M155.972 168.602C153.815 166.183 149.074 162.487 146.491 160.403C134.55 177.228 135.128 179.698 120.516 163.837C115.961 169.005 109.337 181.574 103.361 175.184C99.8258 171.405 96.3984 167.394 92.6513 163.837C78.7812 176.529 80.8101 180.773 67.6543 160.403C58.381 166.522 56.8086 172.281 49.4317 161.269C44.1502 153.385 46.5401 146.542 40.933 139.65C28.6358 124.537 58.7249 93.6819 70.8955 86.7697C98.2402 70.7023 129.024 84.7791 158.098 83.1521C163.033 82.876 171.949 77.7749 176.169 74.8673C197.398 60.239 229.809 62.9427 246.786 83.2608C247.838 81.6911 248.819 79.8796 250.842 79.5027C252.542 79.186 280.385 89.4552 281.772 93.1914C281.482 98.3557 274.372 113.606 272.866 120.091L273.191 120.386C278.702 125.34 299.942 133.97 296.163 140.217C291.944 147.193 286.941 155.984 281.753 162.086C285.682 163.793 308.431 174.839 305.869 180.113C303.095 185.824 293.939 194.875 292.598 200.765C296.313 201.27 312.405 204.656 314.918 207.287C316.923 209.387 312.418 228.654 311.836 231.839L312.158 231.808C316.376 231.366 335.122 226.78 337.723 228.711C340.475 230.754 343.766 247.751 345.181 251.85L345.437 251.656C349.676 248.379 362.471 234.284 367.179 234.696C369.629 234.91 383.887 249.575 385.563 251.85C386.873 248.99 396.135 231.822 397.964 231.214C400.591 230.34 420.734 239.489 424.785 241.327C435.845 224.94 444.198 209.564 448.009 189.84C452.137 168.119 469.164 171.796 471.491 184.862C483.673 253.268 450.801 333.284 388.542 367.006C381.22 370.972 372.313 374.401 365.498 378.513C364.154 382.799 363.241 388.566 362.236 393.048C379.512 404.37 375.546 440.65 350.518 445.235C346.56 445.96 340.125 445.57 335.865 445.556L274.944 445.552C264.173 445.555 252.391 448.917 248.917 436.397L171.533 436.403C165.36 436.401 150.301 436.459 151.67 426.014C152.443 420.115 158.67 413.739 162.827 409.75C174.064 398.917 190.228 394.104 205.765 394.934C197.157 376.487 193.101 356.005 198.687 335.898C196.782 333.294 194.068 329.543 191.644 327.522C158.979 327.126 165.988 350.953 152.45 351.027C134.984 351.123 146.361 318.658 151.504 310.348C129.282 309.238 134.941 327.721 122.803 327.105C114.255 326.671 112.229 319.247 113.165 312.171C117.382 280.293 146.946 269.251 175.644 270.129C174.548 258.477 176.156 238.145 168.44 231.074C157.968 232.517 143.178 235.41 133.093 238.105C111.836 243.785 89.1971 250.773 69.8019 235.633C61.844 229.421 53.37 220.21 52.1745 209.564C51.0618 195.219 58.3864 199.422 58.9698 197.008C65.3622 170.553 64.0257 178.345 78.1871 189.01C84.356 182.128 89.3392 191.437 93.7808 196.652L94.0261 196.377C105.778 183.076 101.482 182.089 117.119 195.732C124.314 178.942 124.016 177.609 139.03 189.838C141.316 184.271 143.953 171.901 151.504 177.667C156.899 181.46 161.007 183.404 166.337 188.129C179.162 181.563 191.089 161.108 173.504 154.281C168.77 158.476 161.716 173.989 155.972 168.602ZM272.866 96.2578C271.048 95.2103 243.681 81.4353 254.33 92.1715C260.17 102.755 261.747 106.998 264.899 118.623C267.515 112.899 270.06 105.367 271.997 99.3531L272.866 96.2578ZM266.551 125.684C266.834 127.479 267.15 129.274 267.457 131.065C268.447 138.632 269.326 148.148 270.6 155.417C272.551 156.709 273.708 157.375 275.799 158.426C278.069 155.459 284.859 144.834 286.852 141.229C287.266 140.604 287.792 140.016 287.796 139.312C283.688 135.861 271.268 128.207 266.551 125.684ZM463.157 184.06C457.534 175.979 455.748 190.744 455.088 193.348C446.785 226.109 429.598 260.161 393.608 268.184C346.802 278.618 296.804 257.555 277.359 212.624C268.398 192.827 265.563 175.798 262.721 154.535C258.991 126.63 258.049 95.0037 230.004 78.884C195.455 59.0257 180.34 89.3228 155.809 90.4845C132.219 91.6015 109.655 82.2659 86.2839 88.268C68.848 92.5931 57.0314 106.585 48.2426 121.393C43.0258 130.183 44.2029 136.097 53.1741 141.229C70.2876 156.511 126.235 151.654 147.232 147.825C158.962 145.699 171.977 141.647 182.236 150.154C192.848 158.954 191.029 174.784 182.736 184.511C167.688 202.161 116.319 212.212 91.7176 210.813C81.5345 211.127 72.577 208.776 62.8846 206.119C60.6315 205.502 59.3773 208.096 59.6632 209.979C60.68 216.674 67.6168 224.522 72.9166 228.409C90.6198 243.171 109.265 236.482 128.885 231.609C151.581 225.972 174.961 222.122 197.992 218.114C216.616 215.834 216.569 200.889 220.611 200.996C229.862 201.24 221.166 213.421 218.405 216.515C209 227.055 195.024 224.878 183.057 228.409C180.819 228.59 179.009 228.673 176.82 229.266C181.513 238.065 181.081 243.313 181.512 253.124C182.118 266.902 184.668 276.702 187.185 289.664C189.255 289.65 191.486 289.592 193.542 289.664L196.491 289.664C198.404 284.318 214.392 250.287 220.331 267.113C218.866 269.233 216.299 270.402 214.601 272.257C208.679 278.724 203.593 288.013 202.453 296.757L202.095 296.814C198.68 297.346 194.447 296.62 190.772 296.803C139.638 299.342 149.001 362.617 155.972 338.592C171.414 316.752 188.524 319.391 213.099 321.573C221.046 322.279 232.133 307.718 234.599 301.251C236.162 297.15 237.728 289.729 243.105 289.664C249.359 296.302 237.469 311.866 233.067 317.367C219.635 331.575 217.909 328.365 200.893 327.522C223.782 354.734 245.868 371.066 280.155 380.18C275.45 365.131 273.898 356.178 274.465 340.089C275.93 323.296 279.887 306.736 291.342 293.743C295.343 289.206 299.295 286.058 302.49 292.766C301.136 295.227 298.613 296.956 296.77 299.04C276.361 322.26 277.832 364.515 293.31 389.783C295.366 393.139 305.44 405.081 305.118 407.129C286.195 412.567 270.455 410.09 257.597 431.393C254.944 435.856 256.672 438.417 261.674 438.251L338.529 438.259C345.671 438.257 350.925 439.121 356.947 434.52C367.638 426.352 368.07 409.77 359.5 399.959C357.683 397.88 355.656 396.173 354.013 393.945C357.683 377.686 359.084 372.243 357.463 354.28C356.692 348.483 351.731 332.435 351.78 329.291C351.818 326.828 356.55 323.964 359.071 329.102C364.063 343.929 365.529 354.755 365.498 370.201C428.582 343.88 469.243 279.094 466.502 210.813C464.97 205.382 466.495 188.836 463.157 184.06ZM271.997 165.161C272.213 167.205 272.295 168.226 272.866 170.18C273.767 176.989 278.165 196.351 281.422 201.989C285.292 197.111 292.42 187.17 295.597 181.724C296.05 181.127 296.699 180.035 297.125 179.37C292.429 176.538 276.306 166.517 271.997 165.161ZM286.852 206.944C284.53 207.734 282.976 207.875 284.293 210.423C290.696 221.423 294.539 228.331 303.804 238.062C304.545 231.984 305.566 221.118 307.438 215.535C307.526 214.437 307.466 213.318 307.438 212.214C301.878 210.183 292.911 208.427 286.852 206.944ZM322.851 237.435C319.762 238.096 310.664 239.602 308.528 240.826L308.318 241.27C308.984 242.723 310.56 243.77 311.836 244.736C320.235 250.708 329.344 255.618 339.179 258.799C338.22 254.582 335.157 243.894 333.688 239.668L333.688 238.062C332.957 233.656 327.171 236.628 322.851 237.435ZM368.753 245.327C367.854 244.426 367.506 244.251 366.406 243.557C362.458 245.475 349.317 257.749 346.578 261.163C348.24 261.453 350.176 261.745 351.789 262.155C364.972 262.931 371.66 263.824 385.563 262.155C381.116 257.313 373.516 249.836 368.753 245.327ZM417.797 247.923L418.468 247.449C417.998 246.269 403.173 240.497 401.027 239.668C398.125 245.171 392.466 253.271 390.89 258.799C390.892 259.553 390.914 260.42 390.89 261.163C392.219 260.826 393.801 260.477 395.069 260.008C402.215 258.325 411.945 252.542 417.797 247.923ZM178.161 282.509C177.889 280.737 178.062 279.042 178.161 277.251C160.937 277.373 145.249 277.29 131.834 290.713C114.857 307.698 120.775 328.127 125.481 317.367C134.474 305.157 139.33 300.481 156.585 303.977C162.896 297.103 171.347 293.157 180.207 290.798L178.161 282.509ZM208.246 347.367C206.833 344.972 206.285 344.381 204.309 342.424C203.776 359.148 201.994 368.154 209.056 385.126C210.6 388.837 221.963 402.599 213.603 401.619C190.484 402.637 172.839 403.423 158.756 426.19C159.879 427.674 160.301 428.033 161.886 428.998C162.894 429.009 164.016 429.048 165.012 428.998L250.297 428.998C257.822 417.469 261.509 413.972 273.724 407.556C267.565 399.444 264.631 394.088 269.382 384.708C249.76 377.926 231.319 367.84 215.75 354.065C213.364 351.954 211.095 349.474 208.547 347.587L208.246 347.367ZM53.1741 150.373C53.9736 153.468 54.5295 156.343 57.1305 158.426C58.4052 157.622 59.6223 156.893 60.8128 155.964L62.9955 154.281C60.7736 153.471 54.6215 150.756 53.1741 150.373ZM163.411 152.825C158.922 153.583 155.887 154.095 151.504 155.417C153.304 156.446 154.463 157.022 155.972 158.426C157.032 159.306 157.581 159.675 158.756 160.403C159.481 159.549 166.647 152.234 163.411 152.825ZM139.03 157.447C134.168 157.352 130.3 158.175 125.481 158.426C126.756 159.733 128.13 161.271 129.772 162.086C130.904 163.383 132.09 164.825 133.364 165.958C135.54 163.134 137.221 159.834 139.735 157.513L139.679 157.259L139.03 157.447ZM75.2978 157.447C76.7191 159.853 78.8781 162.941 80.6206 165.161L83.7571 162.086L87.3357 158.426C83.226 158.352 79.3701 158.116 75.2978 157.447ZM114.215 159.246C110.582 159.258 101.954 159.585 98.8349 159.246C100.573 161.213 101.445 162.148 103.424 163.837L107.155 168.602C107.946 167.533 114.338 159.951 114.311 159.292L114.215 159.246ZM149.114 184.84C147.61 188.497 146.227 192.03 144.834 195.732C147.405 195.015 149.982 194.308 152.541 193.551C154.588 192.857 156.74 192.164 158.756 191.408C156.038 189.482 151.915 186.538 149.114 184.84ZM67.6543 189.838C67.2036 192.228 64.9459 203.219 70.1817 197.777C71.14 196.534 71.772 196.001 72.9166 194.967C72.0862 194.119 68.4352 190.24 67.6543 189.838ZM127.368 189.838C126.144 193.623 124.722 197.076 123.232 200.765C126.409 200.258 130.242 199.648 133.364 198.948L137.851 197.777C134.279 195.307 130.989 192.15 127.368 189.838ZM104.533 194.967C102.669 197.418 100.541 200.386 98.8349 202.958C101.623 202.987 104.367 202.983 107.155 202.958C109.16 202.628 111.187 202.276 113.197 201.989C110.995 200.311 106.278 195.935 104.533 194.967ZM82.4838 194.967C80.4085 197.178 77.9928 199.679 76.0581 201.989C78.7775 202.184 81.057 202.372 83.7571 202.958C85.6878 203.024 87.3151 203.013 89.2483 202.958C88.4036 201.863 83.4677 195.967 82.4838 194.967ZM277.092 386.814C276.318 388.62 274.947 391.333 274.465 393.048C276.025 396.783 278.738 401.361 281.422 404.418C283.805 403.609 285.97 402.962 288.443 402.453C289.76 402.232 291.31 402.013 292.598 401.75C289.237 397.541 286.335 393.472 284.293 388.412C281.989 387.939 279.324 387.459 277.092 386.814Z"/><path fill="#FECB5B" transform="scale(2 2)" d="M53.1741 141.229C44.2909 128.561 65.884 106.833 74.9579 100.525C103.881 81.0001 135.774 101.145 162.487 95.7933C176.641 92.9576 186.403 81.3551 201.018 78.6443C218.449 75.4115 232.602 82.6971 242.673 96.9957C254.221 113.393 254.829 132.171 257.493 151.344L259.352 164.618C259.587 166.329 260.185 170.14 260.206 171.715C257.071 176.156 254.553 181.539 251.999 186.381C243.741 202.071 233.829 219.097 237.15 237.546C240.277 254.913 251.658 270.207 243.105 289.664C237.728 289.729 236.162 297.15 234.599 301.251C232.133 307.718 221.046 322.279 213.099 321.573C188.524 319.391 171.414 316.752 155.972 338.592C155.522 335.571 157.81 326.718 158.84 324.02C165.031 307.799 182.148 300.585 198.651 302.415C201.085 302.685 203.476 302.594 205.765 301.501C210.646 293.651 208.568 286.836 218.237 277.194C220.396 275.041 228.694 268.836 220.331 267.113C214.392 250.287 198.404 284.318 196.491 289.664L193.542 289.664C184.368 270.126 190.324 247.017 183.057 228.409C195.024 224.878 209 227.055 218.405 216.515C221.166 213.421 229.862 201.24 220.611 200.996C216.569 200.889 216.616 215.834 197.992 218.114C174.961 222.122 151.581 225.972 128.885 231.609C109.265 236.482 90.6198 243.171 72.9166 228.409C71.9725 225.522 62.5075 214.867 65.4444 210.876C71.532 211.447 86.8322 214.186 91.7176 210.813C116.319 212.212 167.688 202.161 182.736 184.511C191.029 174.784 192.848 158.954 182.236 150.154C171.977 141.647 158.962 145.699 147.232 147.825C126.235 151.654 70.2876 156.511 53.1741 141.229ZM97.8285 109.237C100.786 104.237 99.4393 101.9 93.2787 101.759C76.5055 101.374 71.5622 121.978 83.7571 117.226C83.6913 117.735 83.5376 119.074 83.8275 119.391C88.3856 124.112 88.8597 116.419 91.055 114.121C93.3953 111.672 99.4118 113.708 97.8285 109.237ZM202.13 91.074C193.598 91.7627 187.238 99.236 187.924 107.768C188.609 116.301 196.08 122.663 204.612 121.981C213.15 121.299 219.516 113.823 218.831 105.286C218.145 96.7486 210.667 90.3849 202.13 91.074Z"/><path fill="#FAB2A0" transform="scale(2 2)" d="M254.33 92.1715C243.681 81.4353 271.048 95.2103 272.866 96.2578L271.997 99.3531C265.779 97.2925 260.248 94.2714 254.33 92.1715Z"/><path fill="#3C3C3B" transform="scale(2 2)" d="M204.612 121.981C196.08 122.663 188.609 116.301 187.924 107.768C187.238 99.236 193.598 91.7627 202.13 91.074C210.667 90.3849 218.145 96.7486 218.831 105.286C219.516 113.823 213.15 121.299 204.612 121.981ZM206.527 98.5735C204.162 99.243 202.776 101.691 203.42 104.064C204.063 106.436 206.496 107.849 208.875 107.232C210.438 106.826 211.662 105.613 212.081 104.053C212.5 102.494 212.049 100.83 210.9 99.6965C209.75 98.5627 208.081 98.1338 206.527 98.5735Z"/><path fill="#FD7069" transform="scale(2 2)" d="M254.33 92.1715C260.248 94.2714 265.779 97.2925 271.997 99.3531C270.06 105.367 267.515 112.899 264.899 118.623C261.747 106.998 260.17 102.755 254.33 92.1715Z"/><path fill="#3C3C3B" transform="scale(2 2)" d="M97.8285 109.237C93.8218 109.886 88.9415 107.949 85.7946 111.813C84.3252 113.617 84.8282 115.49 83.7571 117.226C71.5622 121.978 76.5055 101.374 93.2787 101.759C99.4393 101.9 100.786 104.237 97.8285 109.237Z"/><path fill="#FAB2A0" transform="scale(2 2)" d="M267.457 131.065C267.15 129.274 266.834 127.479 266.551 125.684C271.268 128.207 283.688 135.861 287.796 139.312C287.792 140.016 287.266 140.604 286.852 141.229C281.457 139.449 273.125 133.417 267.457 131.065Z"/><path fill="#FD7069" transform="scale(2 2)" d="M267.457 131.065C273.125 133.417 281.457 139.449 286.852 141.229C284.859 144.834 278.069 155.459 275.799 158.426C273.708 157.375 272.551 156.709 270.6 155.417C269.326 148.148 268.447 138.632 267.457 131.065Z"/><path fill="#FAB2A0" transform="scale(2 2)" d="M155.972 168.602C161.716 173.989 168.77 158.476 173.504 154.281C191.089 161.108 179.162 181.563 166.337 188.129C161.007 183.404 156.899 181.46 151.504 177.667C153.194 174.695 153.401 171.9 155.972 168.602Z"/><path fill="#FAB2A0" transform="scale(2 2)" d="M272.866 170.18C272.295 168.226 272.213 167.205 271.997 165.161C276.306 166.517 292.429 176.538 297.125 179.37C296.699 180.035 296.05 181.127 295.597 181.724C288.018 179.095 280.152 173.729 272.866 170.18Z"/><path fill="#FD7069" transform="scale(2 2)" d="M272.866 170.18C280.152 173.729 288.018 179.095 295.597 181.724C292.42 187.17 285.292 197.111 281.422 201.989C278.165 196.351 273.767 176.989 272.866 170.18Z"/><path fill="#4CB5A0" transform="scale(2 2)" d="M243.105 289.664C251.658 270.207 240.277 254.913 237.15 237.546C233.829 219.097 243.741 202.071 251.999 186.381C254.553 181.539 257.071 176.156 260.206 171.715C271.517 239.294 315.601 284.72 387.012 274.906C427.596 269.329 448.253 237.118 459.043 200.781C460.645 195.385 461.405 189.527 463.157 184.06C466.495 188.836 464.97 205.382 466.502 210.813C466.427 210.965 466.352 211.116 466.278 211.268C455.545 255.568 423.982 297.074 383.904 318.93C377.629 322.352 366.118 327.813 359.071 329.102C356.55 323.964 351.818 326.828 351.78 329.291C351.731 332.435 356.692 348.483 357.463 354.28C331.964 368.88 314.392 368.021 287.246 359.396C289.362 338.359 283.804 321.216 301.198 302.175C303.948 299.164 310.77 295.552 302.49 292.766C299.295 286.058 295.343 289.206 291.342 293.743C279.887 306.736 275.93 323.296 274.465 340.089C262.184 338.082 241.88 325.309 233.067 317.367C237.469 311.866 249.359 296.302 243.105 289.664ZM267.457 216.741C261.319 221.449 254.524 226.121 248.909 231.423C246.01 234.161 248.607 237.995 252.236 237.435C256.532 234.862 267.043 226.833 270.98 223.46C274.946 220.062 271.67 216.722 267.457 216.741ZM284.293 244.736C278.925 246.107 267.592 252.489 263.361 255.721C261.753 256.95 263.737 260.73 267.457 261.163C269.903 259.964 287.467 251.29 288.114 249.771C289.276 247.043 287.339 243.997 284.293 244.736Z"/><path fill="#FAB2A0" transform="scale(2 2)" d="M284.293 210.423C282.976 207.875 284.53 207.734 286.852 206.944C292.911 208.427 301.878 210.183 307.438 212.214C307.466 213.318 307.526 214.437 307.438 215.535C299.74 214.798 290.815 210.997 284.293 210.423Z"/><path fill="#FD7069" transform="scale(2 2)" d="M284.293 210.423C290.815 210.997 299.74 214.798 307.438 215.535C305.566 221.118 304.545 231.984 303.804 238.062C294.539 228.331 290.696 221.423 284.293 210.423Z"/><path fill="#FECB5B" transform="scale(2 2)" d="M359.071 329.102C366.118 327.813 377.629 322.352 383.904 318.93C423.982 297.074 455.545 255.568 466.278 211.268C466.352 211.116 466.427 210.965 466.502 210.813C469.243 279.094 428.582 343.88 365.498 370.201C365.529 354.755 364.063 343.929 359.071 329.102Z"/><path fill="#3C3C3B" transform="scale(2 2)" d="M252.236 237.435C248.607 237.995 246.01 234.161 248.909 231.423C254.524 226.121 261.319 221.449 267.457 216.741C271.67 216.722 274.946 220.062 270.98 223.46C267.043 226.833 256.532 234.862 252.236 237.435Z"/><path fill="#FDD3C4" transform="scale(2 2)" d="M322.851 237.435C327.171 236.628 332.957 233.656 333.688 238.062L333.453 238.365C331.382 237.677 329.537 237.957 329.024 237.754C325.14 236.22 324.89 238.504 322.851 237.435Z"/><path fill="#FAB2A0" transform="scale(2 2)" d="M311.836 244.736C310.56 243.77 308.984 242.723 308.318 241.27L308.528 240.826C310.664 239.602 319.762 238.096 322.851 237.435C324.89 238.504 325.14 236.22 329.024 237.754C329.537 237.957 331.382 237.677 333.453 238.365L333.688 238.062L333.688 239.668C333.362 239.948 315.835 242.475 311.836 244.736Z"/><path fill="#FD7069" transform="scale(2 2)" d="M333.688 239.668C335.157 243.894 338.22 254.582 339.179 258.799C329.344 255.618 320.235 250.708 311.836 244.736C315.835 242.475 333.362 239.948 333.688 239.668Z"/><path fill="#FAB2A0" transform="scale(2 2)" d="M417.797 247.923C412.979 247.156 408.941 245.368 404.446 243.557C402.97 245.867 395.669 257.815 395.069 260.008C393.801 260.477 392.219 260.826 390.89 261.163C390.914 260.42 390.892 259.553 390.89 258.799C392.466 253.271 398.125 245.171 401.027 239.668C403.173 240.497 417.998 246.269 418.468 247.449L417.797 247.923Z"/><path fill="#FDD3C4" transform="scale(2 2)" d="M368.753 245.327C364.828 250.499 355.844 256.969 351.789 262.155C350.176 261.745 348.24 261.453 346.578 261.163C349.317 257.749 362.458 245.475 366.406 243.557C367.506 244.251 367.854 244.426 368.753 245.327Z"/><path fill="#FD7069" transform="scale(2 2)" d="M404.446 243.557C408.941 245.368 412.979 247.156 417.797 247.923C411.945 252.542 402.215 258.325 395.069 260.008C395.669 257.815 402.97 245.867 404.446 243.557Z"/><path fill="#3C3C3B" transform="scale(2 2)" d="M267.457 261.163C263.737 260.73 261.753 256.95 263.361 255.721C267.592 252.489 278.925 246.107 284.293 244.736C287.339 243.997 289.276 247.043 288.114 249.771C287.467 251.29 269.903 259.964 267.457 261.163Z"/><path fill="#FD7069" transform="scale(2 2)" d="M351.789 262.155C355.844 256.969 364.828 250.499 368.753 245.327C373.516 249.836 381.116 257.313 385.563 262.155C371.66 263.824 364.972 262.931 351.789 262.155Z"/><path fill="#FECB5B" transform="scale(2 2)" d="M178.161 282.509L180.207 290.798C171.347 293.157 162.896 297.103 156.585 303.977C139.33 300.481 134.474 305.157 125.481 317.367C124.472 291.531 156.176 281.329 177.872 282.597C177.968 282.568 178.065 282.538 178.161 282.509Z"/><path fill="#FECB5B" transform="scale(2 2)" d="M200.893 327.522C217.909 328.365 219.635 331.575 233.067 317.367C241.88 325.309 262.184 338.082 274.465 340.089C273.898 356.178 275.45 365.131 280.155 380.18C245.868 371.066 223.782 354.734 200.893 327.522Z"/><path fill="#FECB5B" transform="scale(2 2)" d="M208.246 347.367L208.547 347.587C211.095 349.474 213.364 351.954 215.75 354.065C231.319 367.84 249.76 377.926 269.382 384.708C264.631 394.088 267.565 399.444 273.724 407.556C261.509 413.972 257.822 417.469 250.297 428.998L165.012 428.998C168.034 420.502 180.273 412.598 188.368 410.391C197.095 408.04 231.605 410.069 222.657 397.982C210.866 382.054 207.526 366.791 208.246 347.367Z"/><path fill="#FECB5B" transform="scale(2 2)" d="M287.246 359.396C314.392 368.021 331.964 368.88 357.463 354.28C359.084 372.243 357.683 377.686 354.013 393.945C355.656 396.173 357.683 397.88 359.5 399.959C368.07 409.77 367.638 426.352 356.947 434.52C350.925 439.121 345.671 438.257 338.529 438.259L261.674 438.251C261.989 435.953 262.851 433.86 264.128 432.044C279.429 410.293 305.212 417.07 309.858 409.646C313.383 404.012 305.341 397.341 301.894 392.866C293.664 382.181 290.551 372.248 287.246 359.396Z"/></svg>