<svg xmlns="http://www.w3.org/2000/svg" viewBox="0 0 128 128" role="img">
  <title>Stegosaurus</title>
  
  <!-- ground shadow -->
  <ellipse cx="64" cy="120" rx="35" ry="4" fill="#000" opacity="0.15"/>
  
  <!-- main body -->
  <ellipse cx="65" cy="85" rx="30" ry="16" fill="#FF4757" stroke="#333" stroke-width="3"/>
  
  <!-- belly -->
  <ellipse cx="65" cy="92" rx="24" ry="10" fill="#FFD93D"/>
  
  <!-- back plates - colorful row -->
  <path d="M35 70 L40 50 L45 70 Z" fill="#FFD93D" stroke="#333" stroke-width="2"/>
  <path d="M45 65 L52 45 L59 65 Z" fill="#FF6B35" stroke="#333" stroke-width="2"/>
  <path d="M55 60 L65 35 L75 60 Z" fill="#FF4757" stroke="#333" stroke-width="2"/>
  <path d="M70 65 L77 45 L84 65 Z" fill="#FFD93D" stroke="#333" stroke-width="2"/>
  <path d="M80 70 L85 50 L90 70 Z" fill="#FF6B35" stroke="#333" stroke-width="2"/>
  
  <!-- head -->
  <ellipse cx="35" cy="82" rx="12" ry="9" fill="#FF4757" stroke="#333" stroke-width="3"/>
  <ellipse cx="35" cy="85" rx="9" ry="6" fill="#FFD93D"/>
  
  <!-- eye -->
  <circle cx="37" cy="80" r="2.5" fill="#333"/>
  <circle cx="38" cy="79" r="1" fill="#fff"/>
  
  <!-- small beak -->
  <ellipse cx="26" cy="85" rx="5" ry="3" fill="#FF4757" stroke="#333" stroke-width="2"/>
  
  <!-- legs -->
  <ellipse cx="50" cy="100" rx="5" ry="12" fill="#FFD93D" stroke="#333" stroke-width="3"/>
  <ellipse cx="65" cy="100" rx="5" ry="12" fill="#FFD93D" stroke="#333" stroke-width="3"/>
  <ellipse cx="80" cy="100" rx="5" ry="12" fill="#FFD93D" stroke="#333" stroke-width="3"/>
  <ellipse cx="95" cy="100" rx="5" ry="12" fill="#FFD93D" stroke="#333" stroke-width="3"/>
  
  <!-- feet -->
  <ellipse cx="50" cy="112" rx="7" ry="3" fill="#FF4757" stroke="#333" stroke-width="2"/>
  <ellipse cx="65" cy="112" rx="7" ry="3" fill="#FF4757" stroke="#333" stroke-width="2"/>
  <ellipse cx="80" cy="112" rx="7" ry="3" fill="#FF4757" stroke="#333" stroke-width="2"/>
  <ellipse cx="95" cy="112" rx="7" ry="3" fill="#FF4757" stroke="#333" stroke-width="2"/>
  
  <!-- tail with spikes -->
  <ellipse cx="100" cy="88" rx="12" ry="6" fill="#FF4757" stroke="#333" stroke-width="3"/>
  
  <!-- tail spikes -->
  <path d="M108 82 L115 75 L112 88 Z" fill="#333"/>
  <path d="M110 92 L117 99 L107 96 Z" fill="#333"/>
  <path d="M105 78 L112 71 L109 84 Z" fill="#333"/>
  <path d="M107 96 L114 103 L104 100 Z" fill="#333"/>
</svg>
